<?xml version="1.0" encoding="UTF-8" standalone="no"?>
<!DOCTYPE svg PUBLIC "-//W3C//DTD SVG 1.1//EN" "http://www.w3.org/Graphics/SVG/1.1/DTD/svg11.dtd">
<svg width="100%" height="100%" viewBox="0 0 280 252" version="1.1" xmlns="http://www.w3.org/2000/svg" xmlns:xlink="http://www.w3.org/1999/xlink" xml:space="preserve" xmlns:serif="http://www.serif.com/" style="fill-rule:evenodd;clip-rule:evenodd;stroke-linejoin:round;">
    <g transform="matrix(1,0,0,1,-638,-115)">
        <g transform="matrix(1.86776,0,0,1.86776,776.015,161.209)">
            <path d="M0,1.118C-0.867,-0.756 -1.704,-3.796 -3.693,-4.78C-3.88,-4.873 -4.139,-4.873 -4.289,-4.703C-5.866,-2.923 -5.449,0.4 -5.554,2.622C-5.646,4.575 -3.578,5.991 -1.781,5.496C0.176,4.957 0.798,2.842 0,1.118" style="fill:rgb(224,223,230);fill-rule:nonzero;"/>
        </g>
        <g transform="matrix(1.86776,0,0,1.86776,819.921,287.606)">
            <path d="M0,-16.887C-4.685,-17.957 -8.477,-16.265 -11.864,-12.998C-13.767,-11.162 -15.223,-9.226 -17.737,-8.181C-20.469,-7.046 -23.611,-7.029 -26.522,-6.858C-39.275,-6.109 -52.15,-6.151 -64.831,-4.522C-65.645,-4.418 -65.849,-3.371 -65.028,-3.072C-53.661,1.07 -41.373,0.522 -29.471,0.1C-24.821,-0.065 -19.864,0.061 -15.407,-1.483C-13.376,-2.187 -11.541,-3.285 -9.872,-4.627C-7.754,-6.33 -5.349,-9.897 -2.195,-8.924C2.902,-7.351 5.178,-15.705 0,-16.887" style="fill:rgb(224,223,230);fill-rule:nonzero;"/>
        </g>
        <g transform="matrix(1.86776,0,0,1.86776,881.924,288.844)">
            <path d="M0,28.299C0.709,27.565 1.318,26.674 1.791,25.591C2.958,22.919 4.113,19.824 5.073,16.562C5.053,18.454 4.985,20.336 4.772,22.186C4.326,26.055 2.493,27.701 0,28.299M10.256,14.494C9.728,6.932 8.88,-0.57 7.757,-8.065C7.629,-8.917 6.435,-8.606 6.36,-7.876C6.262,-6.91 6.171,-5.945 6.079,-4.98C4.526,-6.671 1.249,-6.005 0.471,-3.584C-1.639,2.983 -1.48,10.311 -3.271,17.06C-4.304,20.95 -4.389,24.399 -8.893,24.998C-12.215,25.439 -15.594,25.719 -18.777,26.796C-19.231,26.673 -19.682,26.542 -20.124,26.388C-23.248,25.297 -26.378,29.341 -24.509,32.092C-21.027,37.216 -14.483,36.025 -9,35.796C-3.396,35.563 3.118,35.595 7.444,31.441C12.11,26.962 10.659,20.284 10.256,14.494" style="fill:rgb(224,223,230);fill-rule:nonzero;"/>
        </g>
        <g transform="matrix(-1.86444,-0.111209,-0.111209,1.86444,839.372,287.21)">
            <path d="M0.967,-21.486C1.258,-22.238 2.621,-22.333 2.704,-21.383C3.256,-15.093 2.675,-7.331 0.967,-1.248C0.343,0.975 -2.875,0.135 -2.863,-2.001C-2.826,-8.142 -1.252,-15.743 0.967,-21.486" style="fill:rgb(224,223,230);fill-rule:nonzero;"/>
        </g>
        <g transform="matrix(1.86776,0,0,1.86776,860.2,262.436)">
            <path d="M0,-0.396C-0.525,-4.156 -0.919,-7.98 -1.828,-11.671C-2.017,-12.439 -3.154,-12.413 -3.357,-11.671C-4.978,-5.769 -6.281,3.689 -3.945,9.454C-3.173,11.358 0.189,12.043 0.643,9.454C1.218,6.179 0.458,2.88 0,-0.396" style="fill:rgb(224,223,230);fill-rule:nonzero;"/>
        </g>
        <g transform="matrix(1.86776,0,0,1.86776,879.816,272.088)">
            <path d="M0,-6.134C-0.267,-9.297 -0.266,-12.638 -1.666,-15.522C-2.056,-16.325 -3.401,-16.325 -3.791,-15.522C-5.191,-12.638 -5.19,-9.297 -5.457,-6.134C-5.792,-2.172 -6.08,1.845 -6.119,5.821C-6.162,10.184 0.705,10.191 0.662,5.821C0.623,1.845 0.335,-2.172 0,-6.134" style="fill:rgb(224,223,230);fill-rule:nonzero;"/>
        </g>
        <g transform="matrix(-0.393975,-1.82573,-1.82573,0.393975,691.948,246.388)">
            <path d="M-7.799,-11.287C-5.522,-6.187 -4.813,1.403 -5.427,6.951C-5.559,8.134 -7.221,8.628 -7.799,7.463C-10.298,2.417 -12.63,-4.563 -12.953,-10.175C-13.109,-12.882 -8.855,-13.655 -7.799,-11.287" style="fill:rgb(224,223,230);fill-rule:nonzero;"/>
        </g>
        <g transform="matrix(1.86776,0,0,1.86776,814.938,233.22)">
            <path d="M0,-15.838C0.932,-18.856 1.303,-21.954 0.656,-24.749C0.974,-27.503 0.541,-30.344 -0.926,-33.238C-3.093,-37.513 -8.635,-34.911 -9.078,-31.03C-9.473,-27.573 -9.397,-24.628 -11.149,-21.475C-12.732,-18.624 -15.14,-16.364 -17.46,-14.119C-21.586,-10.126 -25.771,-6.196 -29.54,-1.873C-32.899,-3.791 -36.442,-5.384 -40.123,-6.621C-46.127,-8.638 -52.078,-9.972 -57.711,-12.884C-58.181,-13.507 -58.923,-13.959 -59.915,-14.025C-63.174,-14.244 -66.668,-13.238 -69.903,-12.776C-72.902,-12.348 -75.958,-11.962 -78.88,-11.16C-80.204,-10.796 -80.265,-8.75 -78.88,-8.417C-75.733,-7.661 -72.418,-7.484 -69.188,-7.498C-65.905,-7.512 -62.281,-7.32 -59.152,-8.386C-58.637,-8.561 -58.233,-8.834 -57.917,-9.158C-55.032,-5.47 -50.812,-2.734 -46.717,-0.683C-42.062,1.647 -37.618,3.992 -33.248,6.621C-33.365,6.69 -33.481,6.763 -33.596,6.823C-35.219,6.781 -36.457,7.646 -37.251,8.864C-38.123,8.137 -38.987,7.409 -39.856,6.728C-42.334,4.787 -44.835,2.805 -47.406,0.931C-47.603,-0.227 -48.491,-1.316 -50.018,-1.521C-50.385,-1.57 -50.766,-1.612 -51.143,-1.656C-52.142,-2.309 -53.152,-2.943 -54.182,-3.535C-54.828,-3.906 -55.369,-3.191 -55.117,-2.6C-55.029,-2.391 -54.929,-2.188 -54.836,-1.981C-63.115,-2.489 -72.815,-1.645 -79.795,1.651C-80.421,1.946 -80.271,3.017 -79.6,3.15C-75.07,4.049 -70.307,3.726 -65.705,3.753C-60.935,3.78 -56.122,4.138 -51.353,4.038C-48.079,8.623 -43.827,12.555 -39.435,15.997C-36.926,17.963 -34.137,20.793 -30.865,21.251C-27.84,21.675 -25.677,20.018 -23.351,18.296C-16.9,13.519 -10.255,8.815 -4.213,3.521C0.992,-1.041 6.042,-6.826 6.906,-13.922C7.345,-17.525 1.524,-19.039 0,-15.838" style="fill:rgb(224,223,230);fill-rule:nonzero;"/>
        </g>
        <g transform="matrix(1.86776,0,0,1.86776,880.403,221.793)">
            <path d="M0,-6.315C-0.025,-7.377 -0.193,-8.459 -0.421,-9.537C-0.786,-11.263 -2.728,-12.714 -4.483,-12.63C-6.05,-12.556 -7.129,-12.806 -8.456,-13.633C-11.217,-15.354 -15.167,-13.137 -15.042,-9.853C-14.914,-6.493 -14.639,-3.151 -14.228,0.188C-13.859,3.182 -13.348,6.569 -9.914,7.512C-4.359,9.039 1.155,1.756 1.272,-3.083C1.307,-4.502 0.791,-5.573 0,-6.315" style="fill:rgb(224,223,230);fill-rule:nonzero;"/>
        </g>
        <g transform="matrix(1.86776,0,0,1.86776,758.774,243.171)">
            <path d="M0,-35.566C5.005,-39.263 10.918,-42.038 16.651,-42.038C25.847,-42.038 31.734,-35.28 31.734,-26.462C31.734,-12.69 14.689,-6.793 2.78,9.428C-21.576,-10.125 -33.191,-11.588 -33.191,-24.963C-33.191,-35.436 -26.453,-44.994 -14.972,-44.994C-12.932,-44.994 -5.973,-41.213 0,-35.566Z" style="fill:none;fill-rule:nonzero;stroke:rgb(82,93,125);stroke-width:1.61px;"/>
        </g>
        <g transform="matrix(1.86776,0,0,1.86776,750.83,130.008)">
            <path d="M0,20.475C-1.573,17.133 -3.262,12.886 -3.262,8.962C-3.262,2.802 1.444,0 2.732,0C7.433,0 11.7,16.735 15.885,18.827" style="fill:none;fill-rule:nonzero;stroke:rgb(82,93,125);stroke-width:1.61px;stroke-linecap:round;"/>
        </g>
        <g transform="matrix(1.86776,0,0,1.86776,697.619,209.976)">
            <path d="M0,-11.814C-0.962,-11.677 -1.994,-11.63 -3.069,-11.63C-5.445,-11.63 -8.025,-11.86 -10.501,-11.86C-18.67,-11.86 -21.565,-7.806 -21.565,-5.317C-21.565,-0.443 -16.276,0.046 -11.915,0.046C-9.18,0.046 -6.472,-0.203 -3.77,-0.203C-2.576,-0.203 -1.383,-0.155 -0.19,-0.014" style="fill:none;fill-rule:nonzero;stroke:rgb(82,93,125);stroke-width:1.61px;stroke-linecap:round;"/>
        </g>
        <g transform="matrix(1.86776,0,0,1.86776,665.668,233.404)">
            <path d="M0,-12.96C-3.774,-12.469 -7.395,-10.312 -7.395,-6.331C-7.395,0 0.003,-0.202 17.502,-0.202C20.688,-0.202 23.868,-0.255 27.049,-0.365" style="fill:none;fill-rule:nonzero;stroke:rgb(82,93,125);stroke-width:1.61px;stroke-linecap:round;"/>
        </g>
        <g transform="matrix(1.86776,0,0,1.86776,672.244,256.702)">
            <path d="M0,-12.495C-6.903,-12.181 -9.317,-8.706 -9.317,-6.248C-9.317,0 15.052,-0.031 24.481,-0.031C25.018,-0.031 25.555,-0.035 26.093,-0.045" style="fill:none;fill-rule:nonzero;stroke:rgb(82,93,125);stroke-width:1.61px;stroke-linecap:round;"/>
        </g>
        <g transform="matrix(1.86776,0,0,1.86776,695.66,275.582)">
            <path d="M0,-10.41C-2.133,-10.159 -10.602,-11.382 -10.602,-5.102C-10.602,-0.653 -5.465,0.546 -1.639,0.546C-1.4,0.546 5.188,-0.094 10.328,-0.094C19.281,-0.094 28.091,0.972 37.026,0.972C53.124,0.972 51.965,-9.582 61.757,-9.582C62.763,-9.582 63.813,-9.413 64.916,-9.036" style="fill:none;fill-rule:nonzero;stroke:rgb(82,93,125);stroke-width:1.61px;stroke-linecap:round;"/>
        </g>
        <g transform="matrix(1.86776,0,0,1.86776,819.472,222.846)">
            <path d="M0,-16.179C1.074,-14.246 2.172,-14.256 31.958,-13.694C32.301,-9.057 32.309,-4.637 32.824,0" style="fill:none;fill-rule:nonzero;stroke:rgb(82,93,125);stroke-width:1.61px;stroke-linecap:round;"/>
        </g>
        <g transform="matrix(1.86776,0,0,1.86776,855.077,219.25)">
            <path d="M0,-11.506C0.172,-10.247 0.229,-8.968 0.229,-7.683C0.229,-5.114 0,-2.519 0,0" style="fill:none;fill-rule:nonzero;stroke:rgb(82,93,125);stroke-width:1.61px;stroke-linecap:round;"/>
        </g>
        <g transform="matrix(1.86776,0,0,1.86776,822.359,237.186)">
            <path d="M0,57.889C-2.549,49.393 -17.716,47.928 -17.716,37.897C-17.716,35.443 -17.151,33.987 -14.254,33.987C-9.167,33.987 -4.745,41.991 -0.449,41.991C2.707,41.991 3.009,34.179 3.009,31.015C3.009,23.475 1.185,15.74 1.185,8.146C1.185,1.845 5.646,0.41 6.819,0.41C8.723,0.41 9.477,2.874 9.732,5.064C11.036,1.67 13.318,-1.068 16.698,-1.068C18.714,-1.068 19.744,0.05 20.383,1.728C21.694,-0.383 23.653,-1.994 26.124,-1.994C29.513,-1.994 30.468,5.264 30.468,8.872C30.468,9.726 30.444,10.586 30.412,11.446C30.657,11.417 30.903,11.403 31.148,11.403C36.973,11.403 37.119,15.397 37.119,33.81C37.119,59.883 34.5,59.068 31.276,59.068C27.781,59.068 22.314,57.521 17.317,57.521C15.825,57.521 14.342,57.655 12.874,57.998" style="fill:none;fill-rule:nonzero;stroke:rgb(82,93,125);stroke-width:1.61px;stroke-linecap:round;"/>
        </g>
        <g transform="matrix(1.86776,0,0,1.86776,840.963,288.535)">
            <path d="M0,-23.528C-0.05,-22.386 -0.071,-21.247 -0.071,-20.111C-0.071,-14.002 0.535,-7.967 0.535,-1.844C0.535,-1.231 0.529,-0.616 0.515,0" style="fill:none;fill-rule:nonzero;stroke:rgb(82,93,125);stroke-width:1.61px;stroke-linecap:round;"/>
        </g>
        <g transform="matrix(0.034067,1.86745,1.86745,-0.034067,882.321,260.555)">
            <path d="M-11.509,-11.631C-3.779,-11.6 4.111,-12.006 11.847,-11.631" style="fill:none;fill-rule:nonzero;stroke:rgb(82,93,125);stroke-width:1.61px;stroke-linecap:round;"/>
        </g>
        <g transform="matrix(-0.0414391,1.8673,1.8673,0.0414391,892.274,273.779)">
            <path d="M-7.901,-7.728C-2.743,-7.957 2.4,-7.499 7.558,-7.728" style="fill:none;fill-rule:nonzero;stroke:rgb(82,93,125);stroke-width:1.61px;stroke-linecap:round;"/>
        </g>
    </g>
</svg>
