<?xml version="1.0" encoding="UTF-8" standalone="no"?>
<!DOCTYPE svg PUBLIC "-//W3C//DTD SVG 1.1//EN" "http://www.w3.org/Graphics/SVG/1.1/DTD/svg11.dtd">
<svg width="100%" height="100%" viewBox="0 0 280 252" version="1.1" xmlns="http://www.w3.org/2000/svg" xmlns:xlink="http://www.w3.org/1999/xlink" xml:space="preserve" xmlns:serif="http://www.serif.com/" style="fill-rule:evenodd;clip-rule:evenodd;stroke-linejoin:round;">
    <g transform="matrix(1,0,0,1,-959,-115)">
        <g transform="matrix(1.79319,0,0,1.79319,1125.76,303.97)">
            <path d="M0,8.944C-7.975,8.428 -15.992,8.423 -23.968,8.905C-28.56,9.183 -33.903,9.307 -38.748,10.435C-39.419,4.26 -41.858,-1.449 -47.167,-5.362C-48.584,-6.406 -62.931,-13.99 -62.78,-9.239C-62.639,-4.787 -56.519,-2.256 -53.431,0.173C-47.621,4.744 -47.364,10.475 -47.37,17.48C-47.374,22.422 -41.087,22.934 -39.193,19.322C-33.838,19.664 -28.119,18.774 -23.01,18.609C-15.333,18.361 -7.676,18.423 0,18.618C1.954,18.667 4.302,17.093 4.664,15.067C4.737,14.657 4.855,14.198 4.837,13.781C4.715,11.04 2.713,9.12 0,8.944" style="fill:rgb(224,223,230);fill-rule:nonzero;"/>
        </g>
        <g transform="matrix(1.79319,0,0,1.79319,1212.18,296.06)">
            <path d="M0,-11.253C-2.46,-12.325 -4.977,-13.234 -7.466,-14.235C-9.104,-14.894 -10.793,-15.857 -12.581,-15.958C-15.284,-16.959 -18.091,-17.52 -21.029,-17.763C-23.729,-17.988 -25.559,-14.867 -24.694,-12.518C-25.748,-7.649 -24.853,-1.548 -24.818,2.953C-24.795,5.904 -21.534,6.735 -19.497,5.157C-16.293,2.674 -13.21,0.219 -9.561,-1.603C-8.094,-2.335 -6.268,-2.958 -4.903,-3.95C-4.387,-3.733 -3.875,-3.509 -3.35,-3.307C1.202,-1.549 4.517,-9.284 0,-11.253" style="fill:rgb(224,223,230);fill-rule:nonzero;"/>
        </g>
        <g transform="matrix(1.79319,0,0,1.79319,1207.56,354.615)">
            <path d="M0,-17.563C-3.037,-15.775 -4.642,-12.564 -7.5,-10.497C-10.803,-8.107 -14.619,-7.893 -18.559,-7.773C-22.508,-7.652 -26.481,-7.903 -30.238,-9.241C-32.943,-10.205 -35.128,-12.182 -38.008,-12.499C-38.656,-12.57 -39.405,-11.959 -39.537,-11.334C-41.632,-1.431 -25.092,1.492 -18.559,1.823C-13.393,2.085 -8.272,1.526 -3.705,-1.073C0.39,-3.403 5.615,-7.743 6.507,-12.561C7.184,-16.215 3.542,-19.648 0,-17.563" style="fill:rgb(224,223,230);fill-rule:nonzero;"/>
        </g>
        <g transform="matrix(1.79319,0,0,1.79319,1212.02,239.576)">
            <path d="M0,11.199C-0.183,7.752 -0.526,4.282 -1.002,0.871C-1.441,-2.279 -1.732,-6.202 -4.389,-8.295C-5.278,-8.995 -6.448,-9.157 -7.328,-8.295C-9.668,-6 -9.671,-2.526 -9.78,0.585C-9.917,4.519 -9.836,8.517 -9.54,12.442C-8.941,20.356 1.936,16.791 0,11.199" style="fill:rgb(224,223,230);fill-rule:nonzero;"/>
        </g>
        <g transform="matrix(1.79319,0,0,1.79319,1198.87,201.077)">
            <path d="M0,-29.557C-0.969,-31.034 -3.073,-30.389 -3.21,-28.687C-3.894,-20.209 -2.731,-11.735 -3.582,-3.235C-3.725,-1.812 -2.646,0.078 -1.341,0.672C-0.047,1.26 0.761,1.477 2.146,1.128C4.096,0.638 5.433,-1.276 5.468,-3.235C5.631,-12.189 5.045,-21.864 0,-29.557" style="fill:rgb(224,223,230);fill-rule:nonzero;"/>
        </g>
        <g transform="matrix(1.79319,0,0,1.79319,1206.37,244.148)">
            <path d="M0,-13.976C-4.932,-15.417 -10.483,-14.007 -15.554,-13.768C-18.082,-13.648 -19.569,-11.519 -19.107,-9.103C-18.908,-8.36 -18.83,-7.622 -18.849,-6.888C-20.247,-7.727 -21.675,-8.961 -22.591,-9.459C-24.298,-10.387 -25.476,-10.844 -27.367,-11.005C-27.962,-11.056 -28.328,-10.408 -28.211,-9.898C-27.268,-5.768 -22.085,0.573 -17.664,1.015C-13.413,1.441 -12.005,-2.383 -11.748,-6.077C-7.795,-5.654 -3.726,-5.125 0,-6.224C3.813,-7.349 3.831,-12.856 0,-13.976" style="fill:rgb(224,223,230);fill-rule:nonzero;"/>
        </g>
        <g transform="matrix(1.79319,0,0,1.79319,1150.51,211.594)">
            <path d="M0,13.427C-0.02,6.593 -0.079,-1.425 -2.904,-7.288C-3.377,-8.271 -5.027,-8.271 -5.501,-7.288C-8.001,-2.1 -8.335,4.777 -8.394,11.028C-11.776,11.068 -15.297,11.666 -18.404,11.793C-24.945,12.058 -31.489,12.207 -38.034,12.289C-44.251,12.367 -50.47,12.247 -56.686,12.361C-62.875,12.474 -69.797,11.864 -75.759,13.758C-76.966,14.141 -77.532,16.154 -76.151,16.757C-71.077,18.973 -65.104,19.198 -59.629,19.595C-52.763,20.094 -45.899,20.204 -39.016,20.23C-32.471,20.254 -25.926,20.135 -19.385,19.925C-15.763,19.808 -11.164,20.253 -7.071,19.714C-4.674,21.698 0.066,20.673 0.018,16.62C0.017,16.546 0.017,16.467 0.016,16.392C0.471,15.445 0.512,14.312 0,13.427" style="fill:rgb(224,223,230);fill-rule:nonzero;"/>
        </g>
        <g transform="matrix(1.79319,0,0,1.79319,1090.03,198.362)">
            <path d="M0,-6.657C-11.341,-7.018 -22.712,-7.246 -34.059,-6.984C-43.814,-6.759 -55.543,-7.721 -64.611,-3.597C-65.279,-3.293 -65.008,-2.345 -64.422,-2.148C-54.855,1.064 -43.057,-0.804 -33.085,-0.84C-22.052,-0.88 -11.03,-0.829 0,-0.477C3.978,-0.351 3.974,-6.531 0,-6.657" style="fill:rgb(224,223,230);fill-rule:nonzero;"/>
        </g>
        <g transform="matrix(1.79319,0,0,1.79319,1198.8,177.829)">
            <path d="M0,-8.871C-0.327,-10.566 -0.865,-12.166 -1.712,-13.588C-4.31,-17.946 -10.896,-23.68 -16.22,-20.852C-16.62,-20.641 -16.684,-20.141 -16.505,-19.767C-14.589,-15.775 -10.138,-13.437 -8.657,-9.107C-23.487,-8.67 -38.335,-8.643 -53.168,-8.559C-61.702,-8.511 -70.24,-8.531 -78.771,-8.325C-85.966,-8.152 -94.338,-9.195 -101.055,-6.283C-101.882,-5.925 -101.837,-4.532 -101.055,-4.158C-94.435,-0.998 -85.964,-1.842 -78.771,-1.54C-70.246,-1.184 -61.701,-1.138 -53.168,-1.119C-38.249,-1.084 -23.335,-1.374 -8.418,-1.511C-8.988,2.146 -10.111,5.912 -10.244,9.317C-10.426,13.997 -3.428,14.809 -2.187,10.408C-1.163,6.777 -0.003,2.194 0.309,-2.304C2.369,-3.891 2.254,-7.583 0,-8.871" style="fill:rgb(224,223,230);fill-rule:nonzero;"/>
        </g>
        <g transform="matrix(1.79319,0,0,1.79319,1197.99,248.664)">
            <path d="M0,-0.539C-0.473,-3.862 -0.911,-8.435 -3.645,-10.711C-4.308,-11.264 -5.372,-11.277 -5.835,-10.429C-7.439,-7.497 -6.685,-3.561 -6.601,-0.324C-6.509,3.157 -7.426,7.003 -4.867,9.706C-3.889,10.738 -2.056,10.735 -1.077,9.706C1.61,6.88 0.506,3.022 0,-0.539" style="fill:rgb(224,223,230);fill-rule:nonzero;"/>
        </g>
        <g transform="matrix(1.79319,0,0,1.79319,1174.71,352.673)">
            <path d="M0,-50.854C-1.488,-50.945 -2.992,-50.934 -4.493,-50.851C-19.281,-50.027 -26.665,-37.904 -27.039,-27.273C-27.494,-14.353 -18.006,-0.823 -2.692,-0.361C12.262,0.091 25.494,-12.435 24.694,-28.271C24.549,-31.156 24.046,-34.088 22.684,-36.764C18.213,-45.553 9.495,-50.273 0,-50.854Z" style="fill:none;fill-rule:nonzero;stroke:rgb(82,93,125);stroke-width:1.67px;"/>
        </g>
        <g transform="matrix(1.79319,0,0,1.79319,1166.19,309.572)">
            <path d="M0,-26.799C0.466,-20.498 0.588,-14.155 0.588,-7.819C0.588,-5.21 0.567,-2.603 0.542,0C10.114,-0.334 19.772,-0.507 29.402,-0.805" style="fill:none;fill-rule:nonzero;stroke:rgb(82,93,125);stroke-width:1.67px;stroke-linecap:round;"/>
        </g>
        <g transform="matrix(1.64992,-0.702355,-0.702355,-1.64992,1173.09,315.008)">
            <path d="M-1.159,5.68C8.508,5.829 18.184,5.757 27.845,5.68" style="fill:none;fill-rule:nonzero;stroke:rgb(82,93,125);stroke-width:1.67px;stroke-linecap:round;"/>
        </g>
        <g transform="matrix(1.79319,0,0,1.79319,986.694,338.774)">
            <path d="M0,-28.261C0.67,-28.293 1.343,-28.309 2.017,-28.309C31.29,-28.309 28.439,-1.298 28.708,0.048" style="fill:none;fill-rule:nonzero;stroke:rgb(82,93,125);stroke-width:1.67px;stroke-linecap:round;"/>
        </g>
        <g transform="matrix(0.0340926,-1.79287,-1.79287,-0.0340926,1040.95,262.91)">
            <path d="M-16.098,16.408C-5.157,16.341 5.784,16.345 16.722,16.408" style="fill:none;fill-rule:nonzero;stroke:rgb(82,93,125);stroke-width:1.67px;stroke-linecap:round;"/>
        </g>
        <g transform="matrix(1.79319,0,0,1.79319,1012.52,141.543)">
            <path d="M0,25.818C0.034,19.945 0.054,14.072 0.062,8.199C0.076,-1.813 8.122,-0.748 10.521,-0.949L87.638,-2.432C88.672,-2.535 89.758,-2.609 90.843,-2.609C99.883,-2.609 101.388,2.464 101.787,11.436C101.884,13.605 101.945,15.774 101.945,17.942C101.945,21.438 101.786,24.933 101.363,28.427" style="fill:none;fill-rule:nonzero;stroke:rgb(82,93,125);stroke-width:1.67px;stroke-linecap:round;"/>
        </g>
        <g transform="matrix(-0.0358453,1.79283,1.79283,0.0358453,1211.7,249.187)">
            <path d="M-9.72,-9.528C-3.24,-9.78 2.868,-9.657 9.339,-9.528" style="fill:none;fill-rule:nonzero;stroke:rgb(82,93,125);stroke-width:1.67px;stroke-linecap:round;"/>
        </g>
        <g transform="matrix(1.79306,-0.0215004,-0.0215004,-1.79306,1012.64,165.736)">
            <path d="M-0.004,0.61L101.748,0.61" style="fill:none;fill-rule:nonzero;stroke:rgb(82,93,125);stroke-width:1.67px;stroke-linecap:round;"/>
        </g>
        <g transform="matrix(1.79319,0,0,1.79319,1027.49,152.919)">
            <path d="M0,-0.751C0,-0.568 -0.127,-0.554 -0.296,-0.554C-0.329,-0.554 -0.362,-0.555 -0.397,-0.555C-0.397,-0.452 -0.443,-0.291 -0.443,-0.134C-0.443,0.171 -0.24,0.32 0.041,0.32C0.682,0.32 1.095,-0.119 1.095,-0.393C1.095,-0.635 0.835,-1.071 0.405,-1.071" style="fill:none;fill-rule:nonzero;stroke:rgb(82,93,125);stroke-width:1.67px;stroke-linecap:round;"/>
        </g>
        <g transform="matrix(1.79319,0,0,1.79319,1045.79,151.606)">
            <path d="M0,-0.019C-0.667,-0.019 -1.077,0.573 -0.693,0.573C-0.586,0.573 -0.436,0.502 -0.306,0.502C-0.048,0.502 0.188,0.078 0.188,-0.107C0.188,-0.353 -0.008,-0.592 -0.485,-0.592L-0.503,-0.592" style="fill:none;fill-rule:nonzero;stroke:rgb(82,93,125);stroke-width:1.67px;stroke-linecap:round;"/>
        </g>
        <g transform="matrix(1.79319,0,0,1.79319,1064.49,151.224)">
            <path d="M0,-0.675C0,-0.562 -0.068,-0.364 -0.068,-0.183C-0.068,0.102 0.119,0.217 0.406,0.217C0.909,0.217 1.364,-0.196 1.364,-0.405C1.364,-0.658 0.834,-0.709 0.651,-0.892C0.434,-0.892 0.217,-0.892 0,-0.675Z" style="fill:none;fill-rule:nonzero;stroke:rgb(82,93,125);stroke-width:1.67px;"/>
        </g>
        <g transform="matrix(1.79319,0,0,1.79319,969.794,187.002)">
            <path d="M0,25.392L94.615,25.021C94.708,22.064 94.749,19.121 94.749,16.183C94.749,11.081 94.625,5.992 94.434,0.86C83.343,1.271 72.219,1.39 61.119,1.39C35.265,1.39 15.835,0 15.583,0C15.123,0 5.842,0.13 0.961,0.13C0.509,0.13 0.057,0.129 -0.396,0.127C0.082,8.524 -0.112,16.984 0,25.392Z" style="fill:none;fill-rule:nonzero;stroke:rgb(82,93,125);stroke-width:1.67px;"/>
        </g>
        <g transform="matrix(-0.0668552,1.79194,1.79194,0.0668552,1113.46,211.408)">
            <path d="M-11.671,-11.244C-4.057,-11.395 3.219,-11.093 10.832,-11.244" style="fill:none;fill-rule:nonzero;stroke:rgb(82,93,125);stroke-width:1.67px;stroke-linecap:round;"/>
        </g>
        <g transform="matrix(1.79319,0,0,1.79319,1123.12,213.392)">
            <path d="M0,-8.754C-0.415,-8.876 -0.838,-8.926 -1.256,-8.91C-3.736,-8.815 -5.536,-6.475 -5.427,-4.009C-5.334,-1.91 -3.642,-0.286 -2.174,-0.038C-1.894,0.009 -1.606,0.041 -1.32,0.054C1.513,0.172 3.594,-2.082 3.603,-4.394C3.604,-4.816 3.546,-5.236 3.444,-5.627C3.003,-7.308 1.599,-8.289 0,-8.754Z" style="fill:none;fill-rule:nonzero;stroke:rgb(82,93,125);stroke-width:1.67px;"/>
        </g>
        <g transform="matrix(1.31962,-1.21414,-1.21414,-1.31962,1108.54,223.016)">
            <path d="M-0.974,2.498C1.468,2.908 3.962,2.088 6.404,2.498" style="fill:none;fill-rule:nonzero;stroke:rgb(82,93,125);stroke-width:1.67px;stroke-linecap:round;"/>
        </g>
        <g transform="matrix(-0.682692,1.65815,1.65815,0.682692,999.452,203.45)">
            <path d="M6.223,-10.754C7.771,-8.922 9.457,-7.248 11.235,-5.629C9.527,-5.102 7.855,-4.485 6.223,-3.777C7.025,-2.333 7.816,-0.873 8.627,0.559C6.351,0.961 4.077,1.393 1.811,1.948" style="fill:none;fill-rule:nonzero;stroke:rgb(82,93,125);stroke-width:1.67px;stroke-linecap:round;"/>
        </g>
        <g transform="matrix(-0.632334,1.678,1.678,0.632334,1029.64,203.055)">
            <path d="M6.051,-10.684C7.599,-8.852 9.285,-7.178 11.064,-5.56C9.355,-5.033 7.684,-4.415 6.051,-3.708C6.854,-2.264 7.646,-0.803 8.456,0.628C6.18,1.031 3.905,1.464 1.641,2.019" style="fill:none;fill-rule:nonzero;stroke:rgb(82,93,125);stroke-width:1.67px;stroke-linecap:round;"/>
        </g>
        <g transform="matrix(-0.632334,1.678,1.678,0.632334,1059.82,203.394)">
            <path d="M6.051,-10.684C7.6,-8.852 9.285,-7.178 11.064,-5.56C9.355,-5.033 7.684,-4.415 6.051,-3.708C6.854,-2.264 7.646,-0.803 8.456,0.628C6.18,1.031 3.906,1.463 1.641,2.019" style="fill:none;fill-rule:nonzero;stroke:rgb(82,93,125);stroke-width:1.67px;stroke-linecap:round;"/>
        </g>
        <g transform="matrix(1.79319,0,0,1.79319,1213.01,219.966)">
            <path d="M0,-10.224C-6.35,-9.865 -12.607,-9.505 -18.915,-9.505C-19.874,-9.505 -20.834,-9.514 -21.796,-9.532C-21.905,-12.346 -21.958,-15.193 -22.018,-18.012L-36.144,-4.797C-32.771,-1.485 -26.176,4.872 -21.812,7.788C-21.818,4.932 -21.841,2.045 -21.924,-0.79C-20.437,-0.695 -18.949,-0.659 -17.461,-0.659C-12.862,-0.659 -8.262,-1.001 -3.663,-1.001C-2.648,-1.001 -1.633,-0.984 -0.619,-0.944" style="fill:none;fill-rule:nonzero;stroke:rgb(82,93,125);stroke-width:1.67px;stroke-linecap:round;"/>
        </g>
        <g transform="matrix(1.79319,0,0,1.79319,1042.16,255.772)">
            <path d="M0,0.588C0.7,0.588 6.66,0 11.777,0C15.562,0 19.373,0.154 23.144,0.154C24.042,0.154 24.937,0.146 25.83,0.124" style="fill:none;fill-rule:nonzero;stroke:rgb(82,93,125);stroke-width:1.67px;stroke-linecap:round;"/>
        </g>
        <g transform="matrix(1.79307,-0.0210159,-0.0210159,-1.79307,1041.33,273.192)">
            <path d="M-0.001,0.155C8.814,0.052 17.631,-0.052 26.45,0.155" style="fill:none;fill-rule:nonzero;stroke:rgb(82,93,125);stroke-width:1.67px;stroke-linecap:round;"/>
        </g>
        <g transform="matrix(1.79303,-0.0242026,-0.0242026,-1.79303,1043.55,289.277)">
            <path d="M-0.001,0.155C7.577,0.052 15.315,0.257 22.893,0.155" style="fill:none;fill-rule:nonzero;stroke:rgb(82,93,125);stroke-width:1.67px;stroke-linecap:round;"/>
        </g>
        <g transform="matrix(1.79319,0,0,1.79319,1038.28,324.686)">
            <path d="M0,-0.412C2.844,-0.568 5.681,-0.63 8.515,-0.63C19.031,-0.63 29.494,0.218 40.037,0.218C40.714,0.218 41.393,0.214 42.071,0.207" style="fill:none;fill-rule:nonzero;stroke:rgb(82,93,125);stroke-width:1.67px;stroke-linecap:round;"/>
        </g>
    </g>
</svg>
