<?xml version="1.0" encoding="UTF-8" standalone="no"?>
<!DOCTYPE svg PUBLIC "-//W3C//DTD SVG 1.1//EN" "http://www.w3.org/Graphics/SVG/1.1/DTD/svg11.dtd">
<svg width="100%" height="100%" viewBox="0 0 868 245" version="1.1" xmlns="http://www.w3.org/2000/svg" xmlns:xlink="http://www.w3.org/1999/xlink" xml:space="preserve" xmlns:serif="http://www.serif.com/" style="fill-rule:evenodd;clip-rule:evenodd;stroke-linejoin:round;stroke-miterlimit:2;">
    <g transform="matrix(1,0,0,1,-460,-723)">
        <g id="Discourse_logo.svg" transform="matrix(1,0,0,1,1126.72,788.049)">
            <g transform="matrix(1,0,0,1,-192.5,-52)">
                <g id="discourse-logo-large">
                    <path d="M117.4,22.22C119.049,22.198 120.633,22.865 121.77,24.06C122.962,25.238 123.62,26.854 123.59,28.53C123.62,30.188 122.969,31.785 121.79,32.95C120.671,34.133 119.109,34.797 117.48,34.78C115.818,34.803 114.222,34.128 113.08,32.92C111.885,31.723 111.228,30.091 111.26,28.4C111.26,25 114.01,22.241 117.41,22.23L117.4,22.22ZM112.56,43.27L122.24,43.27L122.24,83.63L112.56,83.63L112.56,43.27ZM154.66,49.66L148.66,55.66C146.22,53.22 144,52 142,52C141.098,51.948 140.203,52.19 139.45,52.69C138.877,53.075 138.532,53.72 138.53,54.41C138.533,54.946 138.741,55.461 139.11,55.85C139.972,56.605 140.947,57.219 142,57.67L145.55,59.44C149.283,61.287 151.85,63.167 153.25,65.08C156.589,69.891 155.873,76.427 151.57,80.4C149.05,82.693 145.673,83.84 141.44,83.84C136.149,83.986 131.124,81.522 128,77.25L134,70.76C135.121,72.071 136.478,73.16 138,73.97C139.216,74.694 140.587,75.116 142,75.2C143.105,75.255 144.195,74.931 145.09,74.28C145.799,73.799 146.234,73.007 146.26,72.15C146.26,70.657 144.853,69.203 142.04,67.79L138.78,66.16C132.54,63.013 129.42,59.077 129.42,54.35C129.397,51.353 130.686,48.495 132.95,46.53C135.418,44.325 138.643,43.16 141.95,43.28C146.96,43.253 151.681,45.624 154.65,49.66L154.66,49.66ZM199.76,52.07L191.7,56.5C190.445,55.104 188.917,53.981 187.21,53.2C185.554,52.554 183.787,52.242 182.01,52.28C178.764,52.138 175.597,53.306 173.22,55.52C170.974,57.685 169.752,60.702 169.86,63.82C169.762,66.822 170.935,69.727 173.09,71.82C175.378,73.977 178.438,75.123 181.58,75C185.913,75 189.287,73.523 191.7,70.57L199.34,75.8C195.2,81.18 189.36,83.87 181.82,83.87C175.033,83.87 169.72,81.87 165.88,77.87C161.396,73.363 159.316,66.997 160.272,60.713C161.229,54.428 165.109,48.969 170.73,46C174.197,44.157 178.074,43.218 182,43.27C185.572,43.212 189.108,43.997 192.32,45.56C195.316,47.058 197.877,49.3 199.76,52.07ZM223.61,43.27C227.214,43.26 230.757,44.201 233.88,46C240.207,49.556 244.111,56.262 244.08,63.52C244.096,67.103 243.161,70.626 241.37,73.73C239.634,76.833 237.087,79.405 234,81.17C230.858,82.961 227.297,83.886 223.68,83.85C218.341,83.93 213.209,81.79 209.51,77.94C205.664,74.167 203.541,68.977 203.64,63.59C203.59,52.471 212.522,43.396 223.64,43.27L223.61,43.27ZM223.77,52.39C220.935,52.324 218.205,53.466 216.26,55.53C214.237,57.693 213.158,60.571 213.26,63.53C213.136,66.541 214.216,69.477 216.26,71.69C218.202,73.757 220.936,74.892 223.77,74.81C226.629,74.888 229.385,73.737 231.34,71.65C233.381,69.451 234.461,66.528 234.34,63.53C234.456,60.548 233.376,57.642 231.34,55.46C229.369,53.406 226.615,52.289 223.77,52.39ZM250,44.27L259.79,44.27L259.79,62.85C259.665,65.386 259.914,67.927 260.53,70.39C260.964,71.709 261.804,72.857 262.93,73.67C264.129,74.479 265.554,74.889 267,74.84C268.456,74.888 269.891,74.486 271.11,73.69C272.287,72.857 273.166,71.669 273.62,70.3C274.02,69.187 274.22,66.81 274.22,63.17L274.22,44.27L283.9,44.27L283.9,60.62C283.9,67.36 283.367,71.97 282.3,74.45C281.145,77.317 279.138,79.76 276.55,81.45C273.634,83.171 270.283,84.015 266.9,83.88C262.667,83.88 259.243,82.933 256.63,81.04C253.973,79.081 252.036,76.301 251.12,73.13C250.373,70.77 250,66.503 250,60.33L250,44.27ZM290.31,44.27L298.61,44.27L298.61,49.13C299.377,47.374 300.617,45.865 302.19,44.77C303.633,43.792 305.337,43.273 307.08,43.28C308.452,43.309 309.8,43.651 311.02,44.28L308.02,52.62C307.161,52.133 306.205,51.842 305.22,51.77C303.727,51.77 302.467,52.693 301.44,54.54C300.413,56.387 299.9,60.003 299.9,65.39L299.9,82.86L290.29,82.86L290.31,44.27ZM338.43,49.66L332.43,55.66C329.997,53.22 327.787,52 325.8,52C324.898,51.948 324.003,52.19 323.25,52.69C322.677,53.075 322.332,53.72 322.33,54.41C322.333,54.946 322.541,55.461 322.91,55.85C323.774,56.594 324.749,57.198 325.8,57.64L329.35,59.41C333.083,61.257 335.65,63.137 337.05,65.05C340.385,69.862 339.669,76.395 335.37,80.37C332.85,82.663 329.473,83.81 325.24,83.81C319.933,83.967 314.89,81.498 311.76,77.21L317.76,70.72C318.881,72.031 320.237,73.12 321.76,73.93C322.995,74.66 324.388,75.078 325.82,75.15C326.925,75.205 328.015,74.881 328.91,74.23C329.575,73.742 329.977,72.974 330,72.15C330,70.657 328.593,69.203 325.78,67.79L322.52,66.16C316.28,63.013 313.16,59.077 313.16,54.35C313.137,51.353 314.426,48.495 316.69,46.53C319.158,44.326 322.383,43.161 325.69,43.28C330.7,43.253 335.421,45.624 338.39,49.66L338.43,49.66ZM384.42,66.36L353.32,66.36C353.665,68.912 354.948,71.244 356.92,72.9C359.039,74.577 361.69,75.439 364.39,75.33C367.885,75.383 371.252,74.015 373.72,71.54L381.88,75.37C380.03,78.093 377.514,80.296 374.57,81.77C371.402,83.222 367.944,83.93 364.46,83.84C358.407,83.84 353.477,81.93 349.67,78.11C345.892,74.315 343.841,69.133 344,63.78C343.83,58.321 345.884,53.027 349.69,49.11C353.42,45.248 358.603,43.132 363.97,43.28C370.043,43.28 374.987,45.223 378.8,49.11C382.613,52.997 384.517,58.133 384.51,64.52L384.42,66.36ZM374.74,58.73C374.125,56.609 372.806,54.761 371,53.49C369.085,52.143 366.791,51.443 364.45,51.49C361.895,51.442 359.395,52.24 357.34,53.76C355.765,55.11 354.545,56.827 353.79,58.76L374.74,58.73ZM51.87,0C23.71,0 0,22.83 0,51L0,103.81L51.86,103.76C80.02,103.76 102.86,80.05 102.86,51.89C102.86,23.73 80,0 51.87,0Z" style="fill-rule:nonzero;"/>
                    <path d="M52.37,19.74C41.232,19.747 30.919,25.613 25.22,35.182C19.522,44.752 19.279,56.615 24.58,66.41L18.86,84.81L39.4,80.17C51.162,85.469 64.964,83.089 74.272,74.157C83.58,65.224 86.525,51.531 81.714,39.561C76.903,27.591 65.301,19.746 52.4,19.74L52.37,19.74Z" style="fill:rgb(255,249,174);fill-rule:nonzero;"/>
                    <path d="M77.087,70.914C68.109,82.24 52.59,86.031 39.4,80.12L18.86,84.82L39.77,82.35C53.632,90.47 71.38,86.897 81.021,74.046C90.661,61.195 89.125,43.156 77.45,32.12C86.215,43.612 86.066,59.587 77.087,70.914Z" style="fill:rgb(0,174,239);fill-rule:nonzero;"/>
                    <path d="M75.319,64.909C67.572,77.111 52.534,82.501 38.8,78L18.86,84.82L39.4,80.17C54.029,86.778 71.287,81.369 79.527,67.594C87.767,53.818 84.371,36.054 71.63,26.29C81.547,36.804 83.066,52.707 75.319,64.909Z" style="fill:rgb(0,169,79);fill-rule:nonzero;"/>
                    <path d="M26.47,67.11C20.745,53.311 25.463,37.388 37.781,28.934C50.099,20.481 66.653,21.806 77.47,32.11C67.452,18.963 48.996,15.754 35.128,24.747C21.26,33.741 16.662,51.901 24.58,66.41L18.86,84.81L26.47,67.11Z" style="fill:rgb(241,93,34);fill-rule:nonzero;"/>
                    <path d="M24.58,66.41C17.477,53.289 20.515,36.989 31.868,27.308C43.221,17.627 59.797,17.203 71.63,26.29C60.279,14.338 41.648,13.114 28.832,23.48C16.015,33.846 13.315,52.32 22.63,65.92L18.87,84.82L24.58,66.41Z" style="fill:rgb(208,35,43);fill-rule:nonzero;"/>
                </g>
            </g>
        </g>
        <g id="Ghost-Logo.svg" transform="matrix(0.675586,0,0,0.675586,618.716,794.049)">
            <g transform="matrix(1,0,0,1,-335.99,-144)">
                <g id="Logo">
                    <g>
                        <g opacity="0.7">
                            <rect x="112.197" y="168.302" width="31.703" height="15.852" style="fill:rgb(61,81,91);"/>
                            <rect x="159.75" y="168.302" width="31.683" height="15.852" style="fill:rgb(61,81,91);"/>
                            <rect x="112.173" y="136.599" width="79.27" height="15.852" style="fill:rgb(61,81,91);"/>
                            <rect x="112.197" y="104.898" width="47.559" height="15.851" style="fill:rgb(61,81,91);"/>
                            <rect x="175.602" y="104.898" width="15.851" height="15.851" style="fill:rgb(61,81,91);"/>
                        </g>
                        <g>
                            <path d="M421.575,104.807C396.117,104.807 382.969,122.81 382.969,145.018C382.969,167.227 395.793,185.232 421.575,185.232C447.357,185.232 460.181,167.227 460.181,145.018C460.182,122.81 447.032,104.807 421.575,104.807ZM440.835,145.09C440.817,159.371 436.005,170.938 421.575,170.938C407.145,170.938 402.332,159.372 402.317,145.09L402.317,145.019C402.332,130.739 407.146,119.173 421.576,119.173C436.005,119.173 440.817,130.739 440.835,145.019L440.835,145.09Z" style="fill:rgb(64,64,65);fill-rule:nonzero;"/>
                            <path d="M307.584,184.153L307.584,72.975C307.584,72.975 322.248,70.892 323.385,70.739C324.673,70.565 326.383,71.482 326.383,73.295L326.383,114.509C329.426,111.616 332.777,109.284 336.429,107.507C340.084,105.732 344.37,104.843 349.294,104.843C353.557,104.843 357.334,105.566 360.632,107.013C363.932,108.457 366.685,110.489 368.892,113.1C371.099,115.715 372.774,118.835 373.916,122.463C375.057,126.091 375.628,130.087 375.628,134.451L375.628,184.152L356.828,184.152L356.828,134.451C356.828,129.682 355.724,125.99 353.517,123.375C351.309,120.763 347.998,119.456 343.582,119.456C340.335,119.456 337.292,120.192 334.452,121.665C331.609,123.137 328.92,125.139 326.383,127.678L326.383,184.153L307.584,184.153Z" style="fill:rgb(64,64,65);fill-rule:nonzero;"/>
                            <path d="M558.565,185.224C545.628,185.224 537.52,177.695 537.52,163.649L537.52,122.021L522.94,122.021C522.94,122.021 526.039,111.303 526.284,110.459C526.53,109.616 527.171,108.71 528.458,108.531C529.745,108.352 537.502,107.27 537.502,107.27L541.085,84.476C541.085,84.476 551.612,82.992 553.281,82.743C554.857,82.507 556.286,83.642 556.286,85.359L556.286,107.27L574.726,107.27L574.726,122.021L556.286,122.021L556.286,163.088C556.286,168.695 559.7,170.838 562.972,170.838C564.972,170.838 567.711,169.776 569.755,168.828C571.018,168.244 572.975,168.677 573.481,170.44C573.928,172.002 576.305,180.293 576.305,180.293C574.254,181.617 567.771,185.224 558.565,185.224Z" style="fill:rgb(64,64,65);fill-rule:nonzero;"/>
                            <path d="M512.609,122.267C508.945,121.077 502.058,119.172 495.507,119.172C488.832,119.172 483.58,121.478 483.58,127.028C483.58,133.96 494.899,135.978 502.647,138.804C507.827,140.693 521.718,144.376 521.718,159.316C521.718,177.464 506.647,185.223 490.57,185.223C474.491,185.223 464.992,179.243 464.992,179.243C464.992,179.243 467.486,170.433 467.991,168.694C468.448,167.129 470.267,166.58 471.426,167.025C475.564,168.62 483.036,170.837 491.482,170.837C500.033,170.837 504.17,168.226 504.17,162.66C504.17,155.252 492.623,152.988 484.986,150.579C479.725,148.921 465.8,145.054 465.8,128.623C465.8,112.437 480.013,104.843 495.203,104.843C508.061,104.843 514.368,107.532 519.079,109.932C519.079,109.932 516.454,119.081 516.064,120.444C515.604,122.064 514.275,122.807 512.609,122.267Z" style="fill:rgb(64,64,65);fill-rule:nonzero;"/>
                            <path d="M300.245,107.523C300.245,105.772 298.749,104.77 297.322,104.933C291.013,105.656 286.512,108.625 283.6,111.389C277.882,106.909 269.945,104.77 261.037,104.77C243.177,104.77 229.223,113.39 229.223,132.186C229.223,142.976 233.816,150.411 241.11,154.788C235.693,157.352 232.085,162.793 232.085,168.142C232.085,177.09 239.154,179.892 239.154,179.892C239.154,179.892 226.794,185.891 226.794,197.893C226.794,213.257 240.933,219.469 258.21,219.469C283.114,219.469 300.248,209.183 300.248,190.296C300.248,178.672 291.353,172.255 271.969,171.492C260.466,171.038 253.015,170.624 251.169,170.013C248.73,169.203 247.531,167.25 247.531,165.094C247.531,162.714 249.486,160.448 252.568,158.892C255.256,159.368 258.093,159.603 261.039,159.603C278.914,159.603 292.854,151.008 292.854,132.187C292.854,127.623 292.03,123.661 290.532,120.276C293.158,118.875 296.389,117.889 300.247,117.889C300.245,117.889 300.245,109.12 300.245,107.523ZM251.026,184.25C251.026,184.25 260.405,184.605 269.777,185.039C280.306,185.526 283.587,187.795 283.587,193.247C283.587,199.908 274.437,206.387 261.65,206.387C249.512,206.387 243.449,202.164 243.449,195.133C243.449,191.099 245.579,186.586 251.026,184.25ZM261.071,146.483C252.61,146.483 246.009,141.989 246.009,132.186C246.009,122.382 252.616,117.888 261.071,117.888C269.527,117.888 276.133,122.37 276.133,132.186C276.133,142.002 269.535,146.483 261.071,146.483Z" style="fill:rgb(64,64,65);fill-rule:nonzero;"/>
                        </g>
                    </g>
                </g>
            </g>
        </g>
        <g transform="matrix(1,0,0,1,-26,112.467)">
            <text x="841.68px" y="778.418px" style="font-family:'OpenSans-Regular', 'Open Sans', sans-serif;font-size:144px;">+</text>
        </g>
        <g id="digitalocean-2.svg" transform="matrix(0.1776,0,0,0.1776,856.801,923.028)">
            <g transform="matrix(1,0,0,1,-1250,-211)">
                <path d="M209.98,421.828L209.98,339.792C296.956,339.792 364.047,254.039 330.514,163.295C318.169,129.218 291.288,102.337 257.211,89.992C242.629,84.509 227.178,81.7 211.6,81.7C140.797,81.7 82.429,139.725 82.011,210.526L0,210.526C0,73.799 132.959,-34.334 278.318,10.426C341.664,30.324 391.392,80.06 411.277,143.41C456.013,288.844 347.904,421.828 209.98,421.828Z" style="fill:rgb(0,128,255);fill-rule:nonzero;"/>
                <path d="M211.228,339.792L129.217,339.792L129.217,259.004L211.228,259.004M129.217,403.191L67.091,403.191L67.091,339.792L129.217,339.792L129.217,403.191M67.091,339.792L14.97,339.792L14.97,287.597L67.091,287.597M749.251,122.277C725.649,106.11 694.586,97.327 659.78,97.327L584.007,97.327L584.007,339.693L659.805,339.693C694.602,339.693 724.426,330.993 749.276,313.595C762.848,303.721 773.567,290.428 780.339,275.072C787.824,258.904 791.517,239.019 791.517,217.886C791.517,196.753 787.799,176.868 780.339,161.948C772.854,143.41 762.924,130.985 749.251,122.277ZM628.743,138.445L652.345,138.445C678.443,138.445 700.798,143.435 718.189,154.613C736.826,165.79 745.634,187.048 745.634,218.011C745.634,248.974 735.654,271.454 718.189,283.879C702.046,293.859 680.913,300.047 653.568,300.047L628.743,300.047L628.743,138.445M844.935,93.71C837.959,93.523 831.207,96.235 826.297,101.195C820.557,105.63 817.309,112.583 817.59,119.832C817.59,134.149 829.371,145.93 843.688,145.93C858.004,145.93 869.785,134.149 869.785,119.832C869.969,112.856 867.258,106.106 862.3,101.195C858.583,96.205 852.32,93.71 844.835,93.71M822.38,168.285L865.868,168.285L865.868,338.57L822.555,338.57L822.555,168.285M1021.36,183.255C1008.88,172.078 993.912,164.618 977.869,164.618C955.726,164.13 934.418,173.232 919.461,189.568C903.947,206.001 895.47,227.875 895.858,250.471C895.858,274.099 903.343,295.207 918.313,311.374C933.283,327.542 953.094,335.002 976.722,335.002C991.923,335.24 1006.78,330.43 1018.96,321.329L1018.96,325.047C1018.96,338.72 1015.25,349.997 1007.78,357.482C1000.32,364.967 990.319,368.66 976.722,368.66C956.761,368.66 944.411,361.175 929.516,340.067L899.576,368.66L900.823,369.907C907.036,378.615 916.966,387.372 929.391,396.005C941.816,404.638 957.959,408.48 976.597,408.48C1002.7,408.48 1022.58,400.995 1037.47,384.852C1052.37,368.71 1061.08,348.799 1061.08,322.702L1061.08,168.285L1018.89,168.285L1018.89,183.255L1021.38,183.255M1010.21,283.929C1002.72,292.637 992.74,296.404 980.264,296.404C967.789,296.404 957.809,292.687 950.324,283.929C942.839,275.172 939.147,263.969 939.147,250.371C939.147,236.773 943.114,225.446 950.599,216.739C958.084,208.031 968.064,204.263 980.539,204.263C993.014,204.263 1002.99,207.981 1010.48,216.739C1017.96,225.496 1021.66,236.699 1021.66,250.296C1021.66,263.894 1017.94,275.247 1010.48,283.854M1101.17,168.26L1144.66,168.26L1144.66,338.545L1100.9,338.545L1100.9,168.285M1122.03,93.71C1121.82,93.704 1121.61,93.702 1121.4,93.702C1107.42,93.702 1095.92,105.201 1095.92,119.176C1095.92,119.386 1095.93,119.597 1095.93,119.807C1095.93,134.124 1107.71,145.905 1122.03,145.905C1136.35,145.905 1148.13,134.124 1148.13,119.807C1148.13,119.597 1148.14,119.386 1148.14,119.175C1148.14,105.201 1136.64,93.701 1122.66,93.701C1122.44,93.701 1122.23,93.704 1122.01,93.71M1237.53,122.277L1195.33,122.277L1195.33,168.285L1170.38,168.285L1170.38,206.808L1195.33,206.808L1195.33,277.667C1195.33,300.122 1200.32,316.19 1209.01,324.897C1217.69,333.605 1233.96,338.57 1254.99,338.57C1262.06,338.775 1269.13,338.357 1276.12,337.322L1278.62,337.322L1278.62,298.774L1263.65,300.022C1253.67,300.022 1246.18,298.774 1243.69,295.032C1239.97,291.314 1238.7,283.854 1238.7,272.577L1238.7,208.056L1278.47,208.056L1278.47,169.508L1238.82,169.508L1237.53,122.277M1478.57,97.327L1522.06,97.327L1522.06,339.693L1478.62,339.693L1478.62,97.477M1955.76,278.939C1949.41,286.288 1942.33,292.975 1934.63,298.899C1927.86,303.002 1920.09,305.153 1912.18,305.112C1900.4,305.009 1889.18,300.007 1881.24,291.314C1872.53,281.334 1868.76,270.182 1868.76,255.261C1868.76,240.341 1872.48,229.164 1881.24,219.209C1888.88,210.056 1900.39,204.991 1912.3,205.536C1925.97,205.536 1940.87,214.244 1953.29,229.164L1981.86,201.719C1963.22,178.091 1939.62,166.913 1911.03,166.913C1887.42,166.913 1867.54,175.621 1850.15,193.011C1833.88,210.07 1824.92,232.838 1825.2,256.409C1825.2,281.359 1833.91,303.64 1850.15,319.807C1865.77,336.796 1887.95,346.303 1911.03,345.905C1942.09,345.905 1966.94,332.233 1984.33,307.382L1955.76,278.789M2130.96,193.036C2124.42,184.423 2115.85,177.564 2106.01,173.076C2094.74,167.853 2082.41,165.292 2069.99,165.591C2046.38,165.591 2026.5,174.298 2011.58,191.689C1997.46,209.761 1989.99,232.158 1990.44,255.087C1990.44,281.185 1997.93,302.317 2014.05,318.485C2030.16,334.653 2050.07,343.435 2076.17,343.435C2104.74,343.435 2128.37,332.257 2147.01,308.63L2148.25,307.382L2119.69,279.937C2117.19,283.655 2113.47,286.15 2109.71,289.917C2106.18,293.633 2101.93,296.596 2097.23,298.625C2090.77,302.165 2083.46,303.89 2076.1,303.615C2065.28,303.771 2054.72,300.252 2046.16,293.635C2038.67,287.422 2034.98,278.665 2033.68,267.537L2148,267.537L2148,251.369C2148.28,240.347 2146.59,229.363 2143.01,218.934C2141.2,209.298 2136.9,200.302 2130.54,192.836M2037.77,232.906C2039.68,225.384 2043.53,218.497 2048.95,212.946C2054.89,207.031 2063.04,203.87 2071.41,204.239C2081.39,204.239 2090.05,206.734 2095.01,212.946C2100,217.936 2102.49,225.421 2103.72,232.906L2037.77,232.906M2296.23,181.933C2283.76,170.755 2265.17,165.765 2242.81,165.765C2229.14,166.153 2215.67,169.116 2203.09,174.498C2191.92,180.711 2180.64,189.468 2174.53,201.943L2201.97,228.041C2213.15,209.403 2225.57,203.091 2242.96,203.091C2251.09,202.875 2259.05,205.526 2265.42,210.576C2271.16,215.012 2274.41,221.965 2274.13,229.214L2274.13,237.921C2264.12,234.545 2253.62,232.859 2243.06,232.931C2221.94,232.931 2204.54,237.921 2190.87,247.901C2177.2,257.881 2170.91,272.851 2170.91,290.167C2170.91,306.334 2175.9,318.759 2187.05,328.69C2198.2,338.62 2212,342.362 2228.04,342.362C2244.09,342.362 2259.11,336.15 2274.03,324.897L2274.03,338.57L2316.27,338.57L2316.27,229.189C2316.27,209.229 2310.05,193.136 2296.31,181.958M2220.51,273.924C2225.5,270.207 2231.69,268.934 2240.47,268.934C2251.5,269.306 2262.4,271.402 2272.78,275.147L2272.78,291.314C2262.5,300.361 2249.2,305.24 2235.5,304.987C2228.02,304.987 2221.83,303.74 2218.04,299.997C2214.25,296.254 2211.83,292.512 2211.83,287.522C2212.71,281.959 2215.87,277.006 2220.53,273.849M2481.36,184.428C2468.89,170.755 2452.79,164.468 2431.66,164.468C2414.26,164.468 2400.6,169.458 2390.67,179.438L2390.67,169.458L2348.4,169.458L2348.4,339.743L2391.89,339.743L2391.89,245.331C2391.89,232.856 2394.39,221.704 2400.6,214.268C2406.76,206.919 2415.97,202.794 2425.55,203.091C2434.19,202.67 2442.53,206.378 2448,213.071C2453.84,221.014 2456.9,230.662 2456.71,240.516L2456.71,339.942L2500,339.942L2500,240.366C2498.75,216.747 2492.54,198.101 2481.36,184.428M1425.2,181.933C1412.73,170.755 1394.14,165.765 1371.78,165.765C1358.1,166.139 1344.6,169.093 1332.01,174.473C1320.83,180.686 1309.56,189.443 1303.44,201.918L1330.89,228.016C1342.07,209.378 1354.49,203.066 1371.88,203.066C1380.01,202.85 1387.96,205.501 1394.34,210.551C1400.08,214.987 1403.33,221.94 1403.04,229.189L1403.04,237.896C1393.04,234.52 1382.54,232.834 1371.98,232.906C1350.86,232.906 1333.46,237.896 1319.79,247.876C1306.11,257.856 1299.83,272.826 1299.83,290.142C1299.83,306.309 1304.82,318.735 1315.97,328.665C1327.12,338.595 1340.92,342.337 1356.96,342.337C1373,342.337 1388.02,336.125 1402.94,324.872L1402.94,338.545L1445.18,338.545L1445.18,229.189C1445.18,209.229 1437.7,193.136 1425.23,181.958M1348.18,273.924C1353.17,270.207 1359.36,268.934 1368.14,268.934C1379.17,269.306 1390.07,271.402 1400.45,275.147L1400.45,291.314C1390.17,300.361 1376.87,305.24 1363.17,304.987C1355.69,304.987 1349.5,303.74 1345.71,299.997C1341.92,296.254 1339.5,292.512 1339.5,287.522C1341.35,282.377 1344.33,277.708 1348.2,273.849M1677.55,343.46C1677.53,343.46 1677.51,343.46 1677.5,343.46C1609.31,343.46 1553.19,287.348 1553.19,219.159C1553.19,150.969 1609.31,94.857 1677.5,94.857C1745.68,94.857 1801.8,150.969 1801.8,219.159C1801.55,287.237 1745.62,343.188 1677.55,343.46M1677.55,137.148C1677.5,137.148 1677.46,137.148 1677.42,137.148C1633.1,137.148 1596.63,173.617 1596.63,217.936C1596.63,262.255 1633.1,298.724 1677.42,298.724C1721.72,298.724 1758.18,262.286 1758.21,217.986C1758.21,217.928 1758.21,217.87 1758.21,217.811C1758.21,173.588 1721.82,137.197 1677.6,137.197C1677.55,137.197 1677.5,137.198 1677.44,137.198" style="fill:rgb(0,128,255);fill-rule:nonzero;"/>
            </g>
        </g>
    </g>
</svg>
