<?xml version="1.0" encoding="UTF-8" standalone="no"?>
<!DOCTYPE svg PUBLIC "-//W3C//DTD SVG 1.1//EN" "http://www.w3.org/Graphics/SVG/1.1/DTD/svg11.dtd">
<svg width="100%" height="100%" viewBox="0 0 294 247" version="1.1" xmlns="http://www.w3.org/2000/svg" xmlns:xlink="http://www.w3.org/1999/xlink" xml:space="preserve" xmlns:serif="http://www.serif.com/" style="fill-rule:evenodd;clip-rule:evenodd;stroke-linejoin:round;">
    <g transform="matrix(1,0,0,1,-385,-86)">
        <g transform="matrix(1.68402,0,0,1.68402,461.231,245.352)">
            <path d="M0,-17.997C-1.161,-20.642 -5.008,-21.199 -7.269,-19.903C-11.485,-17.485 -12.035,-12.104 -17.33,-10.99C-22.334,-9.937 -26.22,-13.87 -30.625,-15.421C-33.104,-16.293 -35.246,-14.047 -35.411,-11.774C-36.153,-1.576 -22.768,3.202 -14.567,1.526C-6.361,-0.15 3.968,-8.96 0,-17.997" style="fill:rgb(224,223,230);fill-rule:nonzero;"/>
        </g>
        <g transform="matrix(1.68402,0,0,1.68402,645.932,243.453)">
            <path d="M0,-0.002C0,-0.002 0.001,-0.001 0.001,0C0.001,-0.001 0,-0.002 0,-0.002" style="fill:rgb(224,223,230);fill-rule:nonzero;"/>
        </g>
        <g transform="matrix(1.68402,0,0,1.68402,646.016,243.453)">
            <path d="M0,0.148C-0.016,0.086 -0.033,0.034 -0.049,0C-0.036,0.036 -0.035,0.068 -0.025,0.103C-0.019,0.115 -0.008,0.133 0,0.148" style="fill:rgb(224,223,230);fill-rule:nonzero;"/>
        </g>
        <g transform="matrix(1.68402,0,0,1.68402,645.927,243.449)">
            <path d="M0,-0.006C0.001,-0.004 0.002,-0.002 0.003,0C0.002,-0.002 0.001,-0.004 0,-0.006" style="fill:rgb(224,223,230);fill-rule:nonzero;"/>
        </g>
        <g transform="matrix(1.68402,0,0,1.68402,666.818,249.813)">
            <path d="M0,-21.977C-0.566,-26.08 -6.043,-26.516 -8.565,-24.239C-11.768,-21.349 -12.477,-17.243 -17.319,-16.281C-21.248,-15.5 -24.835,-17.86 -28.639,-18.272C-31.057,-18.535 -32.453,-15.828 -32.027,-13.823C-30.835,-8.199 -25.011,-5.536 -19.406,-5.101C-19.633,-4.679 -19.823,-4.214 -19.984,-3.718C-20.513,-2.093 -20.343,0.469 -19.356,1.843C-18.07,3.635 -16.017,4.539 -13.881,3.638C-11.875,2.791 -10.782,0.6 -11.342,-1.536C-11.538,-2.284 -11.9,-2.863 -12.281,-3.502C-12.312,-3.552 -12.332,-3.591 -12.353,-3.628C-12.34,-3.576 -12.328,-3.517 -12.324,-3.449C-12.329,-3.519 -12.354,-3.597 -12.378,-3.674C-12.465,-3.844 -12.444,-3.863 -12.405,-3.785C-12.534,-4.124 -12.784,-4.492 -12.929,-4.768C-12.938,-4.785 -12.958,-4.827 -12.981,-4.874C-13.036,-5.005 -13.135,-5.232 -13.278,-5.563C-6.034,-7.379 1.07,-14.223 0,-21.977" style="fill:rgb(224,223,230);fill-rule:nonzero;"/>
        </g>
        <g transform="matrix(1.68402,0,0,1.68402,646.281,300.967)">
            <path d="M0,-15.165C-1.019,-16.374 -3.162,-15.973 -3.878,-14.665C-4.826,-12.934 -5.003,-11.175 -5.243,-9.253C-5.483,-7.331 -5.812,-5.342 -5.636,-3.407C-5.411,-0.924 -3.676,1.209 -1.02,1.209C1.488,1.209 3.592,-0.904 3.597,-3.407C3.604,-7.157 2.453,-12.252 0,-15.165" style="fill:rgb(224,223,230);fill-rule:nonzero;"/>
        </g>
        <g transform="matrix(1.68402,0,0,1.68402,502.894,310.72)">
            <path d="M0,-14.613C-1.786,-15.109 -3.513,-14.825 -4.998,-13.737C-6.304,-12.78 -6.533,-12.456 -7.27,-12.033C-11.704,-9.486 -16.884,-8.194 -21.981,-8.206C-26.542,-8.217 -30.828,-9.318 -35.06,-10.952C-37.854,-12.03 -41.458,-14.483 -44.55,-14.058C-44.765,-14.757 -45.109,-15.425 -45.598,-16.05C-46.147,-16.753 -47.382,-16.798 -48.097,-16.372C-49.615,-15.467 -50.48,-13.913 -50.769,-12.203C-51.036,-10.614 -51.09,-8.352 -50.098,-7.011C-49.428,-6.106 -48.224,-5.562 -47.158,-6.24C-46.104,-6.91 -45.398,-8.057 -44.933,-9.263C-43.817,-7.414 -41.948,-5.799 -40.467,-4.619C-36.552,-1.501 -31.44,0.508 -26.525,1.319C-21.27,2.185 -15.967,2.001 -10.784,0.756C-8.194,0.134 -5.68,-0.79 -3.279,-1.944C-2.077,-2.522 -0.74,-3.123 0.318,-3.954C0.684,-4.236 1.048,-4.518 1.413,-4.8C1.825,-5.265 2.074,-5.579 2.188,-5.77C4.793,-8.413 4.231,-13.439 0,-14.613" style="fill:rgb(224,223,230);fill-rule:nonzero;"/>
        </g>
        <g transform="matrix(1.68402,0,0,1.68402,641.008,300.698)">
            <path d="M0,-9.616C-0.047,-10.62 -0.865,-11.666 -1.969,-11.585C-7.791,-11.158 -11.386,-5.494 -17.568,-5.027C-23.645,-4.568 -28.34,-5.45 -33.363,-7.898C-33.725,-9.912 -34.22,-11.875 -34.874,-13.695C-35.723,-16.055 -38.916,-23.529 -42.668,-20.565C-42.846,-20.425 -43.003,-20.273 -43.145,-20.111C-43.374,-20.339 -43.613,-20.559 -43.872,-20.761C-44.525,-21.268 -45.409,-21.27 -45.885,-20.501C-47.871,-17.292 -47.473,-13.187 -47.628,-9.529C-47.838,-4.552 -48.451,0.263 -49.238,5.177C-50.205,11.213 -41.393,13.913 -39.778,8.62C-37.355,9.71 -34.088,8.989 -33.408,5.793C-33.198,4.808 -33.056,3.785 -32.944,2.749C-27.622,4.441 -22.065,4.784 -16.085,4.091C-9.461,3.322 0.376,-1.67 0,-9.616" style="fill:rgb(224,223,230);fill-rule:nonzero;"/>
        </g>
        <g transform="matrix(1.68402,0,0,1.68402,579.334,243.672)">
            <path d="M0,-38.862C-2.353,-44.284 -6.921,-50.611 -13.539,-50.121C-14.499,-50.05 -15.356,-48.98 -14.727,-48.052C-13.753,-46.619 -12.726,-45.255 -11.729,-43.877C-17.864,-43.158 -23.936,-42.76 -30.096,-42.297C-35.199,-41.914 -38.999,-38.41 -43.042,-35.537C-45.758,-33.607 -44.155,-29.395 -40.756,-30.115C-38.479,-30.598 -36.331,-31.472 -34.32,-32.648C-31.341,-34.388 -30.076,-34.542 -26.604,-34.514C-20.942,-34.468 -15.273,-34.778 -9.675,-35.63C-8.748,-35.771 -8.055,-36.213 -7.562,-36.816C-6.689,-34.761 -5.943,-32.619 -5.349,-30.473C-4.839,-28.63 -4.291,-26.887 -4.734,-24.982C-4.772,-24.819 -4.828,-24.66 -4.876,-24.5C-6.531,-24.724 -8.347,-24.024 -9.037,-22.02C-11.571,-14.656 -17.563,-9.09 -23.612,-4.455C-24.324,-3.91 -24.173,-2.648 -23.123,-2.65C-21.743,-2.654 -20.42,-2.812 -19.146,-3.089C-19.157,-3.038 -19.176,-2.99 -19.185,-2.939C-19.282,-2.419 -19.288,-1.917 -19.227,-1.443C-19.894,-2.103 -20.732,-2.463 -21.758,-2.325C-22.853,-2.178 -24.062,-1.324 -24.272,-0.159C-24.507,1.145 -24.714,2.426 -24.752,3.75C-26.348,3.742 -27.923,3.807 -29.336,4.554C-29.78,4.788 -30.104,5.474 -29.91,5.966C-27.787,11.364 -18.616,11.749 -14.152,9.347C-11.412,7.873 -9.96,5.183 -9.805,2.123C-9.763,1.307 -9.92,0.522 -9.709,-0.251C-9.688,-0.325 -9.661,-0.383 -9.638,-0.451C-7.376,-2.46 -5.504,-5.293 -4.174,-7.368C-2.153,-10.524 -0.808,-14.155 -0.68,-17.874C-0.626,-17.914 -0.569,-17.945 -0.516,-17.987C6.228,-23.399 2.878,-32.227 0,-38.862" style="fill:rgb(224,223,230);fill-rule:nonzero;"/>
        </g>
        <g transform="matrix(1.68402,0,0,1.68402,507.283,302.767)">
            <path d="M0,-18.57C-0.2,-19.562 -1.44,-20.234 -2.383,-19.924C-8.979,-17.755 -13.87,-3.162 -7.115,1.076C-6.178,1.664 -5.101,1.357 -4.312,0.714C-1.512,-1.572 -1.731,-5.409 -1.249,-8.677C-0.771,-11.92 0.663,-15.287 0,-18.57" style="fill:rgb(224,223,230);fill-rule:nonzero;"/>
        </g>
        <g transform="matrix(1.68402,0,0,1.68402,486.235,176.019)">
            <path d="M0,-18.139C-3.004,-16.849 -7.926,-13.988 -9.201,-10.707C-9.47,-10.015 -9.323,-8.912 -9.686,-8.304C-9.09,-8.462 -9.155,-8.426 -9.88,-8.195C-10.471,-7.991 -11.061,-7.782 -11.647,-7.567C-13.765,-6.791 -15.746,-6.249 -17.358,-4.643C-18.817,-3.19 -18.032,-0.893 -16.204,-0.271C-12.588,0.959 -5.264,-0.513 -3.054,-3.909C-2.46,-4.823 -1.928,-6.112 -2.171,-7.252C-2.454,-8.58 -2.625,-7.683 -2.042,-8.548C-1.409,-9.487 0.016,-10.159 0.884,-10.929C2.049,-11.961 2.954,-13.008 3.891,-14.248C5.83,-16.818 2.233,-19.098 0,-18.139" style="fill:rgb(224,223,230);fill-rule:nonzero;"/>
        </g>
        <g transform="matrix(1.68402,0,0,1.68402,612.704,172.382)">
            <path d="M0,-3.505C-1.189,-6.85 -4.695,-6.587 -5.819,-3.739C-5.821,-3.74 -5.824,-3.741 -5.826,-3.742C-6.425,-4.227 -8.051,-4.456 -8.806,-4.655C-10.56,-5.116 -12.366,-5.449 -14.168,-5.134C-14.921,-5.003 -15.307,-3.956 -14.896,-3.344C-13.136,-0.716 -9.239,1.659 -6.169,2.451C-2.702,3.345 1.357,0.31 0,-3.505" style="fill:rgb(224,223,230);fill-rule:nonzero;"/>
        </g>
        <g transform="matrix(1.68402,0,0,1.68402,592.153,155.513)">
            <path d="M0,-0.397C-0.192,-1.115 -0.526,-1.716 -0.955,-2.303C-1.453,-2.983 -1.886,-3.688 -2.677,-4.068C-3.6,-4.512 -4.81,-4.513 -5.555,-3.697C-6.148,-3.046 -6.401,-2.382 -6.608,-1.564C-6.779,-0.89 -6.966,-0.159 -6.88,0.534C-6.758,1.51 -6.524,2.28 -5.854,3.011C-5.106,3.824 -3.968,4.116 -2.911,3.974C-0.84,3.695 0.551,1.654 0,-0.397" style="fill:rgb(224,223,230);fill-rule:nonzero;"/>
        </g>
        <g transform="matrix(1.68402,0,0,1.68402,561.481,173.769)">
            <path d="M0,-5.991C-3.725,-7.998 -8.727,-6.018 -12.753,-5.479C-16.714,-4.948 -21.685,-4.983 -24.954,-2.518C-25.716,-1.944 -25.879,-0.794 -24.954,-0.251C-21.106,2.007 -15.41,1.416 -11.1,1.18C-6.787,0.946 -1.791,1.247 0.919,-2.485C1.714,-3.58 1.128,-5.383 0,-5.991" style="fill:rgb(224,223,230);fill-rule:nonzero;"/>
        </g>
        <g transform="matrix(1.68402,0,0,1.68402,426.541,278.042)">
            <path d="M0,-7.652C-1.233,-7.902 -2.229,-7.832 -3.368,-7.286C-4.066,-6.952 -4.654,-6.459 -5.217,-5.93C-6.308,-4.906 -7.092,-3.875 -7.491,-2.41C-7.933,-0.791 -6.483,0.25 -5.031,0.051C-4.49,-0.024 -3.773,-0.138 -3.17,-0.382C-3.433,-0.276 -2.853,-0.503 -2.795,-0.524C-2.544,-0.615 -2.292,-0.701 -2.037,-0.779C-1.396,-0.975 -0.782,-1.209 -0.174,-1.494C0.71,-1.908 1.217,-2.549 1.755,-3.337C2.783,-4.839 1.78,-7.291 0,-7.652" style="fill:rgb(224,223,230);fill-rule:nonzero;"/>
        </g>
        <g transform="matrix(1.68402,0,0,1.68402,648.106,272.445)">
            <path d="M0,-5.854C-1.736,-8.101 -4.895,-7.471 -6.659,-5.635C-7.196,-5.075 -7.655,-4.291 -8.047,-3.612C-8.26,-3.243 -8.449,-2.869 -8.578,-2.456C-8.627,-2.34 -8.659,-2.219 -8.677,-2.094C-8.527,-2.33 -8.539,-2.295 -8.712,-1.991C-9.735,-0.08 -8.046,2.247 -5.889,1.682C-5.822,1.664 -5.783,1.652 -5.744,1.64C-5.721,1.648 -5.678,1.655 -5.578,1.657C-5.124,1.667 -4.61,1.546 -4.18,1.418C-3.424,1.193 -2.563,0.929 -1.88,0.559C0.363,-0.657 1.707,-3.644 0,-5.854" style="fill:rgb(224,223,230);fill-rule:nonzero;"/>
        </g>
        <g transform="matrix(1.68402,0,0,1.68402,542.927,152.363)">
            <path d="M0,52.264C8.522,50.931 15.411,36.579 15.411,34.448C15.411,31.951 14.077,32 15.732,32C15.896,32 16.057,32.005 16.219,32.005C18.915,32.005 19.807,29.064 19.807,28.048C19.807,23.591 16.355,22.466 16.355,22.466C15.927,11.535 8.008,-0.185 -3.401,-0.185C-13.367,-0.185 -23.779,5.584 -23.779,20.639C-23.779,25.366 -23.494,24.663 -24.253,24.663C-26.194,24.663 -27.24,26.666 -27.24,28.533C-27.24,32.717 -22.598,31.395 -21.509,33.668C-17.522,41.987 -12.182,52.449 -2.314,52.449C-1.569,52.449 -0.799,52.389 0,52.264Z" style="fill:none;fill-rule:nonzero;stroke:rgb(82,93,125);stroke-width:1.78px;"/>
        </g>
        <g transform="matrix(1.68402,0,0,1.68402,503.833,169.795)">
            <path d="M0,14.555C2.224,12.778 7.642,7.158 7.867,3.061C9.702,3.12 11.53,3.168 13.358,3.168C21.722,3.168 27.015,2.08 35.104,0" style="fill:none;fill-rule:nonzero;stroke:rgb(82,93,125);stroke-width:1.78px;stroke-linecap:round;"/>
        </g>
        <g transform="matrix(1.68402,0,0,1.68402,521.657,197.585)">
            <path d="M0,1.12C0.741,0.317 1.709,0 2.718,0C3.628,0 4.571,0.259 5.409,0.65" style="fill:none;fill-rule:nonzero;stroke:rgb(82,93,125);stroke-width:1.78px;stroke-linecap:round;"/>
        </g>
        <g transform="matrix(1.68402,0,0,1.68402,545.113,196.911)">
            <path d="M0,0.932C0.6,0.232 1.326,0 2.1,0C3.146,0 4.277,0.426 5.292,0.697" style="fill:none;fill-rule:nonzero;stroke:rgb(82,93,125);stroke-width:1.78px;stroke-linecap:round;"/>
        </g>
        <g transform="matrix(1.68402,0,0,1.68402,573.97,244.283)">
            <path d="M0,28.185C4.944,23.96 10.233,20.092 15.613,16.389C9.515,9.766 1.165,1.425 -13.757,0" style="fill:none;fill-rule:nonzero;stroke:rgb(82,93,125);stroke-width:1.78px;stroke-linecap:round;"/>
        </g>
        <g transform="matrix(1.68402,0,0,1.68402,528.07,294.891)">
            <path d="M0,-29.666C-12.794,-27.944 -25.154,-22.444 -31.774,-12.412C-26.054,-8.551 -20.604,-4.132 -14.968,0" style="fill:none;fill-rule:nonzero;stroke:rgb(82,93,125);stroke-width:1.78px;stroke-linecap:round;"/>
        </g>
        <g transform="matrix(1.68402,0,0,1.68402,507.245,315.409)">
            <path d="M0,-27.909C-1.398,-20.742 -2.91,-13.514 -2.91,-6.125C-2.91,-4.76 -2.719,-0.953 -1.766,0" style="fill:none;fill-rule:nonzero;stroke:rgb(82,93,125);stroke-width:1.78px;stroke-linecap:round;"/>
        </g>
        <g transform="matrix(1.68402,0,0,1.68402,565.632,316.756)">
            <path d="M0,-30.327C4.115,-23.085 5.433,-14.998 5.433,-6.853C5.433,-3.56 5.217,-3.261 4.884,0" style="fill:none;fill-rule:nonzero;stroke:rgb(82,93,125);stroke-width:1.78px;stroke-linecap:round;"/>
        </g>
        <g transform="matrix(1.68402,0,0,1.68402,527.561,253.371)">
            <path d="M0,-9.418C0.158,-7.458 0.274,-5.502 0.391,-3.543C0.561,-0.668 3.642,0.262 6.787,0.262C9.495,0.262 13.867,-0.233 13.867,-3.384C13.867,-3.57 13.84,-3.75 13.836,-3.9C13.789,-5.827 13.749,-7.75 13.722,-9.68" style="fill:none;fill-rule:nonzero;stroke:rgb(82,93,125);stroke-width:1.78px;stroke-linecap:round;"/>
        </g>
        <g transform="matrix(1.68402,0,0,1.68402,421.897,280.799)">
            <path d="M0,-13.3C-0.089,-13.476 -0.227,-13.527 -0.36,-13.527C-1.361,-13.527 -5.305,-11.477 -5.305,-5.763C-5.305,-1.404 -3.327,0.227 -1.809,0.227C0.299,0.227 4.098,-3.584 4.098,-8.191C4.098,-11.595 2.048,-13.346 0.784,-13.346C0.518,-13.346 0.218,-13.3 0,-13.3Z" style="fill:none;fill-rule:nonzero;stroke:rgb(82,93,125);stroke-width:1.78px;"/>
        </g>
        <g transform="matrix(1.68402,0,0,1.68402,422.171,304.436)">
            <path d="M0,-13.231C11.535,-1.985 19.082,0 26.126,0C35.268,0 42.809,-6.685 42.809,-8.531" style="fill:none;fill-rule:nonzero;stroke:rgb(82,93,125);stroke-width:1.78px;stroke-linecap:round;"/>
        </g>
        <g transform="matrix(1.68402,0,0,1.68402,430.734,286.63)">
            <path d="M0,-11.514C5.05,-9.62 0.501,0 17.166,0C21.614,0 25.5,-2.103 29.114,-4.313" style="fill:none;fill-rule:nonzero;stroke:rgb(82,93,125);stroke-width:1.78px;stroke-linecap:round;"/>
        </g>
        <g transform="matrix(1.68402,0,0,1.68402,579.88,288.633)">
            <path d="M0,-0.075C4.506,4.525 10.975,7.216 17.327,7.216C26.002,7.216 33.775,2.18 36.246,-7.291" style="fill:none;fill-rule:nonzero;stroke:rgb(82,93,125);stroke-width:1.78px;stroke-linecap:round;"/>
        </g>
        <g transform="matrix(1.68402,0,0,1.68402,637.882,275.553)">
            <path d="M0,-12.809C-0.34,-12.951 -0.672,-13.015 -0.992,-13.015C-3.605,-13.015 -4.498,-9.619 -4.498,-6.994C-4.498,-3.265 -3.716,0.206 -0.012,0.206C3.563,0.206 5.469,-3.091 5.469,-6.638C5.469,-10.852 2.019,-12.864 0.236,-12.864C0.157,-12.864 0.078,-12.849 0,-12.809Z" style="fill:none;fill-rule:nonzero;stroke:rgb(82,93,125);stroke-width:1.78px;"/>
        </g>
        <g transform="matrix(1.68402,0,0,1.68402,629.044,282.27)">
            <path d="M0,-8.925C-2.337,-6.589 0.184,0 -8.355,0C-11.552,0 -17.939,-1.383 -20.106,-3.55" style="fill:none;fill-rule:nonzero;stroke:rgb(82,93,125);stroke-width:1.78px;stroke-linecap:round;"/>
        </g>
        <g transform="matrix(1.68402,0,0,1.68402,423.88,238.168)">
            <path d="M0,-32.034C-7.365,-31.121 -13.196,-25.325 -13.492,-17.115C-13.842,-7.41 -6.059,0.489 3.048,0.405C12.038,0.323 18.944,-6.918 19.023,-15.592C19.11,-24.957 11.979,-32.523 1.503,-32.155C1.001,-32.135 0.5,-32.096 0,-32.034Z" style="fill:none;fill-rule:nonzero;stroke:rgb(82,93,125);stroke-width:1.78px;"/>
        </g>
        <g transform="matrix(1.68402,0,0,1.68402,414.715,218.522)">
            <path d="M0,-5.349C2.457,-3.302 4.617,-1.047 7.069,0.975C9.15,-1.691 11.413,-4.098 14.01,-6.324" style="fill:none;fill-rule:nonzero;stroke:rgb(82,93,125);stroke-width:1.78px;stroke-linecap:round;"/>
        </g>
        <g transform="matrix(-0.13656,1.67847,1.67847,0.13656,430.496,248.93)">
            <path d="M-5.313,-4.898C-2.017,-4.959 1.233,-5.001 4.516,-4.898" style="fill:none;fill-rule:nonzero;stroke:rgb(82,93,125);stroke-width:1.78px;stroke-linecap:round;"/>
        </g>
        <g transform="matrix(-0.117874,1.67989,1.67989,0.117874,425.29,292.233)">
            <path d="M-5.014,-4.675C-1.883,-4.784 1.226,-4.565 4.358,-4.675" style="fill:none;fill-rule:nonzero;stroke:rgb(82,93,125);stroke-width:1.78px;stroke-linecap:round;"/>
        </g>
        <g transform="matrix(1.68402,0,0,1.68402,633.279,232.853)">
            <path d="M0,-31.616C-0.214,-31.613 -0.428,-31.605 -0.641,-31.592C-8.268,-31.136 -14.658,-24.917 -14.858,-16.591C-15.094,-7.011 -7.825,0.12 1.222,0.12C10.568,0.121 17.268,-7.444 17.315,-15.588C17.325,-17.41 17.028,-19.414 16.349,-21.165C13.755,-27.848 7.039,-31.737 0,-31.616Z" style="fill:none;fill-rule:nonzero;stroke:rgb(82,93,125);stroke-width:1.78px;"/>
        </g>
        <g transform="matrix(1.21124,-1.16996,-1.16996,-1.21124,633.489,219.32)">
            <path d="M-1.89,4.677C2.63,4.871 7.043,4.946 11.573,4.677" style="fill:none;fill-rule:nonzero;stroke:rgb(82,93,125);stroke-width:1.78px;stroke-linecap:round;"/>
        </g>
        <g transform="matrix(1.33623,1.02489,1.02489,-1.33623,630.258,195.896)">
            <path d="M-1.357,-3.998C3.043,-4.344 7.351,-3.882 11.782,-3.998" style="fill:none;fill-rule:nonzero;stroke:rgb(82,93,125);stroke-width:1.78px;stroke-linecap:round;"/>
        </g>
        <g transform="matrix(1.68402,0,0,1.68402,634.566,251.497)">
            <path d="M0,-10.333C-0.023,-9.829 -0.033,-9.324 -0.033,-8.82C-0.033,-6.384 0.198,-3.949 0.198,-1.513C0.198,-1.009 0.188,-0.504 0.164,0" style="fill:none;fill-rule:nonzero;stroke:rgb(82,93,125);stroke-width:1.78px;stroke-linecap:round;"/>
        </g>
        <g transform="matrix(0.0804449,1.6821,1.6821,-0.0804449,651.031,287.613)">
            <path d="M-6.528,-6.848C-1.918,-6.577 2.589,-6.792 7.183,-6.848" style="fill:none;fill-rule:nonzero;stroke:rgb(82,93,125);stroke-width:1.78px;stroke-linecap:round;"/>
        </g>
        <g transform="matrix(1.68402,0,0,1.68402,516.355,109.472)">
            <path d="M0,0.199C0,-0.155 -0.003,-0.511 -0.003,-0.865C-0.003,-4.212 0.534,-6.911 4.913,-6.911C8.824,-6.911 12.266,-3.905 12.266,-2.904C12.266,-2.511 12.471,-2.014 12.471,-1.579C12.471,2.347 5.635,1.338 5.635,5.553C5.635,6.074 5.721,6.609 5.846,7.11" style="fill:none;fill-rule:nonzero;stroke:rgb(82,93,125);stroke-width:1.78px;stroke-linecap:round;"/>
        </g>
        <g transform="matrix(1.68402,0,0,1.68402,527.403,131.186)">
            <path d="M0,-1.214C-0.051,-1.227 -0.097,-1.233 -0.14,-1.233C-0.802,-1.233 -0.932,0.019 -0.115,0.019C0.229,0.019 0.555,-0.404 0.555,-0.679C0.555,-0.749 0.536,-0.819 0.492,-0.886C0.363,-1.079 0.318,-1.134 0,-1.214Z" style="fill:none;fill-rule:nonzero;stroke:rgb(82,93,125);stroke-width:1.78px;"/>
        </g>
        <g transform="matrix(1.68402,0,0,1.68402,461.598,168.869)">
            <path d="M0,-10.04C2.106,-7.914 4.187,-5.802 6.438,-3.899C3.639,-2.666 0.884,-1.332 -1.89,0C-1.264,-3.325 -0.502,-6.65 0,-10.04Z" style="fill:none;fill-rule:nonzero;stroke:rgb(82,93,125);stroke-width:1.78px;"/>
        </g>
        <g transform="matrix(1.28321,-1.09055,-1.09055,-1.28321,477.346,163.517)">
            <path d="M-2.584,7.031C4.62,7.15 11.818,6.787 19.129,7.031" style="fill:none;fill-rule:nonzero;stroke:rgb(82,93,125);stroke-width:1.78px;stroke-linecap:round;"/>
        </g>
        <g transform="matrix(1.68402,0,0,1.68402,600.985,167.359)">
            <path d="M0,-9.734C0.754,-6.453 1.593,-3.221 2.595,0C-0.836,-0.892 -4.171,-2.187 -7.582,-3.334C-5.149,-5.614 -2.639,-7.748 0,-9.734Z" style="fill:none;fill-rule:nonzero;stroke:rgb(82,93,125);stroke-width:1.78px;"/>
        </g>
        <g transform="matrix(1.68402,0,0,1.68402,566.071,154.275)">
            <path d="M0,-16.237L0.164,-16.237L16.4,0" style="fill:none;fill-rule:nonzero;stroke:rgb(82,93,125);stroke-width:1.78px;stroke-linecap:round;"/>
        </g>
    </g>
</svg>
