<?xml version="1.0" encoding="UTF-8" standalone="no"?>
<!DOCTYPE svg PUBLIC "-//W3C//DTD SVG 1.1//EN" "http://www.w3.org/Graphics/SVG/1.1/DTD/svg11.dtd">
<svg width="100%" height="100%" viewBox="0 0 292 270" version="1.1" xmlns="http://www.w3.org/2000/svg" xmlns:xlink="http://www.w3.org/1999/xlink" xml:space="preserve" xmlns:serif="http://www.serif.com/" style="fill-rule:evenodd;clip-rule:evenodd;stroke-linejoin:round;">
    <g transform="matrix(1,0,0,1,-43,-621)">
        <g transform="matrix(1.83266,0,0,1.83266,239.883,822.914)">
            <path d="M0,-40.641C-0.359,-39.641 -0.732,-38.649 -1.118,-37.662C-1.147,-37.963 -1.2,-38.257 -1.289,-38.537C-1.73,-39.936 -3.13,-40.374 -4.391,-39.8C-5.364,-39.356 -6.234,-38.477 -7.025,-37.579C-7.131,-37.944 -7.227,-38.306 -7.298,-38.65C-5.245,-39.719 -3.026,-40.568 -0.967,-41.523C-0.462,-41.756 0.042,-41.991 0.547,-42.224C0.365,-41.697 0.189,-41.166 0,-40.641M-36.301,8.345C-36.419,8.047 -36.551,7.748 -36.69,7.448C-36.931,4.42 -38.29,1.607 -40.536,-0.733C-37.572,0.891 -35.188,2.969 -33.067,5.638C-34.322,6.285 -35.423,7.163 -36.301,8.345M29.356,-44.804C28.156,-50.162 27.054,-55.658 23.813,-60.197C23.061,-61.25 21.424,-61.405 20.666,-60.42C20.173,-62.235 18.927,-63.661 17.345,-64.265C17.696,-64.671 18.024,-65.091 18.299,-65.538C19.716,-67.847 17.815,-70.223 15.466,-70.476C9.878,-71.078 3.013,-65.668 -1.619,-62.843C-6.307,-59.984 -12.932,-56.415 -15.448,-51.338C-15.96,-50.306 -15.354,-48.898 -14.072,-48.94C-13.008,-48.975 -11.943,-49.144 -10.883,-49.411C-11.385,-49.028 -11.898,-48.656 -12.389,-48.261C-13.382,-47.773 -14.347,-47.23 -15.192,-46.586C-18.066,-48.768 -21.541,-50.336 -24.549,-52.232C-28.335,-54.619 -32.391,-58.484 -37.008,-58.8C-37.543,-58.837 -38.177,-58.266 -38.102,-57.706C-37.487,-53.112 -33.22,-49.508 -29.994,-46.483C-26.29,-43.009 -22.302,-39.801 -18.074,-36.979C-17.248,-32.065 -14.743,-26.689 -14.687,-22.562C-14.644,-19.394 -16.3,-15.966 -14.593,-12.96C-14.152,-12.185 -13.567,-11.559 -12.903,-11.051C-13.787,-11.141 -14.714,-11.34 -15.705,-11.689C-20.973,-13.541 -25.769,-16.087 -31.298,-17.174C-32.844,-17.478 -33.874,-15.763 -32.818,-14.563C-29.078,-10.309 -24.456,-6.338 -19.379,-4.047C-21.756,-3.836 -24.095,-3.583 -26.323,-2.937C-32.346,-8.048 -43.705,-13.283 -50.239,-7.065C-50.874,-6.46 -50.638,-5.504 -49.98,-5.052C-48.876,-4.293 -47.682,-3.74 -46.458,-3.245C-49.526,-2.033 -51.242,3.09 -47.465,5.541C-42.314,8.882 -46.731,14.706 -49.692,19.028C-49.725,19.071 -49.751,19.116 -49.782,19.16C-50.403,20.07 -50.955,20.913 -51.33,21.646C-51.915,22.79 -51.358,23.845 -50.247,24.308C-49.921,24.444 -49.596,24.54 -49.272,24.599C-48.775,25.221 -48.153,25.753 -47.433,26.108C-47.697,26.594 -47.942,27.094 -48.142,27.626C-48.604,28.847 -47.396,30.437 -46.093,30.315C-40.564,29.797 -31.58,24.933 -29.228,19.65C-28.686,18.434 -28.728,15.326 -27.838,14.468C-27.068,13.725 -24.817,14.059 -23.76,13.969C-20.197,13.665 -16.717,13.114 -13.348,11.875C-7.154,9.596 -1.475,5.967 2.924,1.01C6.145,-2.619 9.923,-7.479 9.857,-12.466C11.364,-13.648 12.861,-14.824 14.358,-15.937C18.176,-18.776 23.324,-21.5 26.345,-25.407C28.479,-25.117 30.857,-26.235 31.339,-28.554C32.444,-33.87 30.525,-39.585 29.356,-44.804" style="fill:rgb(224,223,230);fill-rule:nonzero;"/>
        </g>
        <g transform="matrix(1.83266,0,0,1.83266,228.215,888.171)">
            <path d="M0,-15.154C-2.26,-16.477 -4.614,-15.443 -6.419,-13.939C-7.511,-13.029 -8.24,-12.078 -9.708,-11.846C-11.253,-11.603 -12.851,-12.114 -14.414,-12.051C-16.559,-11.965 -18.283,-9.967 -17.657,-7.795C-15.027,1.323 0.08,-0.954 2.167,-9.322C2.718,-11.532 2.035,-13.965 0,-15.154" style="fill:rgb(224,223,230);fill-rule:nonzero;"/>
        </g>
        <g transform="matrix(1.83266,0,0,1.83266,125.152,810.544)">
            <path d="M0,-7.705C-0.742,-11.735 -6.584,-13.085 -9.225,-10.141C-10.126,-9.136 -10.753,-8.066 -11.424,-6.92C-11.005,-7.635 -11.33,-7.161 -11.607,-6.804C-11.757,-6.694 -12.176,-6.34 -12.312,-6.255C-12.464,-6.161 -13.214,-5.777 -13.167,-5.754C-13.518,-5.641 -13.876,-5.543 -14.225,-5.446C-15.284,-5.154 -16.347,-5.059 -17.292,-4.429C-18.774,-3.441 -19.493,-1.805 -19.073,-0.053C-17.892,4.88 -11.123,5.38 -7.262,3.831C-2.595,1.958 0.951,-2.543 0,-7.705" style="fill:rgb(224,223,230);fill-rule:nonzero;"/>
        </g>
        <g transform="matrix(1.83266,0,0,1.83266,134.159,695.933)">
            <path d="M0,-8.292C-3.432,-10.465 -6.596,-9.5 -10.458,-9.048C-14.566,-8.566 -18.68,-8.21 -22.8,-7.858C-29.894,-7.252 -38.175,-7.531 -44.776,-4.621C-46.16,-4.011 -46.09,-1.692 -44.776,-1.059C-38.069,2.173 -29.115,1.677 -21.85,1.487C-17.734,1.379 -13.616,1.166 -9.51,0.862C-5.579,0.571 -2.094,0.707 0.778,-2.255C2.546,-4.079 2.105,-6.959 0,-8.292" style="fill:rgb(224,223,230);fill-rule:nonzero;"/>
        </g>
        <g transform="matrix(1.83266,0,0,1.83266,131.091,678.514)">
            <path d="M0,-18.542C-4.323,-17.209 -7.728,-13.229 -11.185,-10.418C-14.016,-8.116 -14.339,-7.434 -17.643,-9.451L-24.499,-13.639C-27.403,-15.413 -30.625,-17.734 -33.848,-15.313C-35.53,-14.049 -36.769,-11.929 -38.155,-10.345C-39.876,-8.379 -41.612,-6.578 -42.917,-4.308C-44.086,-2.276 -42.144,0.439 -39.812,-0.269C-37.194,-1.063 -35.258,-2.339 -33.268,-4.228C-32.237,-5.206 -30.933,-7.111 -29.926,-8.348C-24.601,-5.862 -18.431,0.616 -12.784,-1.326C-9.896,-2.32 -7.582,-5.204 -5.391,-7.157C-2.594,-9.651 0.874,-11.822 2.541,-15.236C3.354,-16.902 1.998,-19.158 0,-18.542" style="fill:rgb(224,223,230);fill-rule:nonzero;"/>
        </g>
        <g transform="matrix(1.83266,0,0,1.83266,151.533,675.235)">
            <path d="M0,51.009L35.7,73.509L70.826,47.75C69.248,31.879 68.183,16.009 67.21,0.138L35.339,-22.5C23.367,-15.827 8.227,-6.681 -1.605,-0.249C-0.774,16.768 -0.353,33.993 0,51.009Z" style="fill:none;fill-rule:nonzero;stroke:rgb(82,93,125);stroke-width:1.64px;"/>
        </g>
        <g transform="matrix(1.83266,0,0,1.83266,215.803,675.177)">
            <path d="M0,73.143L-2.662,21.43C8.76,13.387 20.406,6.818 31.902,0" style="fill:none;fill-rule:nonzero;stroke:rgb(82,93,125);stroke-width:1.64px;stroke-linecap:round;"/>
        </g>
        <g transform="matrix(1.55827,0.964604,0.964604,-1.55827,165.271,660.004)">
            <path d="M-3.031,-10.657L37.461,-10.657" style="fill:none;fill-rule:nonzero;stroke:rgb(82,93,125);stroke-width:1.64px;stroke-linecap:round;"/>
        </g>
        <g transform="matrix(1.5675,-0.949522,-0.949522,-1.5675,226.795,751.208)">
            <path d="M-2.957,10.588C10.638,10.235 24.284,10.502 37.915,10.588" style="fill:none;fill-rule:nonzero;stroke:rgb(82,93,125);stroke-width:1.64px;stroke-linecap:round;"/>
        </g>
        <g transform="matrix(1.57639,0.934685,0.934685,-1.57639,163.915,683.824)">
            <path d="M-2.875,-10.486L38.247,-10.487" style="fill:none;fill-rule:nonzero;stroke:rgb(82,93,125);stroke-width:1.64px;stroke-linecap:round;"/>
        </g>
        <g transform="matrix(1.83266,0,0,1.83266,103.473,775.262)">
            <path d="M0,33.747C24.29,16.082 19.291,11.136 24.726,4.344C26.202,2.499 27.732,0.334 30.406,0" style="fill:none;fill-rule:nonzero;stroke:rgb(82,93,125);stroke-width:1.64px;stroke-linecap:round;"/>
        </g>
        <g transform="matrix(1.83266,0,0,1.83266,135.927,868.658)">
            <path d="M0,-32.919C16.301,-28.028 21.996,-17.449 21.996,-11.752C21.996,-7.09 14.983,-2.398 11.087,0" style="fill:none;fill-rule:nonzero;stroke:rgb(82,93,125);stroke-width:1.64px;stroke-linecap:round;"/>
        </g>
        <g transform="matrix(1.83266,0,0,1.83266,175.117,782.471)">
            <path d="M0,31.484C8.243,20.665 24.758,34.75 32.745,16.114C36.718,6.842 49.786,6.152 49.786,-2.788C49.786,-2.948 49.785,-3.107 49.785,-3.266" style="fill:none;fill-rule:nonzero;stroke:rgb(82,93,125);stroke-width:1.64px;stroke-linecap:round;"/>
        </g>
        <g transform="matrix(1.83266,0,0,1.83266,99.3894,806.492)">
            <path d="M0,-7.618C-1.315,-6.798 -2.034,-5.426 -2.052,-3.978C-2.078,-1.894 -0.577,0.205 1.506,0.411C4.237,0.682 6.825,-1.425 6.71,-4.233C6.604,-6.818 4.391,-8.3 1.913,-8.181C1.245,-8.149 0.578,-7.978 0,-7.618Z" style="fill:none;fill-rule:nonzero;stroke:rgb(82,93,125);stroke-width:1.64px;"/>
        </g>
        <g transform="matrix(1.83266,0,0,1.83266,102.248,721.421)">
            <path d="M0,37.398C-0.405,34.157 -0.828,30.795 -0.828,27.46C-0.828,14.087 8.651,3.828 22.053,0" style="fill:none;fill-rule:nonzero;stroke:rgb(82,93,125);stroke-width:1.64px;stroke-linecap:round;"/>
        </g>
        <g transform="matrix(1.83266,0,0,1.83266,211.408,872.336)">
            <path d="M0,-8.871C-2.325,-8.737 -3.921,-6.748 -3.939,-4.537C-3.96,-1.802 -1.676,0.062 0.913,-0.054C3.13,-0.152 4.917,-2.235 4.978,-4.21C5.023,-5.666 4.249,-7.088 3.064,-7.963C2.132,-8.651 1.055,-8.933 0,-8.871Z" style="fill:none;fill-rule:nonzero;stroke:rgb(82,93,125);stroke-width:1.64px;"/>
        </g>
        <g transform="matrix(1.83266,0,0,1.83266,224.238,775.655)">
            <path d="M0,49.18C25.421,48.596 46.871,35.805 46.871,12.555C46.871,8.29 45.749,4.024 42.43,0" style="fill:none;fill-rule:nonzero;stroke:rgb(82,93,125);stroke-width:1.64px;stroke-linecap:round;"/>
        </g>
        <g transform="matrix(1.83266,0,0,1.83266,51.4235,681.506)">
            <path d="M0,-0.298C9.355,-0.298 18.562,0 27.819,0C32.448,0 37.088,-0.074 41.766,-0.298" style="fill:none;fill-rule:nonzero;stroke:rgb(82,93,125);stroke-width:1.64px;stroke-linecap:round;"/>
        </g>
        <g transform="matrix(1.83266,0,0,1.83266,53.1882,668.137)">
            <path d="M0,-4.197C-0.797,-3.744 -1.304,-2.996 -1.282,-1.976C-1.247,-0.499 0.039,0.439 1.469,0.411C3.325,0.375 3.684,-1.086 3.971,-2.336C3.98,-2.379 3.986,-2.422 3.983,-2.467C3.895,-3.513 2.711,-4.636 1.299,-4.622C1.142,-4.62 0.976,-4.633 0.829,-4.575C0.563,-4.469 0.329,-4.384 0,-4.197Z" style="fill:none;fill-rule:nonzero;stroke:rgb(82,93,125);stroke-width:1.64px;"/>
        </g>
        <g transform="matrix(1.83266,0,0,1.83266,76.7729,650.991)">
            <path d="M0,-4.109C-0.921,-3.673 -1.408,-2.84 -1.391,-1.958C-1.367,-0.802 -0.371,0.224 1.011,0.195C2.158,0.17 3.128,-0.509 3.2,-1.747C3.22,-2.062 3.198,-2.396 3.152,-2.676C3.006,-3.576 1.595,-4.333 0.685,-4.28C0.453,-4.266 0.222,-4.213 0,-4.109Z" style="fill:none;fill-rule:nonzero;stroke:rgb(82,93,125);stroke-width:1.64px;"/>
        </g>
        <g transform="matrix(1.83266,0,0,1.83266,102.197,665.897)">
            <path d="M0,-4.17C-1.142,-3.832 -2.098,-3.405 -1.983,-1.73C-1.91,-0.666 -0.945,0.012 0.095,0.048C1.474,0.096 2.547,-1.18 2.494,-2.301C2.448,-3.285 1.703,-4.13 0.746,-4.237C0.499,-4.266 0.247,-4.243 0,-4.17Z" style="fill:none;fill-rule:nonzero;stroke:rgb(82,93,125);stroke-width:1.64px;"/>
        </g>
        <g transform="matrix(1.83266,0,0,1.83266,129.428,648.402)">
            <path d="M0,-4.997C-1.089,-4.87 -1.946,-3.958 -2.009,-2.785C-2.09,-1.274 -0.877,0.058 0.628,0.049C1.764,0.042 3.049,-0.762 3.168,-1.991C3.196,-2.281 3.229,-2.575 3.206,-2.853C3.127,-3.821 1.997,-4.994 0.808,-5.044C0.538,-5.055 0.266,-5.029 0,-4.997Z" style="fill:none;fill-rule:nonzero;stroke:rgb(82,93,125);stroke-width:1.64px;"/>
        </g>
        <g transform="matrix(1.4884,-1.06926,-1.06926,-1.4884,63.5499,663.642)">
            <path d="M-0.9,2.796C2.252,2.741 5.532,2.851 8.684,2.796" style="fill:none;fill-rule:nonzero;stroke:rgb(82,93,125);stroke-width:1.64px;stroke-linecap:round;"/>
        </g>
        <g transform="matrix(1.61924,0.858328,0.858328,-1.61924,86.0347,647.933)">
            <path d="M-0.532,-2.141C2.494,-1.891 5.677,-2.567 8.61,-2.141" style="fill:none;fill-rule:nonzero;stroke:rgb(82,93,125);stroke-width:1.64px;stroke-linecap:round;"/>
        </g>
        <g transform="matrix(1.4779,-1.08372,-1.08372,-1.4779,112.605,661.58)">
            <path d="M-1.077,3.29C2.589,3.569 6.34,3.29 10.049,3.29" style="fill:none;fill-rule:nonzero;stroke:rgb(82,93,125);stroke-width:1.64px;stroke-linecap:round;"/>
        </g>
        <g transform="matrix(1.83266,0,0,1.83266,69.4503,791.615)">
            <path d="M0,-59.812C0,-51.039 -0.365,-42.26 -0.365,-33.438C-0.365,-15.278 -0.465,-6.348 13.024,0" style="fill:none;fill-rule:nonzero;stroke:rgb(82,93,125);stroke-width:1.64px;stroke-linecap:round;stroke-miterlimit:10;stroke-dasharray:2.18,4.91;"/>
        </g>
        <g transform="matrix(1.83266,0,0,1.83266,297.588,773.992)">
            <path d="M0,7.564C0.593,5.043 1.187,2.521 1.494,0C4.259,0.232 7.024,0.919 9.789,1.117" style="fill:none;fill-rule:nonzero;stroke:rgb(82,93,125);stroke-width:1.64px;stroke-linecap:round;"/>
        </g>
    </g>
</svg>
