<?xml version="1.0" encoding="UTF-8" standalone="no"?>
<!DOCTYPE svg PUBLIC "-//W3C//DTD SVG 1.1//EN" "http://www.w3.org/Graphics/SVG/1.1/DTD/svg11.dtd">
<svg width="100%" height="100%" viewBox="0 0 290 262" version="1.1" xmlns="http://www.w3.org/2000/svg" xmlns:xlink="http://www.w3.org/1999/xlink" xml:space="preserve" xmlns:serif="http://www.serif.com/" style="fill-rule:evenodd;clip-rule:evenodd;stroke-linecap:round;stroke-linejoin:round;">
    <g transform="matrix(1,0,0,1,-462,-476)">
        <g transform="matrix(1.76984,0,0,1.76984,569.123,694.093)">
            <path d="M0,-27.258C-1.273,-26.284 -2.83,-24.69 -4.286,-24.049C-6.58,-23.04 -9.353,-24.079 -11.739,-24.261C-15.17,-24.521 -18.63,-23.865 -20.852,-21.04C-25.532,-15.09 -20.164,-4.935 -15.617,-0.498C-14.314,0.774 -12.326,-0.219 -12.203,-1.912C-11.924,-5.764 -13.45,-9.254 -14.183,-12.975C-14.49,-14.534 -14.917,-15.307 -13.775,-16.051C-12.94,-16.596 -10.273,-15.995 -9.187,-16.218C-4.767,-17.124 0.784,-21.249 2.066,-25.67C2.378,-26.749 1.011,-28.032 0,-27.258" style="fill:rgb(224,223,230);fill-rule:nonzero;"/>
        </g>
        <g transform="matrix(1.76984,0,0,1.76984,578.799,657.598)">
            <path d="M0,-33.66C-0.818,-34.789 -2.405,-35.211 -3.485,-34.108C-6.866,-30.657 -6.74,-26.024 -7.585,-21.514C-8.087,-18.836 -8.209,-15.512 -10.131,-13.508C-12.271,-11.277 -15.43,-11.853 -18.415,-11.49C-24.373,-10.764 -34.109,-7.116 -33.259,0.468C-33.195,1.038 -32.442,1.551 -31.979,0.998C-27.857,-3.928 -23.892,-5.141 -17.6,-5.068C-13.288,-5.018 -8.434,-4.345 -4.834,-7.269C-1.432,-10.034 -0.312,-15.206 0.561,-19.267C1.573,-23.976 3.041,-29.462 0,-33.66" style="fill:rgb(224,223,230);fill-rule:nonzero;"/>
        </g>
        <g transform="matrix(1.76984,0,0,1.76984,591.035,569.735)">
            <path d="M0,-14.988C-1.378,-19.407 -7.402,-18.321 -7.787,-13.934C-8.081,-10.579 -7.329,-7.007 -10.075,-4.437C-12.798,-1.89 -16.026,-3.821 -19.18,-3.084C-19.941,-2.906 -20.198,-2.021 -19.871,-1.385C-17.339,3.529 -9.744,4.419 -5.479,1.52C-0.433,-1.912 1.793,-9.239 0,-14.988" style="fill:rgb(224,223,230);fill-rule:nonzero;"/>
        </g>
        <g transform="matrix(1.76984,0,0,1.76984,651.238,594.989)">
            <path d="M0,-45.957C-5.024,-46.942 -9.402,-42.778 -12.652,-39.338C-16.329,-35.443 -19.908,-30.611 -19.579,-25.004C-19.42,-22.296 -18.303,-19.954 -17.368,-17.456C-16.828,-16.013 -15.996,-14.267 -16.232,-12.694C-16.555,-10.537 -18.351,-9.618 -19.771,-8.479C-22.926,-5.953 -24.438,-3.575 -23.713,0.586C-23.644,0.985 -23.017,0.96 -22.93,0.586C-21.534,-5.392 -16.095,-4.099 -12.94,-7.914C-10.537,-10.82 -10.72,-14.798 -11.47,-18.272C-12.04,-20.91 -13.259,-23.618 -12.506,-26.351C-11.781,-28.979 -9.658,-31.436 -7.841,-33.353C-4.714,-36.652 0.006,-38.575 1.746,-42.882C2.227,-44.072 1.214,-45.719 0,-45.957" style="fill:rgb(224,223,230);fill-rule:nonzero;"/>
        </g>
        <g transform="matrix(1.76984,0,0,1.76984,735.407,554.53)">
            <path d="M0,-20.087C-0.456,-21.421 -1.483,-22.775 -2.968,-23.055C-3.819,-23.216 -4.582,-23.171 -5.264,-22.979C-6.482,-28.146 -9.634,-32.537 -15.582,-32.409C-16.801,-32.383 -17.084,-30.591 -15.872,-30.261C-10.458,-28.789 -14.071,-16.295 -15.535,-13.424C-17.912,-8.763 -23.338,-6.705 -25.476,-2.09C-26.175,-0.58 -26.039,1.677 -24.276,2.484C-23.532,2.826 -22.797,3.056 -22.072,3.207C-25.146,4.309 -28.399,4.726 -31.361,6.106C-31.602,6.219 -31.614,6.573 -31.443,6.745C-25.749,12.45 -14.463,8.806 -9.017,4.596C-2.173,-0.693 2.945,-11.462 0,-20.087" style="fill:rgb(224,223,230);fill-rule:nonzero;"/>
        </g>
        <g transform="matrix(1.76984,0,0,1.76984,721.565,699.962)">
            <path d="M0,-40.655C-0.357,-41.902 -1.398,-42.5 -2.469,-42.501C-0.843,-46.468 -0.181,-51.985 -3.655,-54.84C-4.445,-55.49 -5.596,-55.821 -6.533,-55.212C-9.423,-53.328 -10.382,-49.939 -11.264,-46.767C-11.638,-45.422 -11.864,-44.006 -12.43,-42.719C-12.85,-41.766 -13.705,-40.817 -13.223,-39.654C-11.96,-36.608 -9.395,-36.305 -7.092,-37.331C-9.792,-32.028 -11.551,-26.261 -15.129,-21.288C-19.517,-15.188 -25.006,-9.815 -30.96,-5.248C-37.43,-0.285 -44.677,4.062 -52.585,6.252C-61.32,8.672 -69.105,7.876 -77.801,5.814C-77.967,5.775 -78.17,5.973 -78.047,6.135C-72.936,12.895 -63.782,15.166 -55.472,14.918C-45.333,14.616 -35.657,9.746 -27.614,3.872C-20.197,-1.545 -13.385,-7.861 -8.046,-15.368C-3.156,-22.243 2.478,-31.981 0,-40.655" style="fill:rgb(224,223,230);fill-rule:nonzero;"/>
        </g>
        <g transform="matrix(1.76984,0,0,1.76984,718.828,582.95)">
            <path d="M0,2.92C-0.479,1.849 -1.165,1.427 -2.137,0.833C-2.903,0.365 -3.551,-0.238 -4.153,-0.9C-5.351,-2.217 -7.716,-0.46 -6.657,1.031C-5.971,1.995 -5.208,2.876 -4.307,3.646C-3.207,4.586 -2.188,5.137 -0.728,4.71C0.09,4.471 0.321,3.635 0,2.92" style="fill:rgb(224,223,230);fill-rule:nonzero;"/>
        </g>
        <g transform="matrix(1.76984,0,0,1.76984,661.742,673.133)">
            <path d="M0,-34.029C-3.545,-31.011 -6.082,-26.653 -9.088,-23.083C-11.961,-19.67 -14.98,-16.388 -18,-13.104C-19.946,-10.988 -24.164,-4.799 -27.042,-4.596C-28.429,-4.499 -31.174,-7.681 -32.328,-8.595C-34.012,-9.929 -35.67,-11.259 -37.537,-12.32C-37.967,-12.565 -38.577,-12.156 -38.409,-11.65C-36.956,-7.267 -33.314,-2.962 -29.529,-0.343C-25.806,2.233 -23.1,0.05 -20.079,-2.574C-15.362,-6.671 -10.961,-11.11 -6.816,-15.78C-2.928,-20.16 2.221,-25.096 4.564,-30.507C5.862,-33.503 2.625,-36.262 0,-34.029" style="fill:rgb(224,223,230);fill-rule:nonzero;"/>
        </g>
        <g transform="matrix(1.76984,0,0,1.76984,637.379,626.156)">
            <path d="M0,-9.337C-1.475,-11.618 -4.703,-11.614 -6.611,-9.893C-7.547,-9.048 -8.443,-7.858 -9.109,-6.791C-9.604,-5.998 -9.382,-5.794 -10.25,-6.374C-12.159,-7.65 -16.98,-10.542 -17.445,-6.285C-17.498,-5.807 -17.059,-5.316 -16.62,-5.2C-16.216,-5.095 -15.674,-3.583 -15.48,-3.234C-14.978,-2.334 -14.422,-1.4 -13.714,-0.644C-12.096,1.087 -9.679,2.281 -7.276,1.78C-3.394,0.971 2.639,-5.256 0,-9.337" style="fill:rgb(224,223,230);fill-rule:nonzero;"/>
        </g>
        <g transform="matrix(1.76984,0,0,1.76984,665.073,688.38)">
            <path d="M0,-19.273C-0.218,-20.414 -1.754,-20.677 -2.507,-19.935C-4.857,-17.616 -5.852,-14.162 -7.072,-11.162C-8.35,-8.019 -10.313,-4.494 -9.365,-1.084C-8.782,1.012 -6.35,1.404 -4.821,0.116C-2.208,-2.086 -1.816,-6.324 -1.118,-9.52C-0.421,-12.707 0.622,-16.014 0,-19.273" style="fill:rgb(224,223,230);fill-rule:nonzero;"/>
        </g>
        <g transform="matrix(1.76984,0,0,1.76984,471.861,623.917)">
            <path d="M0,-19.02C20.961,-17.972 17.451,-2.77 21.735,-0.389C22.223,-0.119 22.708,0 23.171,0C28.436,0 27.062,-17.853 38.985,-18.33C39.005,-18.331 39.024,-18.331 39.044,-18.331C40.059,-18.331 41.075,-17.289 42.09,-16.95" style="fill:none;fill-rule:nonzero;stroke:rgb(82,93,125);stroke-width:1.7px;"/>
        </g>
        <g transform="matrix(1.76984,0,0,1.76984,542.691,685.514)">
            <path d="M0,-51.753C2.89,-53.623 6.296,-54.835 9.579,-54.835C15.907,-54.835 21.81,-49.845 21.81,-40.008C21.81,-20.967 13.093,-19.478 5.521,-19.478C5.039,-19.478 4.554,-19.481 4.07,-19.481C-2.45,-19.481 -7.705,-18.519 -7.705,-12.021C-7.705,-8.671 -7.211,-9.034 -4.183,3.082" style="fill:none;fill-rule:nonzero;stroke:rgb(82,93,125);stroke-width:1.7px;"/>
        </g>
        <g transform="matrix(1.76984,0,0,1.76984,507.887,663.372)">
            <path d="M0,-21.302C-3.124,-18.836 -4.621,-15.271 -4.621,-11.695C-4.621,-6.113 -0.641,0 4.964,0C6.348,0 9.149,-0.327 10.506,-1.684" style="fill:none;fill-rule:nonzero;stroke:rgb(82,93,125);stroke-width:1.7px;"/>
        </g>
        <g transform="matrix(1.76984,0,0,1.76984,522.541,651.751)">
            <path d="M0,-12.321C-0.811,-10.902 -1.19,-9.401 -1.19,-7.947C-1.19,-4.451 1,-1.218 4.654,0" style="fill:none;fill-rule:nonzero;stroke:rgb(82,93,125);stroke-width:1.7px;"/>
        </g>
        <g transform="matrix(0.532955,-1.68769,-1.68769,-0.532955,546.45,603.213)">
            <path d="M-2.402,3.278C-0.014,2.585 2.169,2.55 4.472,3.278" style="fill:none;fill-rule:nonzero;stroke:rgb(82,93,125);stroke-width:1.7px;"/>
        </g>
        <g transform="matrix(1.76984,0,0,1.76984,539.638,677.503)">
            <path d="M0,13.494C23.956,-0.195 11.488,-2.531 18.63,-8.241C18.841,-8.41 19.074,-8.478 19.32,-8.478C20.298,-8.478 21.508,-7.422 22.545,-7.422C23.385,-7.422 27.566,-10.695 29.682,-10.695C31.992,-10.695 32.769,-6.858 32.769,-4.989C32.769,3.433 12.151,23.48 9.315,24.189" style="fill:none;fill-rule:nonzero;stroke:rgb(82,93,125);stroke-width:1.7px;"/>
        </g>
        <g transform="matrix(1.55182,0.850998,0.850998,-1.55182,567.113,680.377)">
            <path d="M-0.751,-2.932C3.269,-3.089 7.455,-3.547 11.446,-2.932" style="fill:none;fill-rule:nonzero;stroke:rgb(82,93,125);stroke-width:1.7px;"/>
        </g>
        <g transform="matrix(1.76984,0,0,1.76984,602.531,587.013)">
            <path d="M0,-46.473C-1.82,-46.502 -3.636,-46.461 -5.439,-46.352C-31.583,-44.762 -52.274,-24.885 -57.216,0.029" style="fill:none;fill-rule:nonzero;stroke:rgb(82,93,125);stroke-width:1.7px;"/>
        </g>
        <g transform="matrix(1.76984,0,0,1.76984,598.858,633.678)">
            <path d="M0,44.246C0.449,44.266 0.899,44.279 1.352,44.289C30.226,44.883 55.466,25 62.121,-0.637" style="fill:none;fill-rule:nonzero;stroke:rgb(82,93,125);stroke-width:1.7px;"/>
        </g>
        <g transform="matrix(1.76984,0,0,1.76984,665.88,596.822)">
            <path d="M0,-62.102C-0.956,-62.159 -1.922,-62.188 -2.893,-62.188C-29.182,-62.188 -37.302,-39.981 -37.302,-13.677C-37.302,-11.959 -36.128,0.086 -33.784,0.086C-30.703,0.086 -32.546,-6.237 -30.274,-9.834C-28.646,-12.412 -24.034,-10.235 -24.034,-14.814C-24.034,-17.81 -26.718,-20.748 -26.718,-23.777C-26.718,-27.188 -22.694,-43.133 -8.539,-46.318" style="fill:none;fill-rule:nonzero;stroke:rgb(82,93,125);stroke-width:1.7px;"/>
        </g>
        <g transform="matrix(1.76984,0,0,1.76984,602.226,555.933)">
            <path d="M0,0.331C2.07,0.331 4.306,0 6.442,0C6.976,0 7.503,0.02 8.021,0.072" style="fill:none;fill-rule:nonzero;stroke:rgb(82,93,125);stroke-width:1.7px;"/>
        </g>
        <g transform="matrix(1.76984,0,0,1.76984,570.168,561.994)">
            <path d="M0,-17.838C-0.715,-18.027 -1.441,-18.121 -2.162,-18.125C-7.262,-18.155 -11.556,-13.734 -11.42,-8.484C-11.292,-3.533 -7.004,0.079 -2.681,0.186C2.438,0.317 7.24,-4.422 6.857,-10.196C6.757,-11.689 6.316,-13.151 5.326,-14.366C3.949,-16.058 2.205,-17.255 0,-17.838Z" style="fill:none;fill-rule:nonzero;stroke:rgb(82,93,125);stroke-width:1.7px;stroke-linecap:butt;"/>
        </g>
        <g transform="matrix(1.76984,0,0,1.76984,561.389,549.071)">
            <path d="M0,-4.361C-0.187,-3.93 -0.679,-3.583 -0.786,-3.088C-0.846,-2.81 -0.882,-2.529 -0.891,-2.251C-0.948,-0.201 0.316,1.065 2.131,1.098C3.842,1.129 5.396,-0.257 5.378,-2.109C5.357,-4.364 3.224,-5.49 1.041,-5.088C0.588,-5.004 0.144,-4.693 0,-4.361Z" style="fill:none;fill-rule:nonzero;stroke:rgb(82,93,125);stroke-width:1.7px;stroke-linecap:butt;"/>
        </g>
        <g transform="matrix(1.47248,-0.981907,-0.981907,-1.47248,548.202,563.536)">
            <path d="M-0.392,1.294C1.115,1.222 2.767,1.366 4.273,1.294" style="fill:none;fill-rule:nonzero;stroke:rgb(82,93,125);stroke-width:1.7px;"/>
        </g>
        <g transform="matrix(1.76984,0,0,1.76984,686.354,558.617)">
            <path d="M0,-37.886C-14.24,-34.171 -18.215,-19.338 -18.215,-15.949C-18.215,-14.914 -13.643,-1.825 -11.407,-1.825C-10.753,-1.825 -10.055,-1.983 -9.375,-1.983C-9.108,-1.983 -4.086,0.62 0.34,0.62C11.799,0.62 23.762,-11.766 23.762,-22.328C23.762,-30.986 17.547,-38.506 5.057,-38.506C3.386,-38.506 1.723,-38.335 0,-37.886Z" style="fill:none;fill-rule:nonzero;stroke:rgb(82,93,125);stroke-width:1.7px;stroke-linecap:butt;"/>
        </g>
        <g transform="matrix(1.76984,0,0,1.76984,659.927,552.877)">
            <path d="M0,-20.195C5.73,-15.42 2.058,-6.108 12.34,-3.627C16.489,-2.625 21.098,-3.363 23.944,0" style="fill:none;fill-rule:nonzero;stroke:rgb(82,93,125);stroke-width:1.7px;"/>
        </g>
        <g transform="matrix(1.2113,1.29038,1.29038,-1.2113,713.563,557.419)">
            <path d="M-2.744,-6.34C2.137,-10.213 10.03,-10.878 14.646,-6.34" style="fill:none;fill-rule:nonzero;stroke:rgb(82,93,125);stroke-width:1.7px;"/>
        </g>
        <g transform="matrix(1.76984,0,0,1.76984,708.47,615.761)">
            <path d="M0,-13.549C-0.853,-15.893 -3.331,-17.989 -5.734,-17.989C-7.986,-17.989 -8.922,-15.638 -8.922,-14.603C-8.922,-11.173 -3.292,-10.769 -7.346,-10.769C-9.272,-10.769 -11.166,-9.444 -11.166,-6.479C-11.166,-2.048 -8.843,4.44 -3.652,4.44C-1.571,4.44 1.556,1.802 1.556,-0.336C1.556,-0.487 1.538,-0.644 1.497,-0.806" style="fill:none;fill-rule:nonzero;stroke:rgb(82,93,125);stroke-width:1.7px;"/>
        </g>
        <g transform="matrix(1.56771,-0.821359,-0.821359,-1.56771,693.702,616.624)">
            <path d="M-0.35,1.424C1.724,0.922 3.71,1.925 5.784,1.424" style="fill:none;fill-rule:nonzero;stroke:rgb(82,93,125);stroke-width:1.7px;"/>
        </g>
        <g transform="matrix(1.76984,0,0,1.76984,625.581,665.008)">
            <path d="M0,-47.326C5.63,-40.522 12.747,-34.775 20.198,-29.904C13.181,-21.896 8.522,-15.019 -6.862,0C-12.09,-4.628 -17.024,-9.539 -21.735,-14.464" style="fill:none;fill-rule:nonzero;stroke:rgb(82,93,125);stroke-width:1.7px;"/>
        </g>
        <g transform="matrix(1.2118,-1.28991,-1.28991,-1.2118,593.941,608.768)">
            <path d="M-1.847,4.269C2.176,4.143 6.034,4.572 9.868,4.269" style="fill:none;fill-rule:nonzero;stroke:rgb(82,93,125);stroke-width:1.7px;"/>
        </g>
        <g transform="matrix(1.76984,0,0,1.76984,621.414,630.406)">
            <path d="M0,-17.256C-0.311,-17.274 -0.619,-17.272 -0.923,-17.252C-5.229,-16.969 -8.379,-13.033 -8.403,-8.757C-8.43,-3.957 -4.4,-0.078 0.053,-0.033C5.558,0.018 9.25,-5.211 8.76,-10.276C8.491,-13.058 6.593,-15.208 4.128,-16.404C2.86,-17.022 1.483,-17.169 0,-17.256Z" style="fill:none;fill-rule:nonzero;stroke:rgb(82,93,125);stroke-width:1.7px;stroke-linecap:butt;"/>
        </g>
        <g transform="matrix(1.76984,0,0,1.76984,611.384,613.844)">
            <path d="M0,-4.962C2.064,-2.898 4.45,-1.031 7.029,0.518C8.635,-1.404 10.202,-3.316 11.644,-5.48" style="fill:none;fill-rule:nonzero;stroke:rgb(82,93,125);stroke-width:1.7px;"/>
        </g>
        <g transform="matrix(-0.579745,1.6722,1.6722,0.579745,668.706,676.075)">
            <path d="M-13.634,-9.703C-6.843,-9.54 0.041,-10.439 6.906,-9.703" style="fill:none;fill-rule:nonzero;stroke:rgb(82,93,125);stroke-width:1.7px;"/>
        </g>
    </g>
</svg>
