<?xml version="1.0" encoding="UTF-8" standalone="no"?>
<!DOCTYPE svg PUBLIC "-//W3C//DTD SVG 1.1//EN" "http://www.w3.org/Graphics/SVG/1.1/DTD/svg11.dtd">
<svg width="100%" height="100%" viewBox="0 0 284 257" version="1.1" xmlns="http://www.w3.org/2000/svg" xmlns:xlink="http://www.w3.org/1999/xlink" xml:space="preserve" xmlns:serif="http://www.serif.com/" style="fill-rule:evenodd;clip-rule:evenodd;stroke-linecap:round;stroke-linejoin:round;">
    <g transform="matrix(1,0,0,1,-51,-226)">
        <g transform="matrix(1.75694,0,0,1.75694,144.876,417.072)">
            <path d="M0,-48.317C-0.17,-48.741 -0.843,-48.723 -0.844,-48.203C-0.847,-45.852 -0.872,-43.494 -0.918,-41.137C-0.994,-41.287 -1.059,-41.442 -1.14,-41.59C-1.546,-42.334 -2.738,-42.167 -2.946,-41.354C-4.602,-34.893 -4.892,-28.382 -7.905,-22.271C-9.328,-19.384 -11.128,-16.766 -13.249,-14.347C-15.122,-12.21 -17.655,-10.723 -17.297,-7.6C-17.177,-6.558 -16.659,-5.676 -15.601,-5.366C-15.707,-4.45 -14.975,-3.239 -14.153,-2.857C-7.102,0.424 1.982,-11.003 4.21,-16.83C7.92,-26.533 3.669,-39.188 0,-48.317" style="fill:rgb(224,223,230);fill-rule:nonzero;"/>
        </g>
        <g transform="matrix(-1.70176,-0.436854,-0.436854,1.70176,121.605,438.378)">
            <path d="M0.979,-12.681C1.866,-13.255 3.279,-12.736 3.506,-11.673C4.199,-8.45 3.007,-3.704 0.979,-1.175C-0.694,0.91 -4.918,-0.677 -4.615,-3.417C-4.259,-6.652 -1.819,-10.875 0.979,-12.681" style="fill:rgb(224,223,230);fill-rule:nonzero;"/>
        </g>
        <g transform="matrix(-1.5668,-0.79497,-0.79497,1.5668,75,474.045)">
            <path d="M1.945,-15.495C3.537,-15.976 4.97,-14.629 4.718,-13.025C4.199,-9.715 3.221,-6.073 1.945,-2.968C-0.014,1.799 -7.392,-1.047 -6.444,-5.888C-5.61,-10.146 -2.219,-14.239 1.945,-15.495" style="fill:rgb(224,223,230);fill-rule:nonzero;"/>
        </g>
        <g transform="matrix(1.75694,0,0,1.75694,156.729,445.504)">
            <path d="M0,-2.929C-1.173,-7.825 -3.328,-13.417 -7.278,-16.714C-8.489,-17.723 -10.628,-17.145 -10.579,-15.346C-10.525,-13.388 -10.22,-11.442 -9.844,-9.497C-10.5,-9.799 -11.438,-9.447 -11.378,-8.583C-11.136,-5.057 -10.687,-1.547 -10.538,1.985C-10.398,5.277 -11.252,8.933 -10.089,12.042C-9.404,13.873 -6.484,14.794 -5.463,12.647C-5.347,12.404 -5.259,12.144 -5.163,11.889C-3.865,12.719 -2.224,12.502 -1.025,11.461C2.902,8.049 1.069,1.531 0,-2.929" style="fill:rgb(224,223,230);fill-rule:nonzero;"/>
        </g>
        <g transform="matrix(1.75694,0,0,1.75694,197.762,432.935)">
            <path d="M0,-4.218C-0.327,-11.298 0.138,-20.395 -3.068,-26.859C-3.548,-27.826 -5.103,-27.796 -5.591,-26.859C-8.783,-20.739 -8.533,-11.963 -9.017,-5.214C-9.302,-1.242 -9.455,2.755 -9.614,6.734C-9.771,10.669 -10.365,15.121 -8.862,18.816C-7.683,21.716 -2.708,23.608 -1.087,19.832C1.926,12.816 0.347,3.304 0,-4.218" style="fill:rgb(224,223,230);fill-rule:nonzero;"/>
        </g>
        <g transform="matrix(1.75694,0,0,1.75694,232.719,317.045)">
            <path d="M0,-33.513C-2.063,-35.744 -5.759,-36.328 -7.722,-33.628C-8.726,-32.248 -8.614,-30.695 -8.771,-29.096C-9.016,-26.61 -9.825,-25.273 -11.76,-23.567C-15.246,-20.494 -19.552,-20.599 -23.233,-18.308C-24.54,-17.494 -25.886,-15.955 -26.303,-14.456C-26.884,-12.373 -25.754,-10.564 -26.76,-8.516C-28.417,-5.147 -33.906,-1.684 -37.002,0.448C-37.947,1.099 -37.402,2.815 -36.174,2.411C-31.155,0.761 -26.313,2.057 -21.716,-1.317C-18.484,-3.689 -17.051,-6.558 -16.687,-10.049C-15.549,-10.289 -14.042,-10.557 -13.482,-10.768C-11.581,-11.484 -9.7,-12.363 -7.988,-13.457C-4.458,-15.713 -1.121,-18.755 0.688,-22.585C2.31,-26.019 2.766,-30.523 0,-33.513" style="fill:rgb(224,223,230);fill-rule:nonzero;"/>
        </g>
        <g transform="matrix(1.75694,0,0,1.75694,317.698,343.57)">
            <path d="M0,49.785C-2.235,46.012 -7.168,41.67 -12.393,39.464C-11.118,39.486 -9.842,39.521 -8.569,39.46C-5.363,39.308 -1.489,39.156 0.876,36.624C6.225,30.897 0.528,22.803 -0.568,16.738C-1.317,12.589 -0.147,8.176 0.117,4.012C0.382,-0.16 0.287,-4.329 -0.396,-8.458C-1.513,-15.21 -4.914,-20.939 -10.539,-24.827C-11.541,-25.52 -12.801,-24.168 -12.185,-23.181C-7.897,-16.319 -7.211,-7.88 -8.378,-0.016C-9.444,7.16 -12.05,13.96 -10.572,21.272C-10.264,22.796 -9.787,24.267 -9.333,25.751C-9.09,26.466 -8.871,27.189 -8.674,27.918C-11.169,27.907 -15.427,27.899 -16.98,27.928C-15.175,23.279 -16.625,17.337 -17.01,12.499C-17.43,7.222 -17.306,1.358 -19.587,-3.504C-20.33,-5.089 -22.457,-4.393 -22.964,-3.062C-24.892,2.005 -24.206,8.103 -24.231,13.441C-24.254,18.268 -25.307,24.55 -22.747,28.832C-27.01,30.049 -30.687,32.647 -29.364,37.894C-28.583,40.988 -24.751,42.88 -21.825,41.833C-18.934,45.506 -13.58,47.587 -10.612,51.277C-10.083,51.935 -9.582,52.735 -9.112,53.617C-11.056,50.91 -13.399,48.555 -16.519,47.142C-17.541,46.679 -18.898,47.685 -18.186,48.809C-15.327,53.321 -13.159,57.805 -11.381,62.852C-9.897,67.068 -9.017,72.231 -4.982,74.675C-3.943,75.305 -2.882,75.105 -2.119,74.473C-1.513,74.548 -0.866,74.474 -0.197,74.207C8.098,70.9 3.393,55.512 0,49.785" style="fill:rgb(224,223,230);fill-rule:nonzero;"/>
        </g>
        <g transform="matrix(1.75694,0,0,1.75694,287.626,470.213)">
            <path d="M0,-11.11C-0.315,-13.017 -3.189,-12.801 -3.646,-11.11C-4.144,-9.265 -4.744,-7.447 -5.23,-5.599C-5.856,-3.224 -6.068,-1.435 -4.485,0.585C-3.448,1.907 -1.119,1.688 -0.049,0.585C2.764,-2.315 0.583,-7.576 0,-11.11" style="fill:rgb(224,223,230);fill-rule:nonzero;"/>
        </g>
        <g transform="matrix(1.75694,0,0,1.75694,243.804,399.131)">
            <path d="M0,-5.663C-0.708,-6.873 -2.273,-7.972 -3.746,-7.812C-4.698,-7.708 -5.372,-7.54 -6.224,-7.183C-6.146,-7.216 -6.076,-7.246 -5.967,-7.293C-6.329,-7.14 -6.69,-6.988 -7.052,-6.835C-7.315,-6.698 -7.441,-6.64 -7.452,-6.629C-7.494,-6.625 -7.538,-6.62 -7.581,-6.614C-7.603,-6.624 -7.687,-6.645 -7.847,-6.68C-7.812,-6.662 -7.792,-6.652 -7.763,-6.638C-8.146,-6.788 -8.534,-7.004 -8.908,-7.174C-9.014,-7.222 -9.066,-7.244 -9.101,-7.256C-9.122,-7.271 -9.155,-7.294 -9.208,-7.328C-10.083,-7.88 -11.576,-7.578 -12.03,-6.587C-13.305,-3.809 -11.822,-1.249 -9.405,0.315C-6.589,2.137 -1.586,2.309 0,-1.284C0.646,-2.748 0.852,-4.208 0,-5.663" style="fill:rgb(224,223,230);fill-rule:nonzero;"/>
        </g>
        <g transform="matrix(1.75694,0,0,1.75694,273.425,327.346)">
            <path d="M0,-3.683C-4,-4.85 -7.249,-7.296 -10.508,-9.781C-11.612,-10.623 -12.886,-9.238 -12.654,-8.131C-11.855,-4.316 -9.374,-1.072 -6.31,1.303C-3.439,3.528 2.363,6.94 5.422,3.21C8.527,-0.575 2.676,-2.902 0,-3.683" style="fill:rgb(224,223,230);fill-rule:nonzero;"/>
        </g>
        <g transform="matrix(1.75694,0,0,1.75694,134.975,326.471)">
            <path d="M0,-5.087C-3.744,-7.027 -7.968,-5.669 -12.033,-5.176C-16.297,-4.658 -20.71,-4.418 -24.905,-3.493C-26.485,-3.146 -26.351,-0.849 -24.905,-0.427C-20.548,0.843 -15.66,1.133 -11.145,1.276C-6.913,1.411 -2.853,1.94 0.556,-0.768C1.92,-1.851 1.447,-4.337 0,-5.087" style="fill:rgb(224,223,230);fill-rule:nonzero;"/>
        </g>
        <g transform="matrix(1.75694,0,0,1.75694,281.561,446.098)">
            <path d="M0,-10.839C-0.311,-12.226 -2.081,-12.888 -3.259,-12.165C-6.309,-10.295 -7.098,-5.791 -10.747,-4.719C-14.441,-3.634 -18.646,-4.85 -22.036,-2.672C-22.615,-2.3 -22.582,-1.54 -22.036,-1.161C-18.67,1.172 -10.93,2.049 -7.097,0.125C-3.373,-1.744 0.983,-6.456 0,-10.839" style="fill:rgb(224,223,230);fill-rule:nonzero;"/>
        </g>
        <g transform="matrix(1.75694,0,0,1.75694,74.67,409.913)">
            <path d="M0,-31.438C-1.095,-31.985 -0.502,-33.362 -3.876,-33.362C-7.64,-33.362 -8.271,-27.709 -8.271,-24.887C-8.271,-22.874 -7.925,-20.692 -5.242,-20.692C-3.901,-20.692 -2.541,-21.22 -1.252,-21.942C2.095,1.924 15.695,-10.269 16.755,-0.59" style="fill:none;fill-rule:nonzero;stroke:rgb(82,93,125);stroke-width:1.71px;"/>
        </g>
        <g transform="matrix(1.75694,0,0,1.75694,118.192,324.868)">
            <path d="M0,48.08C4.147,36.849 14.83,46.02 14.83,20.871C14.83,12.338 13.306,0 4.785,0" style="fill:none;fill-rule:nonzero;stroke:rgb(82,93,125);stroke-width:1.71px;"/>
        </g>
        <g transform="matrix(1.75694,0,0,1.75694,79.4784,325.108)">
            <path d="M0,18.473C1.304,12.736 3.85,7.247 3.85,1.059C3.85,0 3.628,0.106 4.647,0.106C7.894,0.106 10.925,1.506 13.957,1.506C15.417,1.506 16.878,1.644 18.338,1.644C20.613,1.644 23.424,1.151 25.451,0.137" style="fill:none;fill-rule:nonzero;stroke:rgb(82,93,125);stroke-width:1.71px;"/>
        </g>
        <g transform="matrix(1.75694,0,0,1.75694,62.6494,299.566)">
            <path d="M0,28.632C-0.359,25.217 -1.659,21.805 -1.659,18.468C-1.659,14.532 1.097,8.928 6.294,8.928C10.804,8.928 9.75,0 21.87,0C27.469,0 28.277,1.872 30.651,3.455C31.826,1.692 33.974,0.221 36.11,0.221C39.097,0.221 44.44,10.559 44.44,16.896C44.44,17.928 44.393,18.934 44.334,19.875" style="fill:none;fill-rule:nonzero;stroke:rgb(82,93,125);stroke-width:1.71px;"/>
        </g>
        <g transform="matrix(-1.75683,0.0193184,0.0193184,1.75683,110.25,379.286)">
            <path d="M-7.086,-22.139C-3.242,-21.701 0.106,-19.93 0.147,-16.23C0.259,-6.015 -7.141,-8.687 -7.086,-3.677C-7.063,-1.604 -5.269,0.02 -3.285,-0.001C-2.103,-0.014 -0.688,-0.108 0.268,-0.599" style="fill:none;fill-rule:nonzero;stroke:rgb(82,93,125);stroke-width:1.71px;"/>
        </g>
        <g transform="matrix(1.75694,0,0,1.75694,95.8261,354.161)">
            <path d="M0,-1.347C-0.194,-1.153 -0.387,-0.823 -0.387,-0.549C-0.387,0 0.381,-0.298 0.381,-0.659C0.381,-0.855 0.246,-1.101 0,-1.347Z" style="fill:none;fill-rule:nonzero;stroke:rgb(82,93,125);stroke-width:1.71px;stroke-linecap:butt;"/>
        </g>
        <g transform="matrix(-1.75266,-0.122484,-0.122484,1.75266,121.802,353.254)">
            <path d="M-0.17,-1.394C-0.008,-1.004 0.273,-0.526 0.254,-0.245C0.244,-0.104 0.155,0.02 -0.17,-0.003C-0.452,-0.022 -0.538,-0.209 -0.521,-0.452C-0.5,-0.747 -0.327,-1.127 -0.17,-1.394Z" style="fill:none;fill-rule:nonzero;stroke:rgb(82,93,125);stroke-width:1.71px;stroke-linecap:butt;"/>
        </g>
        <g transform="matrix(1.75694,0,0,1.75694,100.153,392.505)">
            <path d="M0,-2.92C0.67,-1.357 2.422,0 4.233,0C4.642,0 5.053,-0.068 5.456,-0.22" style="fill:none;fill-rule:nonzero;stroke:rgb(82,93,125);stroke-width:1.71px;"/>
        </g>
        <g transform="matrix(1.75694,0,0,1.75694,62.6494,408.635)">
            <path d="M0,33.602C-0.118,32.403 -0.177,31.18 -0.177,29.945C-0.177,13.634 8.51,0 26.688,0C46.248,0 47.438,16.522 47.892,31.96" style="fill:none;fill-rule:nonzero;stroke:rgb(82,93,125);stroke-width:1.71px;"/>
        </g>
        <g transform="matrix(1.75694,0,0,1.75694,80.4391,472.577)">
            <path d="M0,-30.159C3.558,-26.327 5.588,-21.543 9.031,-17.57C21.292,-3.424 17.761,0 32.293,-29.064" style="fill:none;fill-rule:nonzero;stroke:rgb(82,93,125);stroke-width:1.71px;"/>
        </g>
        <g transform="matrix(1.75694,0,0,1.75694,103.519,425.306)">
            <path d="M0,-7.906C1.121,-4.543 -1.285,0 5.374,0C7.556,0 9.002,-0.967 9.002,-3.164C9.002,-4.633 8.434,-6.364 8.249,-7.846" style="fill:none;fill-rule:nonzero;stroke:rgb(82,93,125);stroke-width:1.71px;"/>
        </g>
        <g transform="matrix(-0.555592,1.66678,1.66678,0.555592,108.413,439.488)">
            <path d="M-6.834,-4.926C-3.286,-4.32 0.089,-4.926 3.55,-4.926" style="fill:none;fill-rule:nonzero;stroke:rgb(82,93,125);stroke-width:1.71px;"/>
        </g>
        <g transform="matrix(0.772872,1.57781,1.57781,-0.772872,128.633,426.357)">
            <path d="M-2.946,-4.723C0.547,-5.032 4.247,-5.443 7.573,-4.723" style="fill:none;fill-rule:nonzero;stroke:rgb(82,93,125);stroke-width:1.71px;"/>
        </g>
        <g transform="matrix(0.326645,1.72631,1.72631,-0.326645,93.916,456.431)">
            <path d="M-4.195,-5.063C-0.648,-5.456 2.681,-5.528 6.111,-5.063" style="fill:none;fill-rule:nonzero;stroke:rgb(82,93,125);stroke-width:1.71px;"/>
        </g>
        <g transform="matrix(1.75694,0,0,1.75694,162.179,379.792)">
            <path d="M0,50.019C0.256,46.946 0.459,43.931 0.459,40.893C0.459,23.808 -5.554,23.839 -5.554,16.952C-5.554,15.585 -5.368,14.285 -3.317,14.285C5.1,14.285 3.353,39.82 3.353,10.884C3.353,7.256 3.311,3.628 3.163,0C6.919,1.058 10.721,2.538 13.89,4.748C14.139,7.852 14.392,12.527 14.392,18.711C14.392,27.541 13.601,38.852 13.601,39.062C13.601,42.24 14.055,45.532 14.5,48.644" style="fill:none;fill-rule:nonzero;stroke:rgb(82,93,125);stroke-width:1.71px;"/>
        </g>
        <g transform="matrix(1.75694,0,0,1.75694,164.102,448.612)">
            <path d="M0,-1.467C3.592,-1.467 6.765,0 10.252,0C10.75,0 11.255,-0.03 11.768,-0.098" style="fill:none;fill-rule:nonzero;stroke:rgb(82,93,125);stroke-width:1.71px;"/>
        </g>
        <g transform="matrix(0.137419,-1.75156,-1.75156,-0.137419,189.233,398.188)">
            <path d="M-6.452,6.979C-1.815,7.342 2.845,7.434 7.547,6.979" style="fill:none;fill-rule:nonzero;stroke:rgb(82,93,125);stroke-width:1.71px;"/>
        </g>
        <g transform="matrix(1.75694,0,0,1.75694,163.872,270.804)">
            <path d="M0,6.07C-1.957,7.689 -3.5,9.556 -3.5,11.654C-3.5,17.392 3.528,15.153 3.528,19.909C3.528,22.911 1.276,25.241 -1.284,26.883C7.202,26.839 13.779,20.805 13.779,18.336C13.779,17.053 10.703,16.659 10.703,14.508C10.703,13.576 11.117,12.65 12.922,10.577C13.227,10.585 13.533,10.585 13.839,10.579C25.272,10.341 32.963,2.126 32.523,-6.603C32.167,-13.669 22.909,-19.679 15.017,-20.244C7.086,-20.813 -6.446,-15.182 -6.317,-4.367C-6.262,0.278 -3.567,3.636 0,6.07Z" style="fill:none;fill-rule:nonzero;stroke:rgb(82,93,125);stroke-width:1.71px;stroke-linecap:butt;"/>
        </g>
        <g transform="matrix(1.75694,0,0,1.75694,170.353,266.029)">
            <path d="M0,-1.266C-0.193,-1.073 -0.387,-0.879 -0.387,-0.589C-0.387,0.282 0.516,0.376 1.369,0.376C1.869,0.376 2.269,-0.393 2.269,-0.683C2.269,-1.074 1.341,-1.642 1.061,-1.642C0.713,-1.642 0.429,-1.266 0,-1.266Z" style="fill:none;fill-rule:nonzero;stroke:rgb(82,93,125);stroke-width:1.71px;stroke-linecap:butt;"/>
        </g>
        <g transform="matrix(1.75694,0,0,1.75694,187.182,265.246)">
            <path d="M0,-1.915C-0.497,-1.816 -0.6,-1.458 -0.6,-1.069C-0.6,-0.793 -0.547,-0.5 -0.547,-0.273C-0.547,-0.061 -0.214,0.019 0.06,0.019C0.45,0.019 0.962,-0.145 0.962,-0.558C0.962,-0.804 0.821,-1.093 0.821,-1.368C0.821,-1.609 0.6,-1.934 0.18,-1.934C0.124,-1.934 0.063,-1.928 0,-1.915Z" style="fill:none;fill-rule:nonzero;stroke:rgb(82,93,125);stroke-width:1.71px;stroke-linecap:butt;"/>
        </g>
        <g transform="matrix(1.75694,0,0,1.75694,202.086,264.145)">
            <path d="M0,-1.836C-0.201,-1.435 -0.325,-1.172 -0.325,-0.851C-0.325,-0.387 -0.146,0 0.317,0C0.988,0 0.821,-0.561 0.821,-1.289C0.821,-1.563 0.616,-1.563 0.411,-1.563C0.206,-1.563 0,-1.563 0,-1.836Z" style="fill:none;fill-rule:nonzero;stroke:rgb(82,93,125);stroke-width:1.71px;stroke-linecap:butt;"/>
        </g>
        <g transform="matrix(1.75694,0,0,1.75694,225.166,361.137)">
            <path d="M0,-17.906C5.176,-19.385 10.131,-22.64 13.463,-26.872C16.238,-19.949 23.784,-15.655 31.284,-15.655C31.701,-15.655 32.117,-15.668 32.533,-15.695C32.706,-13.757 32.908,-11.79 33.087,-9.846C33.38,-9.855 33.672,-9.861 33.961,-9.861C38.683,-9.861 40.366,-7.714 40.366,-5.574C40.366,-3.302 38.234,-1.172 35.941,-1.172C35.379,-1.172 34.823,-1.274 34.264,-1.396C34.365,2.877 34.454,7.183 34.454,11.493C34.454,14.929 34.397,18.368 34.248,21.795C39.683,21.725 44.942,20.829 50.208,19.722C49.375,12.631 46.314,5.871 43.889,-0.976C45.546,-5.501 46.515,-10.027 46.515,-15.038C46.515,-26.769 39.766,-40.869 29.836,-40.869C25.583,-40.869 21.098,-38.701 18.336,-35.421C16.238,-36.587 14.116,-37.718 11.861,-37.718C5.781,-37.718 -4.876,-30.689 -4.876,-15.923C-4.876,-9.489 -2.876,-2.584 -2.876,3.381C-2.876,9.198 -4.44,14.808 -7.26,19.836C-3.458,21.83 0.685,22.963 4.988,22.963C5.693,22.963 6.403,22.932 7.116,22.87" style="fill:none;fill-rule:nonzero;stroke:rgb(82,93,125);stroke-width:1.71px;"/>
        </g>
        <g transform="matrix(1.75694,0,0,1.75694,225.166,416.966)">
            <path d="M0,-42.841C1.642,-35.999 0.521,-29.149 2.737,-22.316C4.394,-17.206 11.695,-18.046 11.695,-6.413C11.695,-4.244 11.411,-2.067 11.094,0" style="fill:none;fill-rule:nonzero;stroke:rgb(82,93,125);stroke-width:1.71px;"/>
        </g>
        <g transform="matrix(1.75694,0,0,1.75694,272.767,388.621)">
            <path d="M0,15.711C-1.047,14.065 -1.919,12.028 -1.919,10.152C-1.919,5.312 3.634,5.611 7.331,0" style="fill:none;fill-rule:nonzero;stroke:rgb(82,93,125);stroke-width:1.71px;"/>
        </g>
        <g transform="matrix(1.75694,0,0,1.75694,233.34,364.944)">
            <path d="M0,-15.968C1.905,-17.45 4.292,-18.792 6.66,-18.792C7.939,-18.792 9.782,-18.355 9.782,-17.077C9.782,-17.063 9.782,-17.048 9.781,-17.033C8.759,2.386 4.29,-4.043 3.141,-0.31C3.077,-0.1 3.047,0.105 3.047,0.303C3.047,1.734 4.611,2.824 6.132,2.824C6.405,2.824 6.676,2.789 6.937,2.715" style="fill:none;fill-rule:nonzero;stroke:rgb(82,93,125);stroke-width:1.71px;"/>
        </g>
        <g transform="matrix(1.75694,0,0,1.75694,236.225,348.98)">
            <path d="M0,-1.682C0,-1.401 -0.081,-1.026 -0.081,-0.702C-0.081,-0.269 0.077,0 0.518,0C0.956,0 1.237,-0.382 1.237,-0.781C1.237,-1.145 1.013,-1.49 0.821,-1.682L0,-1.682Z" style="fill:none;fill-rule:nonzero;stroke:rgb(82,93,125);stroke-width:1.71px;stroke-linecap:butt;"/>
        </g>
        <g transform="matrix(1.75694,0,0,1.75694,264.113,346.849)">
            <path d="M0,-0.469C0,-0.027 0.173,0.48 0.507,0.48C0.816,0.48 1.146,0.056 1.146,-0.297C1.146,-0.557 0.976,-0.819 0.453,-0.949" style="fill:none;fill-rule:nonzero;stroke:rgb(82,93,125);stroke-width:1.71px;"/>
        </g>
        <g transform="matrix(1.75694,0,0,1.75694,252.573,377.478)">
            <path d="M0,1.802C0.688,2.26 1.44,2.463 2.19,2.463C4.126,2.463 6.053,1.114 6.842,-0.661" style="fill:none;fill-rule:nonzero;stroke:rgb(82,93,125);stroke-width:1.71px;"/>
        </g>
        <g transform="matrix(1.75694,0,0,1.75694,213.145,415.808)">
            <path d="M0,30.614C-0.102,29.359 -0.156,28.093 -0.156,26.825C-0.156,11.293 8.14,0 24.338,0C46.071,0 52.773,10.64 56.103,30.614" style="fill:none;fill-rule:nonzero;stroke:rgb(82,93,125);stroke-width:1.71px;"/>
        </g>
        <g transform="matrix(1.75694,0,0,1.75694,242.957,434.291)">
            <path d="M0,-8.915C0.496,-6.932 2.447,0 4.809,0C5.094,0 12.526,-5.442 15.052,-8.915" style="fill:none;fill-rule:nonzero;stroke:rgb(82,93,125);stroke-width:1.71px;"/>
        </g>
        <g transform="matrix(1.75694,0,0,1.75694,234.302,440.378)">
            <path d="M0,-10.19C-0.412,-9.161 -0.617,-8.059 -0.617,-6.972C-0.617,-3.089 1.945,0 5.911,0C7.653,0 9.317,-1.733 9.455,-1.733C9.498,-1.733 9.54,-1.725 9.579,-1.706C11.614,-0.748 13.97,-0.016 16.239,-0.016C21.689,-0.016 24.631,-4.46 24.631,-9.573C24.631,-9.784 24.63,-9.99 24.63,-10.19" style="fill:none;fill-rule:nonzero;stroke:rgb(82,93,125);stroke-width:1.71px;"/>
        </g>
        <g transform="matrix(1.75694,0,0,1.75694,249.688,469.115)">
            <path d="M0,-15.873C-0.17,-12.635 -0.553,-9.29 -0.553,-5.971C-0.553,-3.961 -0.413,-1.961 0,0" style="fill:none;fill-rule:nonzero;stroke:rgb(82,93,125);stroke-width:1.71px;"/>
        </g>
        <g transform="matrix(0.145817,1.75088,1.75088,-0.145817,290.978,460.944)">
            <path d="M-3.022,-3.284C-0.84,-3.466 1.387,-3.102 3.569,-3.284" style="fill:none;fill-rule:nonzero;stroke:rgb(82,93,125);stroke-width:1.71px;"/>
        </g>
    </g>
</svg>
