<?xml version="1.0" encoding="UTF-8" standalone="no"?>
<!DOCTYPE svg PUBLIC "-//W3C//DTD SVG 1.1//EN" "http://www.w3.org/Graphics/SVG/1.1/DTD/svg11.dtd">
<svg width="100%" height="100%" viewBox="0 0 300 320" version="1.1" xmlns="http://www.w3.org/2000/svg" xmlns:xlink="http://www.w3.org/1999/xlink" xml:space="preserve" xmlns:serif="http://www.serif.com/" style="fill-rule:evenodd;clip-rule:evenodd;stroke-linecap:round;stroke-linejoin:round;">
    <g transform="matrix(1,0,0,1,-247,-420)">
        <g transform="matrix(2.20053,0,0,2.20053,435.186,556.208)">
            <path d="M0,-11.623C-4.281,-16.119 -10.753,-18.422 -16.917,-17.967C-28.427,-17.115 -40.664,-7.137 -41.547,4.88C-41.641,6.163 -39.883,6.799 -39.04,5.918C-32.736,-0.661 -28.92,-10.031 -18.505,-10.971C-13.844,-11.391 -9.026,-9.112 -5.987,-5.635C-3.274,-2.531 -3.276,2.007 -0.229,4.699C1.316,6.064 3.374,5.751 4.532,4.086C7.946,-0.823 3.529,-7.916 0,-11.623" style="fill:rgb(224,223,230);fill-rule:nonzero;"/>
        </g>
        <g transform="matrix(2.20053,0,0,2.20053,469.031,674.204)">
            <path d="M0,-36.172C-0.335,-36.518 -0.898,-36.493 -1.238,-36.172C-2.137,-35.32 -2.797,-34.226 -3.349,-33.048C-3.408,-33.27 -3.46,-33.491 -3.532,-33.713C-3.955,-35.017 -5.809,-35.774 -6.823,-34.582C-9.625,-31.288 -10.988,-27.192 -13.539,-23.712C-16.64,-19.483 -21.113,-16.07 -26.039,-14.276C-37.821,-9.985 -48.94,-15.586 -59.631,-20.129C-59.923,-20.253 -60.298,-19.984 -60.102,-19.659C-57.265,-14.969 -52.784,-11.324 -47.626,-8.943C-48.843,-9.371 -50.061,-9.791 -51.163,-10.349C-53.971,-11.772 -56.685,-13.635 -59.377,-15.262C-59.658,-15.432 -60.121,-15.218 -60.082,-14.857C-59.659,-10.884 -57.978,-8.096 -55.048,-5.314C-52.158,-2.568 -47.789,0.346 -43.676,-0.565C-41.247,-1.103 -40.39,-4.503 -42.196,-6.17C-42.865,-6.788 -43.641,-7.265 -44.467,-7.674C-37.807,-5.368 -30.407,-5.062 -24.084,-7.186C-20.636,-8.344 -16.517,-10.586 -12.832,-13.525C-11.999,-10.844 -8.623,-9.036 -6.083,-11.677C-2.571,-15.33 -0.005,-19.635 1.269,-24.559C2.199,-28.151 2.804,-33.277 0,-36.172" style="fill:rgb(224,223,230);fill-rule:nonzero;"/>
        </g>
        <g transform="matrix(2.20053,0,0,2.20053,412.843,697.053)">
            <path d="M0,-7.96C-1.875,-8.192 -3.8,-7.728 -5.696,-7.88C-7.432,-8.019 -9.125,-8.692 -10.862,-8.659C-11.807,-8.641 -12.726,-7.664 -12.369,-6.681C-10.71,-2.114 -3.444,0.732 1.004,-0.536C5.387,-1.786 4.021,-7.461 0,-7.96" style="fill:rgb(224,223,230);fill-rule:nonzero;"/>
        </g>
        <g transform="matrix(2.20053,0,0,2.20053,498.362,716.424)">
            <path d="M0,-9.542L0.152,-9.829C0.521,-10.528 0.625,-11.474 0.152,-12.164L-0.32,-12.853C-1.408,-14.439 -2.865,-14.9 -4.7,-14.635C-13.835,-13.312 -22.39,-11.044 -31.037,-7.833C-32.647,-7.235 -31.997,-5.064 -30.339,-5.302C-26.204,-5.896 -22.019,-6.317 -17.821,-6.598C-18.829,-6.353 -19.836,-6.104 -20.848,-5.882C-26.185,-4.714 -32.018,-3.022 -37.45,-4.55C-42.075,-5.851 -45.773,-9.382 -50.188,-11.242C-54.291,-12.971 -58.407,-13.292 -62.711,-12.306C-63.005,-12.238 -62.949,-11.855 -62.711,-11.764C-56.556,-9.393 -52.261,-5.738 -47.256,-1.618C-43.57,1.415 -39.696,3.729 -34.93,4.532C-30.029,5.358 -25.049,4.729 -20.192,3.882C-13.816,2.771 -7.183,1.439 -1.062,-0.67C3.479,-2.233 3.161,-7.654 0,-9.542" style="fill:rgb(224,223,230);fill-rule:nonzero;"/>
        </g>
        <g transform="matrix(2.20053,0,0,2.20053,520.293,727.042)">
            <path d="M0,-7.577C-1.769,-7.306 -3.241,-6.152 -4.875,-5.467C-6.648,-4.723 -8.492,-4.237 -10.403,-4.009C-11.756,-3.847 -12.24,-1.911 -10.744,-1.492C-6.546,-0.314 -0.662,0.396 2.894,-2.606C5.425,-4.743 2.587,-7.973 0,-7.577" style="fill:rgb(224,223,230);fill-rule:nonzero;"/>
        </g>
        <g transform="matrix(2.20053,0,0,2.20053,518.693,531.544)">
            <path d="M0,-18.938C2.12,-27.461 -0.105,-37.741 -4.702,-44.208C-5.555,-45.407 -7.556,-44.723 -7.158,-43.172C-5.718,-37.553 -5.432,-31.27 -6.602,-25.567C-7.508,-21.155 -9.651,-17.289 -11.232,-13.164C-13.102,-9.491 -13.955,-5.2 -14.33,-1.202C-14.733,3.095 -15.237,10.017 -11.708,13.205C-12.003,13.692 -12.324,14.153 -12.703,14.541C-17.009,18.943 -19.908,13.572 -23.358,11.321C-24.055,10.867 -24.845,11.356 -25.103,12.031C-26.786,16.426 -23.298,21.664 -19.412,23.721C-14.219,26.469 -8.758,23.189 -5.562,18.996C-2.098,14.448 -1.1,8.924 -0.79,3.351C-0.594,-0.161 -0.721,-3.761 -0.177,-7.239C0.329,-10.478 1.403,-13.546 1.749,-16.82C1.882,-18.086 1.013,-18.794 0,-18.938" style="fill:rgb(224,223,230);fill-rule:nonzero;"/>
        </g>
        <g transform="matrix(2.20053,0,0,2.20053,472.67,508.351)">
            <path d="M0,-9.002C-1.025,-10.324 -2.646,-10.648 -4.216,-10.223C-5.831,-9.785 -6.958,-8.571 -8.12,-7.443C-10.004,-5.613 -12.305,-3.193 -13.005,-0.6C-13.295,0.474 -12.464,1.646 -11.318,1.616C-8.711,1.547 -6.004,0.024 -3.82,-1.296C-1.303,-2.819 2.563,-5.692 0,-9.002" style="fill:rgb(224,223,230);fill-rule:nonzero;"/>
        </g>
        <g transform="matrix(2.20053,0,0,2.20053,323.427,552.904)">
            <path d="M0,-17.975C-0.64,-21.695 -1.242,-25.48 -3.039,-28.842C-3.765,-30.202 -5.675,-29.74 -6.123,-28.44C-6.883,-26.236 -7.166,-23.893 -7.282,-21.542C-7.602,-21.868 -7.928,-22.154 -8.263,-22.366C-8.563,-22.554 -9.053,-22.233 -8.906,-21.871C-8.039,-19.746 -8.871,-16.896 -9.078,-14.692C-9.322,-12.09 -9.462,-9.489 -9.648,-6.885C-9.914,-3.167 -12.524,1.149 -11.634,4.664C-11.589,4.841 -11.514,5.019 -11.423,5.191C-11.427,5.191 -11.431,5.192 -11.435,5.191C-12.72,5.275 -13.857,5.721 -14.31,7.023C-15.526,10.521 -10.149,12.227 -7.681,11.995C-3.392,11.589 -0.124,7.634 -2.075,3.421C-2.297,2.941 -2.666,2.595 -3.097,2.35C-2.12,-0.258 -1.897,-3.759 -2.238,-7.334C-1.783,-7.48 -1.36,-7.724 -1.022,-8.037C1.798,-10.655 0.584,-14.579 0,-17.975" style="fill:rgb(224,223,230);fill-rule:nonzero;"/>
        </g>
        <g transform="matrix(2.20053,0,0,2.20053,358.824,463.028)">
            <path d="M0,4.353C-2.194,1.101 -5.917,-0.975 -8.624,-3.825C-10.917,-6.237 -12.815,-10.691 -15.826,-12.114C-16.246,-12.313 -16.885,-12.27 -17.108,-11.778C-18.697,-8.271 -15.852,-3.32 -13.949,-0.382C-12.047,2.557 -9.296,6.136 -5.94,7.834C-7.275,7.587 -8.695,7.496 -10.086,7.294C-13.079,6.86 -16.859,5.635 -19.804,6.594C-20.617,6.86 -21.227,7.909 -20.664,8.707C-18.814,11.325 -15.295,12.349 -12.396,13.463C-9.296,14.654 -5.112,16.666 -2.078,14.546C-0.888,13.714 -0.174,12.048 -1.069,10.699C-1.671,9.79 -2.408,9.169 -3.229,8.725C-0.947,9.014 1.56,6.666 0,4.353" style="fill:rgb(224,223,230);fill-rule:nonzero;"/>
        </g>
        <g transform="matrix(2.20053,0,0,2.20053,411.351,591.497)">
            <path d="M0,29.901C13.642,25.932 23.073,13.598 23.022,-1.275C19.259,-1.13 15.496,-0.935 11.733,-0.731C11.657,11.017 2.548,20.294 -9.501,20.364C-21.592,20.432 -30.977,11.753 -31.261,0.569C-35.026,0.584 -38.791,0.609 -42.556,0.686C-42.555,0.758 -42.559,0.83 -42.557,0.901C-42.221,17.258 -29.124,30.139 -11.839,31.176" style="fill:none;fill-rule:nonzero;stroke:rgb(82,93,125);stroke-width:1.36px;"/>
        </g>
        <g transform="matrix(2.20053,0,0,2.20053,340.087,491.163)">
            <path d="M0,35.555C-0.26,22.864 10.375,11.777 23.293,11.927C23.574,11.93 23.855,11.939 24.138,11.952C26.799,12.085 29.417,12.717 31.943,13.693C39.62,16.657 45.286,24.043 45.534,33.381C45.542,33.668 45.539,33.952 45.537,34.238C49.522,34.014 53.507,33.8 57.493,33.641C57.492,33.331 57.498,33.024 57.49,32.712C57.111,18.47 48.47,7.204 36.76,2.684C32.909,1.197 28.915,0.233 24.856,0.031C24.426,0.009 23.997,-0.004 23.568,-0.008C3.945,-0.238 -12.217,16.534 -11.957,35.793C-7.97,35.707 -3.982,35.68 0.005,35.664C0.004,35.627 0,35.592 0,35.555Z" style="fill:none;fill-rule:nonzero;stroke:rgb(82,93,125);stroke-width:1.36px;stroke-linecap:butt;"/>
        </g>
        <g transform="matrix(2.20053,0,0,2.20053,275.668,562.667)">
            <path d="M0,-59.35C-4.002,-53.98 -6.663,-47.507 -5.888,-40.882C-4.903,-32.453 2.094,-24.62 3.365,-13.748C4.077,-7.659 1.813,-5.712 2.155,-2.782C2.333,-1.26 3.376,0 5.34,-0.23C5.966,-0.303 6.603,-0.522 7.158,-0.84" style="fill:none;fill-rule:nonzero;stroke:rgb(82,93,125);stroke-width:1.36px;"/>
        </g>
        <g transform="matrix(2.20053,0,0,2.20053,289.231,501.878)">
            <path d="M0,-1.736C-0.202,0.757 -0.58,2.655 -0.081,6.928C0.307,10.241 1.05,13.445 1.437,16.753C2.175,23.065 0.687,24.25 1.032,27.199C1.222,28.819 2.276,30.625 3.928,30.432C10.424,29.672 11.079,16.246 10.453,10.893C9.999,7.007 8.707,3.15 8.256,-0.713C7.999,-2.91 7.86,-8.667 10.008,-8.918C14.17,-6.396 21.134,0.267 25.55,-0.043C27.121,-0.153 28.369,-1.144 29.055,-3.516C29.279,-4.293 29.349,-5.179 29.232,-6.175C28.133,-15.582 16.114,-12.441 14.458,-26.606C14.234,-28.524 14.253,-30.468 14.433,-32.361" style="fill:none;fill-rule:nonzero;stroke:rgb(82,93,125);stroke-width:1.36px;"/>
        </g>
        <g transform="matrix(2.20053,0,0,2.20053,506.438,562.667)">
            <path d="M0,-59.35C4.002,-53.98 6.663,-47.507 5.888,-40.882C4.902,-32.453 -2.094,-24.62 -3.365,-13.748C-4.077,-7.659 -1.813,-5.712 -2.156,-2.782C-2.333,-1.26 -3.376,0 -5.34,-0.23C-5.966,-0.303 -6.603,-0.522 -7.158,-0.84" style="fill:none;fill-rule:nonzero;stroke:rgb(82,93,125);stroke-width:1.36px;"/>
        </g>
        <g transform="matrix(2.20053,0,0,2.20053,492.874,501.878)">
            <path d="M0,-1.736C0.203,0.757 0.581,2.655 0.081,6.928C-0.306,10.241 -1.05,13.445 -1.437,16.753C-2.174,23.065 -0.687,24.25 -1.032,27.199C-1.221,28.819 -2.276,30.625 -3.928,30.432C-10.424,29.672 -11.079,16.246 -10.453,10.893C-9.999,7.007 -8.707,3.15 -8.255,-0.713C-7.999,-2.91 -7.86,-8.667 -10.008,-8.918C-14.17,-6.396 -21.133,0.267 -25.55,-0.043C-27.12,-0.153 -28.368,-1.144 -29.055,-3.516C-29.279,-4.293 -29.349,-5.179 -29.232,-6.175C-28.132,-15.582 -16.114,-12.441 -14.458,-26.606C-14.234,-28.524 -14.252,-30.468 -14.432,-32.361" style="fill:none;fill-rule:nonzero;stroke:rgb(82,93,125);stroke-width:1.36px;"/>
        </g>
        <g transform="matrix(2.20053,0,0,2.20053,419.283,651.842)">
            <path d="M0,13.022C-0.858,12.789 -1.741,12.729 -2.631,12.729C-3.553,12.729 -4.483,12.793 -5.407,12.793C-8.053,12.793 -18.351,10.472 -18.351,7.844C-18.351,5.93 -15.288,2.842 -10.017,2.842C-7.634,2.842 -5.249,3.27 -2.862,3.27C2.825,3.27 5.383,0 13.162,0C20.969,0 24.478,6.793 31.346,6.793C32.231,6.793 33.151,6.668 34.115,6.382" style="fill:none;fill-rule:nonzero;stroke:rgb(82,93,125);stroke-width:1.36px;"/>
        </g>
        <g transform="matrix(2.20053,0,0,2.20053,378.524,703.694)">
            <path d="M0,-16.558C-3.925,-16.869 -7.978,-17.521 -12.004,-17.521C-15.316,-17.521 -22.33,-17.037 -22.33,-13.618C-22.33,-9.246 -8.66,-12.009 -0.481,-7.335C4.376,-4.56 10.848,0.963 22.016,0.963C28.907,0.963 36.152,-1.983 44.22,-1.983C46.431,-1.983 48.628,-1.747 50.806,-1.154" style="fill:none;fill-rule:nonzero;stroke:rgb(82,93,125);stroke-width:1.36px;"/>
        </g>
        <g transform="matrix(0.0947229,-2.1985,-2.1985,-0.0947229,486.911,678.533)">
            <path d="M6.702,-16.739C6.631,-15.814 6.576,-14.889 6.536,-13.963C6.335,-9.282 6.665,-8.583 6.702,-3.892C-1.526,-4.516 -9.837,-5.394 -18.081,-5.801C-17.108,-11.826 -16.957,-13.722 -15.855,-19.774" style="fill:none;fill-rule:nonzero;stroke:rgb(82,93,125);stroke-width:1.36px;"/>
        </g>
        <g transform="matrix(2.20053,0,0,2.20053,511.485,705.953)">
            <path d="M0,-2.18C-0.807,-2.18 -0.687,-1.319 -0.687,-0.577C-0.687,-0.247 0.165,0 0.396,0C1.087,0 1.667,-0.607 1.667,-1.015C1.667,-1.364 1.17,-1.926 0.916,-2.18L0,-2.18Z" style="fill:none;fill-rule:nonzero;stroke:rgb(82,93,125);stroke-width:1.36px;stroke-linecap:butt;"/>
        </g>
    </g>
</svg>
