<?xml version="1.0" encoding="UTF-8" standalone="no"?>
<!DOCTYPE svg PUBLIC "-//W3C//DTD SVG 1.1//EN" "http://www.w3.org/Graphics/SVG/1.1/DTD/svg11.dtd">
<svg width="100%" height="100%" viewBox="0 0 260 250" version="1.1" xmlns="http://www.w3.org/2000/svg" xmlns:xlink="http://www.w3.org/1999/xlink" xml:space="preserve" xmlns:serif="http://www.serif.com/" style="fill-rule:evenodd;clip-rule:evenodd;stroke-linecap:round;stroke-linejoin:round;stroke-miterlimit:10;">
    <g transform="matrix(1,0,0,1,-41,-426)">
        <g transform="matrix(1.77369,0,0,1.77369,231.819,653.227)">
            <path d="M0,-49.292C-0.284,-50.256 -1.657,-50.479 -2.171,-49.576C-6.316,-42.278 -11.48,-35.842 -19.067,-31.952C-27.001,-27.884 -38.234,-24.396 -47.096,-26.585C-48.492,-26.93 -49.677,-26.766 -50.628,-26.285C-51.338,-27.455 -52.828,-28.135 -54.298,-27.962C-54.754,-28.122 -55.229,-28.288 -55.74,-28.498C-57.113,-29.063 -58.313,-29.966 -59.526,-30.803C-61.91,-32.448 -64.067,-34.494 -66.366,-36.276C-67.23,-36.946 -68.309,-36.718 -68.707,-35.658C-70.318,-31.362 -68.506,-27.279 -65.772,-23.933C-65.158,-23.182 -64.365,-22.417 -63.464,-21.698C-64.771,-20.304 -66.001,-18.911 -67.155,-17.794C-70.459,-14.597 -75.793,-10.666 -76.815,-5.987C-77.002,-5.131 -76.403,-4.043 -75.399,-4.128C-73.989,-4.248 -72.625,-4.72 -71.304,-5.392C-71.991,-4.359 -72.591,-3.276 -73.059,-2.121C-73.776,-0.347 -71.721,1.187 -70.137,0.801C-64.659,-0.537 -60.111,-5.059 -55.849,-8.549C-52.928,-10.939 -48.853,-13.385 -46.167,-16.499C-34.826,-16.052 -22.932,-19.442 -13.237,-25.24C-4.958,-30.19 3.029,-39.018 0,-49.292" style="fill:rgb(224,223,230);fill-rule:nonzero;"/>
        </g>
        <g transform="matrix(1.77369,0,0,1.77369,274.963,672.87)">
            <path d="M0,-60.648C-0.638,-62.245 -2.504,-62.961 -3.865,-61.669C-6.661,-59.012 -7.186,-55.356 -8.297,-51.798C-9.566,-47.736 -10.954,-43.711 -12.548,-39.763C-15.762,-31.804 -20.333,-24.486 -27.364,-19.363C-34.128,-14.433 -42.394,-11.572 -50.638,-10.375C-60.564,-8.933 -70.619,-10.525 -80.552,-10.13C-81.743,-10.084 -82.233,-8.493 -81.167,-7.859C-64.033,2.313 -38.932,-0.119 -22.829,-11.605C-15.059,-17.148 -9.321,-24.655 -5.473,-33.357C-3.591,-37.613 -2.196,-41.977 -1.143,-46.508C-0.124,-50.89 1.734,-56.308 0,-60.648" style="fill:rgb(224,223,230);fill-rule:nonzero;"/>
        </g>
        <g transform="matrix(1.77369,0,0,1.77369,190.636,574.024)">
            <path d="M0,-17.871C-4.805,-15.312 -6.813,-7.703 -12.404,-7.683C-14.358,-7.675 -19.625,-7.431 -21.086,-8.654C-22.281,-9.655 -23.542,-14.169 -24.311,-15.538C-24.839,-16.48 -26.235,-16.225 -26.538,-15.247C-27.594,-11.843 -28.188,-7.751 -26.533,-4.412C-24.623,-0.556 -19.731,0.536 -15.83,1.163C-11.51,1.858 -6.459,1.721 -2.923,-1.185C-1.39,-2.445 -0.435,-4.074 0.699,-5.68C2.283,-7.924 4.281,-9.753 5.9,-11.971C8.612,-15.685 3.49,-19.729 0,-17.871" style="fill:rgb(224,223,230);fill-rule:nonzero;"/>
        </g>
        <g transform="matrix(1.77369,0,0,1.77369,173.933,578.96)">
            <path d="M0,-51.27C1.155,-52.627 -0.263,-54.396 -1.856,-53.674C-6.791,-51.438 -11.063,-48.378 -15.191,-44.897C-18.94,-41.737 -23.726,-38.061 -26.342,-33.854C-28.856,-29.812 -28.093,-24.179 -27.772,-19.679C-27.348,-13.733 -26.291,-7.821 -25.239,-1.96C-24.326,3.126 -15.716,0.844 -17.465,-4.104C-19.43,-9.663 -22.321,-19.266 -21.243,-26.473C-17.991,-27.235 -15.144,-29.563 -12.532,-31.541C-9.52,-33.824 -5.791,-36.05 -4.514,-39.759C-3.811,-41.803 -5.903,-43.572 -7.811,-43.202C-5.097,-45.779 -2.435,-48.408 0,-51.27" style="fill:rgb(224,223,230);fill-rule:nonzero;"/>
        </g>
        <g transform="matrix(1.77369,0,0,1.77369,232.762,610.013)">
            <path d="M0,-35.846C-1.033,-39.083 -6.358,-39.617 -7.112,-35.846C-8.608,-28.351 -9.61,-22.161 -15.28,-16.469C-20.124,-11.606 -26.714,-8.604 -33.459,-7.543C-46.15,-5.548 -56.068,-11.133 -66.434,-17.488C-67.35,-18.049 -68.318,-17.125 -68.133,-16.182C-65.005,-0.288 -43.505,3.771 -30.22,1.326C-21.729,-0.238 -13.308,-4.494 -7.471,-10.926C-1.834,-17.137 2.676,-27.456 0,-35.846" style="fill:rgb(224,223,230);fill-rule:nonzero;"/>
        </g>
        <g transform="matrix(1.77369,0,0,1.77369,173.152,459.075)">
            <path d="M0,0.644C-0.49,-2.791 -0.836,-7.37 -3.366,-9.952C-3.89,-10.487 -4.749,-10.325 -5.133,-9.724C-6.688,-7.291 -6.423,-3.969 -6.342,-1.173C-6.249,2.033 -6.019,5.252 -5.542,8.425C-5.374,9.549 -4.241,10.424 -3.234,10.735C-3.06,10.788 -2.885,10.841 -2.711,10.895C-1.942,11.131 -0.872,10.904 -0.339,10.268C1.869,7.63 0.45,3.795 0,0.644" style="fill:rgb(224,223,230);fill-rule:nonzero;"/>
        </g>
        <g transform="matrix(1.77369,0,0,1.77369,177.566,503.496)">
            <path d="M0,4.462C-0.033,4.385 -0.059,4.323 -0.088,4.254C-0.067,4.261 -0.079,4.148 -0.126,3.906C-0.047,2.834 -0.46,1.493 -0.618,0.42C-0.899,-1.497 -1.323,-3.646 -2.833,-4.992C-3.782,-5.837 -5.062,-5.839 -6.016,-4.992C-7.524,-3.652 -7.957,-1.491 -8.241,0.42C-8.549,2.492 -9.172,4.755 -8.537,6.816C-8.126,8.15 -6.947,9.7 -5.445,9.907C-5.36,9.919 -5.275,9.931 -5.19,9.942C-2.591,10.301 0.247,8.906 0.164,5.864C0.152,5.415 0.118,4.893 0,4.462" style="fill:rgb(224,223,230);fill-rule:nonzero;"/>
        </g>
        <g transform="matrix(1.77369,0,0,1.77369,205.919,547.551)">
            <path d="M0,-9.418C-0.863,-10.603 -2.889,-10.975 -3.669,-9.418C-4.685,-7.395 -5.377,-5.905 -6.058,-3.99C-6.91,-1.593 -4.891,0.925 -2.576,1.236C-0.189,1.557 2.27,-0.326 2.168,-2.877C2.073,-5.246 1.394,-7.505 0,-9.418" style="fill:rgb(224,223,230);fill-rule:nonzero;"/>
        </g>
        <g transform="matrix(1.77369,0,0,1.77369,242.73,552.537)">
            <path d="M0,-6.283C-0.749,-6.81 -1.508,-7.295 -2.293,-7.766C-2.81,-8.077 -3.308,-8.363 -3.879,-8.575C-4.426,-8.777 -5.028,-8.796 -5.607,-8.864C-7.033,-9.032 -8.105,-7.552 -8.17,-6.302C-8.282,-4.138 -7.102,-2.003 -6.183,-0.099C-4.898,2.56 -1.02,2.749 0.915,0.815C1.734,-0.005 2.238,-1.221 2.238,-2.381C2.238,-4.079 1.334,-5.343 0,-6.283" style="fill:rgb(224,223,230);fill-rule:nonzero;"/>
        </g>
        <g transform="matrix(1.77369,0,0,1.77369,256.624,459.754)">
            <path d="M0,13.506C-0.727,9.553 -2.065,5.676 -3.101,1.795C-3.617,-0.137 -5.026,-1.096 -6.579,-1.309C-6.179,-3.365 -6.298,-6.178 -8.185,-7.214C-8.868,-7.956 -9.953,-7.859 -10.482,-7.043C-11.488,-6.307 -12.045,-4.856 -12.899,-4.016C-13.583,-3.345 -13.539,-3.268 -14.305,-2.822C-14.944,-2.45 -16.072,-2.028 -16.993,-1.068C-19.535,1.58 -17.508,5.316 -14.203,5.665C-13.257,5.766 -12.321,5.546 -11.444,5.123C-11.438,5.14 -11.432,5.157 -11.425,5.174C-11.585,6.051 -11.65,6.968 -11.766,7.84C-12.213,11.223 -15.707,12.277 -18.139,14.159C-20.003,14.355 -21.819,14.666 -23.591,15.476C-25.206,16.214 -25.12,18.866 -23.591,19.631C-20.355,21.249 -16.668,21.163 -13.107,21.13C-9.927,21.1 -5.486,21.462 -2.568,20.023C-0.009,18.761 0.472,16.069 0,13.506" style="fill:rgb(224,223,230);fill-rule:nonzero;"/>
        </g>
        <g transform="matrix(1.77369,0,0,1.77369,250.809,527.691)">
            <path d="M0,-6.765C-1.333,-9.044 -4.251,-9.758 -6.542,-8.481C-7.536,-7.926 -8.097,-7.244 -8.762,-6.36C-7.839,-7.587 -8.733,-6.436 -8.948,-6.197C-9.055,-6.078 -9.171,-5.966 -9.288,-5.857C-9.479,-5.712 -9.643,-5.586 -9.764,-5.494C-9.87,-5.424 -9.974,-5.353 -10.085,-5.292C-11.468,-4.39 -12.954,-2.789 -12.249,-0.943C-11.111,2.04 -7.678,2.993 -4.779,2.112C-1.209,1.026 2.246,-2.928 0,-6.765" style="fill:rgb(224,223,230);fill-rule:nonzero;"/>
        </g>
        <g transform="matrix(1.77369,0,0,1.77369,284.338,532.117)">
            <path d="M0,-2.741C-0.622,-6.722 -2.004,-11.667 -5.728,-13.783C-6.574,-14.264 -7.602,-13.814 -7.886,-12.905C-8.98,-9.401 -7.845,-5.312 -7.639,-1.707C-7.425,2.048 -8.426,6.16 -6.607,9.563C-5.704,11.254 -3.2,11.523 -1.896,10.17C1.296,6.861 0.662,1.498 0,-2.741" style="fill:rgb(224,223,230);fill-rule:nonzero;"/>
        </g>
        <g transform="matrix(1.77369,0,0,1.77369,268.431,491.535)">
            <path d="M0,-2.705C-1.949,-5.608 -4.27,-7.851 -7.252,-9.665C-9.188,-10.841 -11.917,-8.4 -10.502,-6.415C-8.906,-4.177 -7.458,-1.709 -6.397,0.828C-5.224,3.636 -4.825,6.614 -1.67,7.802C-0.784,8.136 0.583,7.781 1.187,7.047C3.709,3.982 1.969,0.228 0,-2.705" style="fill:rgb(224,223,230);fill-rule:nonzero;"/>
        </g>
        <g transform="matrix(1.77369,0,0,1.77369,284.394,656.998)">
            <path d="M0,-71.506C-0.664,-73.806 -4.492,-74.774 -5.597,-72.237C-7.937,-66.869 -8.273,-60.534 -8.839,-54.48C-11.264,-55.516 -14.418,-55.086 -15.572,-52.451C-18.833,-45 -20.62,-37.189 -24.755,-30.066C-28.543,-23.54 -33.6,-17.561 -40.095,-13.603C-53.621,-5.363 -71.193,-8.91 -85.773,-11.675C-89.572,-12.396 -91.833,-8.339 -89.422,-5.407C-83.705,1.547 -72.531,1.837 -64.238,2.481C-54.124,3.268 -44.479,2.403 -35.478,-2.617C-26.691,-7.52 -19.335,-15.632 -14.098,-24.928C-14.117,-24.03 -13.014,-23.262 -12.269,-24.078C-9.74,-26.847 -7.603,-29.036 -6.105,-32.559C-4.437,-36.482 -3.349,-40.672 -2.437,-44.824C-0.666,-52.88 2.333,-63.43 0,-71.506" style="fill:rgb(224,223,230);fill-rule:nonzero;"/>
        </g>
        <g transform="matrix(1.43415,-1.04364,-1.04364,-1.43415,93.6301,576.166)">
            <path d="M-5.603,-2.952C-5.175,6.665 -5.04,16.158 -3.236,25.651C-2.966,27.071 -4.828,27.405 -5.603,26.553C-12.632,18.833 -14.861,8.191 -16.301,-1.878C-17.284,-8.745 -5.913,-9.878 -5.603,-2.952" style="fill:rgb(224,223,230);fill-rule:nonzero;"/>
        </g>
        <g transform="matrix(1.77369,0,0,1.77369,181.162,564.09)">
            <path d="M0,-14.58C-3.818,-14.347 -5.657,-11.309 -8.743,-9.501C-11.458,-7.908 -14.891,-8.809 -17.282,-6.837C-17.723,-6.473 -17.832,-5.779 -17.7,-5.256C-16.572,-0.787 -9.818,0.121 -6.115,-0.887C-1.728,-2.081 3.546,-5.88 3.938,-10.642C4.105,-12.676 1.997,-14.701 0,-14.58" style="fill:rgb(224,223,230);fill-rule:nonzero;"/>
        </g>
        <g transform="matrix(-0.522655,-1.69493,-1.69493,0.522655,292.098,500.081)">
            <path d="M-23.321,17.214C-11.125,13.537 1.306,13.716 12.705,17.214" style="fill:none;fill-rule:nonzero;stroke:rgb(82,93,125);stroke-width:1.69px;stroke-dasharray:2.26,5.07;"/>
        </g>
        <g transform="matrix(-1.73655,-0.36105,-0.36105,1.73655,165.45,434.529)">
            <path d="M-25.881,2.662C-17.217,0.808 -8.232,0.904 0.274,2.662" style="fill:none;fill-rule:nonzero;stroke:rgb(82,93,125);stroke-width:1.69px;stroke-dasharray:2.26,5.07;"/>
        </g>
        <g transform="matrix(1.77369,0,0,1.77369,275.029,658.449)">
            <path d="M0,-59.072C-1.259,-26.752 -27.437,-0.739 -59.417,-0.202C-71.984,0 -83.469,-3.487 -93.115,-9.502" style="fill:none;fill-rule:nonzero;stroke:rgb(82,93,125);stroke-width:1.69px;"/>
        </g>
        <g transform="matrix(1.77369,0,0,1.77369,71.656,439.078)">
            <path d="M0,91.747C-5.469,82.202 -8.482,71.262 -8.321,60.029C-7.855,27.618 18.634,0.672 50.967,0C50.716,7.673 50.585,15.347 50.518,23.019" style="fill:none;fill-rule:nonzero;stroke:rgb(82,93,125);stroke-width:1.69px;"/>
        </g>
        <g transform="matrix(1.77345,-0.0291766,-0.0291766,-1.77345,229.823,552.518)">
            <path d="M-0.002,0.21C8.512,0.375 17.022,0.302 25.531,0.21" style="fill:none;fill-rule:nonzero;stroke:rgb(82,93,125);stroke-width:1.69px;stroke-miterlimit:4;"/>
        </g>
        <g transform="matrix(1.77369,0,0,1.77369,230.219,555.71)">
            <path d="M0,-11.937C-8.672,-4.647 -21.446,6.5 -27.927,12.817C-36.468,12.577 -44.979,11.711 -53.387,10.652C-54.575,1.5 -55.502,-10.131 -55.856,-15.412C-46.608,-24.579 -36.764,-33.148 -27.11,-41.909C-29.481,-42.478 -31.877,-42.804 -34.241,-42.879C-37.483,-42.982 -40.799,-42.594 -43.941,-42.116C-45.474,-41.882 -46.837,-41.236 -48.249,-40.708C-63.735,-34.916 -73.506,-19.471 -72.809,-3.34C-72.045,14.307 -59.604,28.987 -40.052,29.874C-14.218,31.045 0.883,10.039 0.217,-8.982C0.182,-9.988 0.109,-10.972 0,-11.937Z" style="fill:none;fill-rule:nonzero;stroke:rgb(82,93,125);stroke-width:1.69px;stroke-linecap:butt;stroke-miterlimit:4;"/>
        </g>
        <g transform="matrix(1.33721,-1.16527,-1.16527,-1.33721,78.1477,623.184)">
            <path d="M-4.314,11.517C7.314,11.449 19.073,11.531 30.748,11.518" style="fill:none;fill-rule:nonzero;stroke:rgb(82,93,125);stroke-width:1.69px;stroke-miterlimit:4;"/>
        </g>
        <g transform="matrix(1.30004,-1.20659,-1.20659,-1.30004,121.281,661.875)">
            <path d="M-4.908,12.504C7.322,13.148 19.601,12.452 31.853,12.504" style="fill:none;fill-rule:nonzero;stroke:rgb(82,93,125);stroke-width:1.69px;stroke-miterlimit:4;"/>
        </g>
        <g transform="matrix(1.77369,0,0,1.77369,161.919,564.36)">
            <path d="M0,-26.202C3.521,-25.864 8.926,-24.631 14.26,-23.968C14.33,-19.059 15.423,-14.251 16.437,-9.472C12.563,-6.41 8.609,-3.399 4.939,0C1.28,-0.936 -2.313,-2.229 -5.946,-3.386C-6.468,-8.583 -7.593,-13.586 -8.28,-18.774C-5.702,-21.432 -2.879,-23.846 0,-26.202Z" style="fill:none;fill-rule:nonzero;stroke:rgb(82,93,125);stroke-width:1.69px;stroke-linecap:butt;stroke-miterlimit:4;"/>
        </g>
        <g transform="matrix(1.77369,0,0,1.77369,191.603,506.483)">
            <path d="M0,18.964C3.394,12.856 6.273,6.405 9.417,0C3.264,2.303 -2.751,4.708 -8.974,6.7" style="fill:none;fill-rule:nonzero;stroke:rgb(82,93,125);stroke-width:1.69px;stroke-miterlimit:4;"/>
        </g>
        <g transform="matrix(1.77369,0,0,1.77369,161.89,517.835)">
            <path d="M0,-9.273C-0.044,-8.835 -0.062,-8.39 -0.062,-7.941C-0.062,-5.773 0.361,-3.499 0.361,-1.331C0.361,-0.882 0.343,-0.437 0.299,0" style="fill:none;fill-rule:nonzero;stroke:rgb(82,93,125);stroke-width:1.69px;stroke-miterlimit:4;"/>
        </g>
        <g transform="matrix(1.77136,-0.0908002,-0.0908002,-1.77136,192.704,548.608)">
            <path d="M-0.008,0.299C3.892,0.399 7.759,-0.099 11.674,0.299" style="fill:none;fill-rule:nonzero;stroke:rgb(82,93,125);stroke-width:1.69px;stroke-miterlimit:4;"/>
        </g>
        <g transform="matrix(1.77369,0,0,1.77369,235.633,463.187)">
            <path d="M0,-14.524C-0.901,-14.912 -1.856,-15.102 -2.815,-15.106C-6.934,-15.121 -10.805,-11.723 -10.783,-7.207C-10.762,-2.328 -6.861,0.597 -2.654,0.539C1.616,0.478 5.003,-2.548 5.042,-7.129C5.067,-10.069 3.617,-11.941 2.098,-13.305C1.479,-13.861 0.683,-14.231 0,-14.524Z" style="fill:none;fill-rule:nonzero;stroke:rgb(82,93,125);stroke-width:1.69px;stroke-linecap:butt;stroke-miterlimit:4;"/>
        </g>
        <g transform="matrix(-1.6024,-0.760454,-0.760454,1.6024,230.169,489.048)">
            <path d="M8.534,-12.118C11.455,-8.219 11.346,-2.361 9.177,2.209C8.98,2.625 8.765,3.031 8.534,3.423C3.023,0.221 -3.004,-2.177 -8.453,-5.544C-5.966,-9.908 -1.263,-13.224 3.669,-14.427" style="fill:none;fill-rule:nonzero;stroke:rgb(82,93,125);stroke-width:1.69px;stroke-miterlimit:4;"/>
        </g>
        <g transform="matrix(1.77369,0,0,1.77369,234.981,520.919)">
            <path d="M0,-7.206C-1.222,-6.995 -2.708,-5.463 -2.714,-3.639C-2.722,-1.41 -0.452,0.116 1.133,0.091C3.25,0.056 4.779,-1.704 4.764,-3.667C4.747,-5.911 2.535,-7.322 0.979,-7.31C0.659,-7.308 0.355,-7.268 0,-7.206Z" style="fill:none;fill-rule:nonzero;stroke:rgb(82,93,125);stroke-width:1.69px;"/>
        </g>
        <g transform="matrix(1.77369,0,0,1.77369,244.948,470.902)">
            <path d="M0,23.632C12.855,22.408 19.188,14.598 19.188,3.573C19.188,3.081 19.174,2.588 19.145,2.095C19.11,1.497 18.547,0.898 18.547,0" style="fill:none;fill-rule:nonzero;stroke:rgb(82,93,125);stroke-width:1.69px;stroke-miterlimit:4;"/>
        </g>
        <g transform="matrix(1.77369,0,0,1.77369,269.885,468.434)">
            <path d="M0,4.384C1.535,3.02 2.972,1.559 4.312,0C5.825,1.595 7.534,3.029 9.707,3.621" style="fill:none;fill-rule:nonzero;stroke:rgb(82,93,125);stroke-width:1.69px;stroke-miterlimit:4;"/>
        </g>
    </g>
</svg>
