<?xml version="1.0" encoding="UTF-8" standalone="no"?>
<!DOCTYPE svg PUBLIC "-//W3C//DTD SVG 1.1//EN" "http://www.w3.org/Graphics/SVG/1.1/DTD/svg11.dtd">
<svg width="100%" height="100%" viewBox="0 0 1920 1080" version="1.1" xmlns="http://www.w3.org/2000/svg" xmlns:xlink="http://www.w3.org/1999/xlink" xml:space="preserve" xmlns:serif="http://www.serif.com/" style="fill-rule:evenodd;clip-rule:evenodd;stroke-linejoin:round;stroke-miterlimit:2;">
    <g transform="matrix(1,0,0,1,1352.65,464.967)">
        <path d="M0,-4.573C3.271,-5.144 6.624,-5.258 9.811,-6.179C12.229,-6.877 12.788,-10.346 10.523,-11.621C2.123,-16.348 -9.928,-13.685 -18.51,-10.71C-23.667,-8.923 -28.685,-6.756 -33.728,-4.675C-35.519,-3.935 -50.589,3.52 -50.682,-1.076C-50.719,-2.914 -53.003,-3.379 -53.983,-1.97C-56.211,1.234 -55.236,5.939 -51.974,8.075C-46.324,11.775 -38.426,8.269 -32.835,6.212C-32.642,6.141 -32.452,6.067 -32.26,5.995C-29.954,4.9 -27.791,3.782 -25.908,2.863C-17.99,-1.002 -9.014,-5.159 0,-4.573" style="fill:rgb(255,204,128);fill-rule:nonzero;"/>
    </g>
    <g transform="matrix(1,0,0,1,1311.68,488.024)">
        <path d="M0,63.933C-2.231,56.437 -3.323,48.504 3.074,42.549C7.559,38.373 10.812,33.746 13.3,28.148C13.75,27.134 14.202,26.097 14.653,25.051C14.712,25.322 14.815,25.566 14.939,25.795C14.766,26.349 14.6,26.905 14.453,27.464C13.579,30.792 18.387,32.982 20.102,29.846C20.337,29.415 20.562,28.967 20.786,28.518C21.647,28.363 22.472,27.92 23.05,27.106C23.255,26.817 23.457,26.528 23.661,26.239C25.116,26.923 26.909,26.881 28.037,25.558C28.732,24.743 29.422,23.915 30.105,23.079C31.471,23.685 33.089,23.575 34.207,22.216C34.519,21.838 34.8,21.458 35.089,21.078C36.345,21.059 37.652,20.504 38.489,19.414C40.996,16.148 43.47,11.783 39.329,8.683C37.894,7.609 36.417,7.374 34.662,7.229C32.391,7.042 30.74,6.564 29,5.634C29.001,4.959 28.885,4.313 28.581,3.715C28.525,2.928 28.044,2.279 27.41,1.859C27.511,0.66 27.59,-0.517 27.643,-1.654C27.736,-3.659 24.801,-3.937 24.237,-2.115C23.707,-0.403 23.224,1.321 22.748,3.047C22.729,3.079 22.701,3.105 22.684,3.139C22.48,3.539 22.282,3.944 22.081,4.347C23.037,0.728 23.769,-2.887 24.163,-6.421C24.24,-7.106 23.247,-7.462 22.812,-6.981C18.225,-1.907 14.902,4.464 11.41,10.312C7.855,16.269 3.6,22.512 1.161,29.032C0.138,31.765 -0.717,35.146 -1.257,38.01C-1.679,40.247 -1.687,42.617 -2.577,44.772C-3.229,46.352 -4.596,48.048 -5.4,49.583C-8.248,55.024 -9.383,60.057 -8.069,66.157C-6.94,71.395 1.548,69.135 0,63.933" style="fill:rgb(224,223,230);fill-rule:nonzero;"/>
    </g>
    <g transform="matrix(1,0,0,1,1329.13,540.214)">
        <path d="M0,8.814C2.396,10.056 4.632,9.413 7.044,8.618C8.906,8.004 10.211,5.163 8.339,3.712C8.243,3.637 8.148,3.562 8.052,3.488C8.782,1.872 7.902,-0.113 6.153,-0.61C3.928,-1.242 1.882,0.257 1.468,2.455C1.19,3.931 1.761,5.099 2.592,6.142C1.793,6.916 0.667,7.64 0,8.098C-0.241,8.264 -0.295,8.661 0,8.814" style="fill:rgb(224,223,230);fill-rule:nonzero;"/>
    </g>
    <g transform="matrix(1,0,0,1,1329.74,516.27)">
        <path d="M0,14.792C-1.556,15.715 -2.836,16.689 -3.748,17.917C-4.458,17.432 -5.654,17.669 -5.533,18.745C-5.418,19.758 -5.303,20.771 -5.188,21.785C-5.014,23.321 -2.573,24.007 -2.226,22.185C-1.37,17.695 5.864,15.65 9.451,13.866C13.886,11.659 18.297,9.363 22.804,7.304C31.157,3.487 41.465,2.069 48.947,-3.439C51.381,-5.231 50.026,-9.215 46.826,-8.468C35.652,-5.856 25.645,1.474 15.525,6.608C10.33,9.243 5.011,11.818 0,14.792" style="fill:rgb(224,223,230);fill-rule:nonzero;"/>
    </g>
    <g transform="matrix(1,0,0,1,1404.73,487.6)">
        <path d="M0,7.66C0.002,7.411 -0.012,7.162 -0.057,6.917C0.588,7.404 1.234,7.879 1.876,8.344C1.253,8.109 0.628,7.881 0,7.66M-7.859,11.787C-6.159,11.683 -4.49,11.446 -2.882,10.909C-1.88,11.294 -0.892,11.721 0.09,12.168C-2.573,11.875 -5.22,11.759 -7.859,11.787M-5.76,2.226C-5.246,2.695 -4.723,3.155 -4.193,3.608C-4.767,3.462 -5.35,3.359 -5.939,3.288C-5.834,2.951 -5.769,2.596 -5.76,2.226M-18.921,12.631C-17.927,12.435 -16.931,12.256 -15.929,12.137C-14.342,11.947 -12.731,11.917 -11.123,11.89C-13.726,12.027 -16.323,12.286 -18.921,12.631M-17.899,-0.597C-17.588,-0.209 -17.273,0.177 -16.954,0.56C-17.829,0.43 -18.702,0.285 -19.549,0.109C-18.979,-0.144 -18.414,-0.381 -17.899,-0.597M-42.999,2.967C-42.045,2.598 -41.108,2.2 -40.204,1.746C-39.255,1.27 -38.906,0.447 -38.969,-0.374C-38.849,-0.015 -38.739,0.348 -38.613,0.704C-38.489,1.053 -38.364,1.405 -38.235,1.759C-39.843,2.042 -41.431,2.458 -42.999,2.967M39.11,21.505C34.361,19.884 29.657,17.891 25.069,15.649C24.674,14.865 23.899,14.276 22.723,14.262C22.571,14.26 22.424,14.243 22.274,14.239C18.431,12.257 14.679,10.121 11.072,7.881C6.391,4.975 1.875,1.728 -2.41,-1.733C-5.134,-3.934 -7.742,-6.619 -10.594,-8.809C-13.494,-12.268 -17.06,-15.31 -21.03,-17.691C-22.133,-19.046 -23.287,-20.346 -24.56,-21.505C-29.75,-26.231 -40.649,-29.388 -47.2,-26.304C-47.296,-26.259 -47.353,-26.187 -47.412,-26.118C-47.785,-26.433 -48.254,-26.679 -48.853,-26.799C-49.929,-27.013 -51.006,-27.136 -52.082,-27.206C-61.096,-27.792 -70.073,-23.636 -77.991,-19.77C-79.874,-18.851 -82.036,-17.733 -84.342,-16.638C-93.698,-12.192 -105.443,-8.114 -110.747,-19.179C-110.968,-19.642 -111.643,-19.384 -111.66,-18.932C-112.054,-7.915 -98.725,-5.25 -90.353,-7.307C-83.871,-8.9 -77.963,-12.326 -71.916,-15.037C-64.504,-18.361 -57.848,-19.813 -49.765,-20.061C-47.607,-20.128 -46.327,-22.131 -46.402,-23.95C-46.083,-23.642 -45.754,-23.369 -45.418,-23.113C-45.579,-22.204 -45.465,-21.324 -45.265,-20.318C-45.149,-19.74 -45.001,-19.171 -44.82,-18.61C-44.73,-18.332 -44.633,-18.056 -44.526,-17.784C-44.471,-17.642 -44.184,-16.905 -44.207,-17.078C-44.057,-15.942 -43.38,-14.947 -42.457,-14.507C-41.665,-10.139 -40.697,-5.784 -39.369,-1.582C-39.909,-2.468 -40.932,-3.087 -42.121,-2.801C-45.154,-2.071 -48.037,-0.602 -50.895,0.639C-52.23,1.218 -53.571,1.786 -54.9,2.378C-56.447,3.066 -59.069,4.996 -60.821,4.683C-61.655,4.535 -62.287,5.466 -61.665,6.132C-59.457,8.495 -56.008,6.887 -53.329,6.106C-50.743,5.353 -48.051,4.677 -45.438,3.83C-47.784,4.718 -50.087,5.74 -52.344,6.72C-54.161,7.51 -52.832,10.252 -51.036,9.82C-46.105,8.636 -40.986,8.042 -36.133,6.586C-35.015,8.58 -33.594,10.216 -31.625,10.949C-31.815,11.969 -31.458,13.09 -30.453,13.593C-29.79,13.925 -29.194,14.316 -28.576,14.688C-28.734,15.239 -28.398,15.97 -27.701,15.963C-16,15.839 -4.201,15.7 7.069,19.261C17.308,22.497 26.795,27.697 37.006,31.011C55.607,37.048 76.976,35.923 95.27,28.998L95.27,14.523C88.708,17.999 82.165,21.384 74.684,23.285C63.021,26.249 50.475,25.384 39.11,21.505" style="fill:rgb(224,223,230);fill-rule:nonzero;"/>
    </g>
    <g transform="matrix(1,0,0,1,1170.76,531.534)">
        <path d="M0,-4.434C-0.503,-4.14 -0.917,-3.52 -0.871,-2.916C-0.778,-1.718 -0.226,-0.833 0.864,-0.275C1.989,0.3 3.267,0.335 4.333,-0.413C5.201,-1.022 5.626,-2.028 5.197,-3.047C4.803,-3.979 3.859,-4.443 2.882,-4.293C2.823,-4.303 2.625,-4.302 2.589,-4.301C2.513,-4.3 2.353,-4.311 2.216,-4.31C2.057,-4.387 1.833,-4.438 1.7,-4.482C1.656,-4.496 1.604,-4.518 1.57,-4.533C1.606,-4.516 1.669,-4.486 1.774,-4.434C1.199,-4.718 0.572,-4.769 0,-4.434" style="fill:rgb(224,223,230);fill-rule:nonzero;"/>
    </g>
    <g transform="matrix(1,0,0,1,1203.91,491.261)">
        <path d="M0,8.861C1.927,9.204 3.563,8.116 5.385,7.619C7.37,7.077 9.79,7.371 11.232,5.715C12.48,4.283 12.372,2.064 10.629,1.039C8.281,-0.343 5.608,1.061 3.412,2.197C1.635,3.115 -0.883,4.424 -1.316,6.543C-1.505,7.468 -1.056,8.673 0,8.861" style="fill:rgb(224,223,230);fill-rule:nonzero;"/>
    </g>
    <g transform="matrix(1,0,0,1,1232.32,503.616)">
        <path d="M0,10.863C5.037,15.204 12.678,21.127 19.64,19.624C22.729,18.957 23.739,14.674 21.503,12.568C18.999,10.21 16.02,9.687 13.018,8.132C9.94,6.536 7.093,4.482 4.285,2.46C-1.69,-1.84 -7.1,-6.397 -13.776,-9.627C-15.092,-10.264 -16.752,-8.919 -15.891,-7.513C-11.656,-0.603 -6.14,5.571 0,10.863" style="fill:rgb(224,223,230);fill-rule:nonzero;"/>
    </g>
    <g transform="matrix(1,0,0,1,1321.44,405.671)">
        <path d="M0,18.522C0.54,19.219 0.372,20.125 0.787,20.881C1.123,21.494 1.757,22.024 2.3,22.448C3.223,23.17 4.308,23.636 5.449,23.87C5.438,23.905 5.423,23.935 5.412,23.97C4.457,27.008 7.566,29.995 10.559,29.116C17.477,27.086 22.019,17.864 24.051,11.423C26.255,4.438 26.66,-3.858 24.373,-10.873C24.195,-11.419 23.364,-11.473 23.21,-10.873C21.494,-4.167 19.595,2.013 16.082,8.063C15.133,9.699 14.133,11.312 13.072,12.883C12.51,12.77 11.912,12.77 11.308,12.915C9.278,13.399 7.98,14.765 6.143,15.616C5.275,16.019 4.357,16.263 3.462,16.596C2.796,16.844 1.244,17.809 0.731,17.575C0.087,17.282 -0.422,17.977 0,18.522" style="fill:rgb(224,223,230);fill-rule:nonzero;"/>
    </g>
    <g transform="matrix(1,0,0,1,1291.56,405.145)">
        <path d="M0,-13.622C4.023,-12.484 8.229,-12.13 12.244,-10.944C17.495,-9.393 19.361,-7.071 21.16,-2.197C22.003,0.087 24.228,0.93 26.084,0.449C26.052,0.564 26.016,0.676 25.984,0.792C25.547,2.389 27.836,3.386 28.671,1.925C30.627,-1.497 30.463,-5.845 29.809,-9.613C29.687,-10.318 28.667,-10.093 28.625,-9.453C28.579,-8.764 28.481,-8.101 28.363,-7.449C25.006,-17.008 7.79,-15.967 0,-14.785C-0.616,-14.692 -0.53,-13.772 0,-13.622" style="fill:rgb(224,223,230);fill-rule:nonzero;"/>
    </g>
    <g transform="matrix(1,0,0,1,1307.17,459.335)">
        <path d="M0,7.284C0.077,7.296 0.154,7.302 0.23,7.302C0.958,7.302 1.597,6.771 1.711,6.03C1.947,4.499 2.066,3.056 2.066,1.741C2.066,1.118 2.045,0.536 2.009,-0.018C2.008,0.585 1.646,1.152 1.05,1.381C0.401,1.63 -0.27,1.882 -0.951,2.135C-0.971,3.197 -1.064,4.341 -1.254,5.573C-1.38,6.392 -0.818,7.158 0,7.284" style="fill:rgb(82,93,125);fill-rule:nonzero;"/>
    </g>
    <g transform="matrix(1,0,0,1,1285.37,389.889)">
        <path d="M0,14.426L1.209,14.007C1.651,13.853 2.099,13.699 2.547,13.545C3.609,8.871 4.981,4.286 6.647,-0.149C5.668,-0.349 4.692,-0.609 3.725,-0.941C1.763,4.323 0.206,9.795 -0.927,15.367C-0.783,14.942 -0.457,14.584 0,14.426" style="fill:rgb(82,93,125);fill-rule:nonzero;"/>
    </g>
    <g transform="matrix(1,0,0,1,1309.08,405.913)">
        <path d="M0,52.865C0.032,52.949 0.053,53.034 0.069,53.119C-0.511,45.651 -4.318,44.509 -7.715,43.508C-12.154,42.198 -17.187,40.715 -17.213,22.103C-17.214,21.288 -17.865,20.624 -18.68,20.606L-20.979,20.556C-21.938,20.536 -22.899,20.515 -23.858,20.494C-23.811,13.969 -23.142,7.396 -21.895,0.949L-22.729,1.238C-22.891,1.294 -23.056,1.321 -23.218,1.321C-23.84,1.321 -24.422,0.93 -24.636,0.309C-24.7,0.123 -24.723,-0.068 -24.714,-0.254C-26.127,6.83 -26.861,14.069 -26.861,21.242L-26.859,21.966C-26.856,22.777 -26.207,23.439 -25.396,23.459C-23.946,23.494 -22.494,23.525 -21.042,23.555L-20.2,23.573C-19.912,41.552 -14.757,44.559 -8.563,46.385C-5.636,47.248 -3.559,47.877 -3.001,52.405C-2.643,52.27 -2.286,52.134 -1.937,52.001C-1.165,51.706 -0.296,52.091 0,52.865" style="fill:rgb(82,93,125);fill-rule:nonzero;"/>
    </g>
    <g transform="matrix(1,0,0,1,1278.22,459.288)">
        <path d="M0,-85.826C3.182,-84.895 7.004,-84.468 11.925,-84.468C19.667,-84.468 27.011,-85.924 33.49,-87.208C38.622,-88.225 43.054,-89.103 46.734,-89.103C60.496,-89.103 68.946,-71.984 68.946,-59.71C68.946,-38.366 60.674,-31.056 53.376,-24.607C52.943,-24.225 52.511,-23.843 52.083,-23.461C51.23,-25.814 50.868,-27.585 50.868,-29.282C50.868,-33.741 53.105,-37.826 54.903,-41.108C56.246,-43.558 57.306,-45.493 57.306,-47.221C57.306,-49.343 56.523,-52.903 51.286,-52.903C46.429,-52.903 43.546,-48.858 41.304,-44.641C40.775,-44.929 40.232,-45.215 39.67,-45.504C40.801,-51.417 41.491,-57.406 41.491,-59.789C41.491,-64.257 40.488,-67.395 38.424,-69.383C35.293,-72.398 30.34,-72.212 25.098,-72.017C16.009,-71.678 5.788,-71.293 0,-85.826M25.21,-69.019C29.995,-69.2 34.131,-69.353 36.343,-67.222C37.788,-65.83 38.491,-63.398 38.491,-59.789C38.491,-57.705 37.803,-51.397 36.509,-44.974C36.375,-44.309 36.704,-43.638 37.311,-43.335C38.711,-42.638 39.978,-41.964 41.183,-41.276C41.539,-41.072 41.966,-41.022 42.359,-41.142C42.754,-41.261 43.082,-41.536 43.267,-41.904C45.684,-46.705 47.972,-49.903 51.286,-49.903C53.824,-49.903 54.306,-48.96 54.306,-47.221C54.306,-46.261 53.318,-44.458 52.272,-42.549C50.311,-38.967 47.868,-34.509 47.868,-29.282C47.868,-26.462 48.71,-23.775 49.707,-21.264C45.145,-16.842 41.5,-11.714 41.5,-2.416C41.5,0.055 41.79,2.587 42.363,5.109C42.521,5.804 43.14,6.277 43.825,6.277C43.935,6.277 44.047,6.264 44.158,6.239C44.967,6.055 45.473,5.252 45.289,4.444C44.766,2.14 44.5,-0.168 44.5,-2.416C44.5,-3.136 44.53,-3.82 44.577,-4.485C44.292,-4.369 44.007,-4.253 43.723,-4.136C42.96,-3.821 42.08,-4.188 41.767,-4.955C41.452,-5.722 41.819,-6.598 42.586,-6.912C43.419,-7.254 44.246,-7.59 45.068,-7.921C46.536,-14.546 50.691,-18.231 55.362,-22.359C63.136,-29.228 71.946,-37.013 71.946,-59.71C71.946,-66.959 69.439,-74.951 65.241,-81.088C60.383,-88.191 53.81,-92.103 46.734,-92.103C42.76,-92.103 38.193,-91.199 32.907,-90.151C26.562,-88.893 19.372,-87.468 11.925,-87.468C5.743,-87.468 1.494,-88.159 -1.854,-89.71C-2.392,-89.959 -3.028,-89.868 -3.475,-89.475C-3.921,-89.083 -4.094,-88.464 -3.915,-87.898C-0.511,-77.092 5,-72.358 10.876,-70.34C11.843,-70.008 12.82,-69.748 13.799,-69.548C17.736,-68.745 21.708,-68.889 25.21,-69.019" style="fill:rgb(82,93,125);fill-rule:nonzero;"/>
    </g>
    <g transform="matrix(1,0,0,1,1311.04,437.964)">
        <path d="M0,-8.089C-0.648,-8.606 -1.592,-8.501 -2.108,-7.855C-4.84,-4.441 -7.538,-2.483 -9.512,-2.483C-10.239,-2.483 -11.017,-2.624 -11.84,-2.774C-12.544,-2.902 -13.272,-3.035 -14.016,-3.084C-14.834,-3.142 -15.558,-2.514 -15.612,-1.687C-15.667,-0.86 -15.041,-0.146 -14.215,-0.091C-13.642,-0.053 -13.027,0.059 -12.377,0.178C-11.459,0.345 -10.511,0.517 -9.512,0.517C-5.754,0.517 -2.138,-3.016 0.233,-5.981C0.751,-6.628 0.646,-7.571 0,-8.089" style="fill:rgb(82,93,125);fill-rule:nonzero;"/>
    </g>
    <g transform="matrix(1,0,0,1,1285.86,401.256)">
        <path d="M0,5.978C0.162,5.978 0.327,5.951 0.489,5.895L1.322,5.607L1.704,5.475C4.258,4.587 6.671,3.749 9.205,3.115C10.009,2.914 10.497,2.1 10.296,1.296C10.096,0.493 9.281,0 8.477,0.205C6.283,0.753 4.144,1.46 2.057,2.179C1.61,2.333 1.162,2.487 0.72,2.641L-0.489,3.06C-0.946,3.217 -1.272,3.576 -1.416,4.001C-1.46,4.13 -1.489,4.265 -1.496,4.404C-1.505,4.59 -1.482,4.78 -1.418,4.967C-1.204,5.588 -0.622,5.978 0,5.978" style="fill:rgb(82,93,125);fill-rule:nonzero;"/>
    </g>
    <g transform="matrix(1,0,0,1,1310.36,403.195)">
        <path d="M0,-1.906C-3.055,-2.437 -6.793,-2.979 -10.684,-2.815C-11.512,-2.78 -12.154,-2.081 -12.12,-1.254C-12.085,-0.425 -11.387,0.217 -10.559,0.182C-6.933,0.034 -3.417,0.545 -0.514,1.05C-0.427,1.065 -0.341,1.073 -0.255,1.073C0.461,1.072 1.095,0.558 1.221,-0.171C1.363,-0.987 0.816,-1.764 0,-1.906" style="fill:rgb(82,93,125);fill-rule:nonzero;"/>
    </g>
    <g transform="matrix(1,0,0,1,1291.76,413.34)">
        <path d="M0,0.367L-0.634,-0.262C-0.627,-0.273 -0.62,-0.281 -0.614,-0.29C-0.597,-0.291 -0.576,-0.292 -0.552,-0.292C-0.126,-0.292 -0.01,0.106 0.023,0.293C0.017,0.319 0.008,0.344 0,0.367M-0.088,0.551C-0.202,0.605 -0.374,0.656 -0.604,0.656L-0.613,0.656C-0.663,0.626 -0.784,0.468 -0.784,0.254C-0.784,0.01 -0.7,-0.166 -0.636,-0.26L-0.004,0.376C-0.03,0.446 -0.061,0.505 -0.088,0.551M-0.542,-2.341C-1.096,-2.341 -1.601,-2.118 -2.045,-1.677C-2.047,-1.675 -2.055,-1.673 -2.057,-1.671C-2.296,-1.476 -2.931,-0.961 -2.938,0.015C-2.955,0.151 -2.968,0.287 -2.968,0.423C-2.968,1.79 -1.719,2.708 -0.552,2.708C0.577,2.708 2.216,1.752 2.216,0.254C2.216,-1.299 0.79,-2.341 -0.542,-2.341" style="fill:rgb(82,93,125);fill-rule:nonzero;"/>
    </g>
    <g transform="matrix(1,0,0,1,1302.55,411.551)">
        <path d="M0,0.946C-0.05,0.916 -0.171,0.758 -0.171,0.544C-0.171,0.3 -0.087,0.124 -0.022,0.03L0.609,0.665C0.582,0.736 0.552,0.795 0.524,0.842C0.41,0.895 0.238,0.946 0.01,0.946L0,0.946ZM-0.001,-0C0.017,-0.001 0.037,-0.002 0.062,-0.002C0.487,-0.002 0.603,0.395 0.637,0.581C0.629,0.607 0.621,0.632 0.612,0.656L-0.021,0.028C-0.014,0.017 -0.008,0.009 -0.001,-0M2.829,0.544C2.829,-1.009 1.403,-2.052 0.071,-2.052C-0.482,-2.052 -0.987,-1.828 -1.432,-1.387C-1.434,-1.386 -1.44,-1.383 -1.443,-1.381C-1.683,-1.187 -2.318,-0.672 -2.325,0.31C-2.342,0.444 -2.354,0.579 -2.354,0.713C-2.354,2.08 -1.105,2.998 0.062,2.998C1.19,2.998 2.829,2.042 2.829,0.544" style="fill:rgb(82,93,125);fill-rule:nonzero;"/>
    </g>
    <g transform="matrix(1,0,0,1,1269.53,463.728)">
        <path d="M0,13.414C0,3.326 9.774,2.541 12.77,2.541C13.312,2.541 13.855,2.549 14.401,2.557C14.968,2.565 15.536,2.574 16.106,2.574C18.537,2.574 21.157,2.218 23.823,1.653C23.822,1.596 23.814,1.542 23.814,1.485C23.814,0.869 23.854,0.226 23.932,-0.425C24.03,-1.249 24.779,-1.836 25.599,-1.737C26.421,-1.64 27.009,-0.893 26.91,-0.071C26.869,0.274 26.863,0.6 26.849,0.931C30.236,0.037 33.609,-1.115 36.691,-2.259C37.372,-2.511 38.042,-2.764 38.691,-3.012C39.287,-3.241 39.65,-3.809 39.651,-4.411C39.651,-4.506 39.642,-4.601 39.624,-4.696C39.607,-4.781 39.587,-4.866 39.555,-4.95C39.259,-5.724 38.39,-6.108 37.617,-5.814C37.268,-5.68 36.912,-5.545 36.553,-5.41C30.184,-3.007 22.36,-0.426 16.106,-0.426C15.55,-0.426 14.996,-0.435 14.445,-0.442C13.884,-0.451 13.325,-0.459 12.77,-0.459C1.143,-0.459 -3,6.707 -3,13.414C-3,15.271 -2.643,17.238 -1.924,19.522C-1.22,18.323 -0.49,17.135 0.25,15.95C0.086,15.055 0,14.216 0,13.414" style="fill:rgb(82,93,125);fill-rule:nonzero;"/>
    </g>
    <g transform="matrix(1,0,0,1,1390.58,485.322)">
        <path d="M0,-13.276C-16.663,-27.327 -31.055,-39.463 -47.871,-39.463C-52.867,-39.463 -59.837,-36.961 -67.294,-33.956C-68.117,-33.624 -68.944,-33.288 -69.776,-32.947C-70.543,-32.632 -70.91,-31.756 -70.596,-30.99C-70.282,-30.223 -69.402,-29.856 -68.64,-30.171C-68.355,-30.287 -68.07,-30.403 -67.785,-30.519C-60.289,-33.577 -52.685,-36.463 -47.871,-36.463C-39.207,-36.463 -31.063,-32.871 -22.785,-27.362C-20.718,-27.13 -18.655,-26.855 -16.609,-26.492C-15.794,-26.348 -15.249,-25.569 -15.395,-24.754C-15.539,-23.938 -16.313,-23.393 -17.133,-23.538C-17.241,-23.557 -17.35,-23.57 -17.458,-23.589C-12.43,-19.831 -7.303,-15.511 -1.934,-10.983C18.729,6.44 42.147,26.187 75.712,26.187C89.248,26.187 99.17,23.987 109.416,19.055L109.416,15.692C99.057,20.885 89.233,23.187 75.712,23.187C43.243,23.187 20.27,3.815 0,-13.276" style="fill:rgb(82,93,125);fill-rule:nonzero;"/>
    </g>
    <g transform="matrix(1,0,0,1,1249.17,473.615)">
        <path d="M0,75.011C0.593,74.918 1.194,74.839 1.79,74.75C2.466,50.128 11.447,24.172 27.296,1.31C27.769,0.63 27.599,-0.305 26.918,-0.777C26.237,-1.249 25.303,-1.081 24.831,-0.399C23.357,1.727 21.963,3.888 20.606,6.063C19.867,7.249 19.136,8.437 18.432,9.635C15.168,15.192 12.293,20.884 9.81,26.657C10.209,26.754 10.593,26.853 10.998,26.948C11.805,27.138 12.305,27.946 12.114,28.753C11.924,29.557 11.119,30.058 10.311,29.868C9.74,29.734 9.197,29.594 8.639,29.458C6.175,35.525 4.136,41.668 2.577,47.829C3.144,48.095 3.687,48.345 4.187,48.569C4.942,48.907 5.281,49.794 4.943,50.55C4.694,51.108 4.147,51.439 3.573,51.439C3.369,51.439 3.161,51.397 2.962,51.308C2.622,51.156 2.251,50.985 1.88,50.814C-0.071,59.344 -1.133,67.88 -1.244,76.26C-1.145,75.635 -0.66,75.114 0,75.011" style="fill:rgb(82,93,125);fill-rule:nonzero;"/>
    </g>
    <g transform="matrix(1,0,0,1,1249.4,566.803)">
        <path d="M0,-15.196C-0.726,-15.196 -1.364,-15.724 -1.48,-16.464C-1.483,-16.478 -1.481,-16.491 -1.483,-16.505C-1.486,-16.155 -1.506,-15.803 -1.506,-15.454C-1.506,-10.246 -1.14,-5.039 -0.417,0.021C-0.31,0.769 0.332,1.309 1.066,1.309C1.137,1.309 1.209,1.304 1.28,1.294C2.101,1.177 2.671,0.417 2.554,-0.403C1.853,-5.305 1.498,-10.35 1.495,-15.398C1.076,-15.335 0.652,-15.28 0.233,-15.214C0.155,-15.202 0.077,-15.196 0,-15.196" style="fill:rgb(82,93,125);fill-rule:nonzero;"/>
    </g>
    <g transform="matrix(1,0,0,1,1306.6,457.334)">
        <path d="M0,18.931C10.434,18.931 15.511,15.448 20.886,11.761C26.855,7.665 33.025,3.44 47.835,3.024C47.732,2.644 47.629,2.268 47.526,1.881C47.314,1.08 47.791,0.259 48.592,0.047C48.691,0.021 48.79,0.006 48.889,0C32.364,0.252 25.373,5.044 19.188,9.287C13.991,12.852 9.503,15.931 0,15.931C-2.407,15.931 -10.263,15.35 -10.263,7.879C-10.263,7.702 -10.237,7.509 -10.229,7.326C-10.214,6.994 -10.208,6.668 -10.167,6.324C-10.068,5.501 -10.656,4.755 -11.479,4.657C-12.298,4.558 -13.047,5.146 -13.146,5.969C-13.224,6.62 -13.263,7.263 -13.263,7.879C-13.263,7.937 -13.255,7.991 -13.255,8.048C-13.17,14.764 -8.112,18.931 0,18.931" style="fill:rgb(82,93,125);fill-rule:nonzero;"/>
    </g>
    <g transform="matrix(1,0,0,1,1355.51,461.895)">
        <path d="M0,-4.562C0.694,-4.596 1.337,-4.146 1.522,-3.449C1.692,-2.81 1.863,-2.181 2.033,-1.559C7.236,-1.521 12.472,-1.056 17.62,-0.161C17.727,-0.143 17.837,-0.13 17.944,-0.111C18.764,0.034 19.538,-0.511 19.683,-1.326C19.828,-2.142 19.283,-2.921 18.468,-3.065C16.422,-3.428 14.36,-3.703 12.292,-3.935C8.655,-4.344 4.997,-4.574 1.357,-4.574C0.896,-4.574 0.447,-4.569 0,-4.562" style="fill:rgb(82,93,125);fill-rule:nonzero;"/>
    </g>
    <g transform="matrix(1,0,0,1,1204.41,479.726)">
        <path d="M0,28.141C-0.194,28.224 -0.396,28.264 -0.594,28.264C-1.175,28.264 -1.728,27.925 -1.972,27.358C-2.094,27.075 -2.202,26.778 -2.322,26.492C-2.632,26.732 -3.015,26.863 -3.407,26.849C-7.494,26.698 -11.692,26.292 -15.885,25.641C-17.298,25.422 -18.438,24.333 -18.725,22.931C-18.928,21.933 -19.11,20.933 -19.283,19.932C-19.906,19.867 -20.521,19.796 -21.118,19.715C-21.938,19.603 -22.514,18.848 -22.402,18.027C-22.291,17.205 -21.543,16.628 -20.714,16.742C-20.401,16.785 -20.081,16.823 -19.761,16.861C-20.033,14.923 -20.252,12.984 -20.406,11.048C-21.002,10.978 -21.59,10.904 -22.17,10.823C-22.99,10.709 -23.562,9.951 -23.447,9.13C-23.333,8.31 -22.579,7.734 -21.754,7.852C-21.374,7.906 -20.986,7.953 -20.598,8.001C-20.667,6.563 -20.709,5.127 -20.712,3.697C-20.714,3.047 -20.444,2.418 -19.973,1.971C-19.502,1.525 -18.877,1.29 -18.211,1.327C-16.162,1.445 -14.072,1.638 -12.052,1.824C-10.767,1.943 -9.455,2.057 -8.137,2.161C-8.197,1.555 -8.267,0.956 -8.316,0.343C-8.353,-0.109 -8.181,-0.527 -7.885,-0.826C-9.191,-0.929 -10.498,-1.045 -11.775,-1.163C-13.822,-1.352 -15.938,-1.547 -18.039,-1.668C-19.522,-1.755 -20.968,-1.22 -22.037,-0.207C-23.105,0.806 -23.716,2.232 -23.712,3.704C-23.697,10.266 -23.008,16.936 -21.664,23.53C-21.129,26.156 -18.991,28.196 -16.344,28.606C-12.037,29.274 -7.722,29.691 -3.519,29.847C-2.143,29.896 -0.802,29.335 0.128,28.304C0.325,28.086 0.493,27.85 0.644,27.605C0.489,27.833 0.272,28.023 0,28.141" style="fill:rgb(82,93,125);fill-rule:nonzero;"/>
    </g>
    <g transform="matrix(1,0,0,1,1199.09,483.116)">
        <path d="M0,-3.289C0.062,-2.529 0.145,-1.785 0.222,-1.037C0.697,-1.041 1.158,-1.279 1.435,-1.679C1.729,-2.109 1.779,-2.661 1.567,-3.138C0.169,-6.282 -1.262,-10.038 -1.262,-14.06C-1.262,-16.408 -0.602,-18.388 0.701,-19.947C1.13,-20.459 1.804,-20.707 2.469,-20.593C3.129,-20.478 3.684,-20.018 3.917,-19.389C9.416,-4.551 19.916,10.459 58.721,19.956C59.279,20.093 59.822,20.233 60.393,20.367C61.201,20.557 62.006,20.056 62.196,19.252C62.387,18.445 61.887,17.637 61.08,17.447C60.675,17.352 60.291,17.252 59.892,17.156C27.424,9.292 15.382,-2.363 9.317,-14.436C8.64,-14.327 7.986,-14.217 7.359,-14.108C7.272,-14.093 7.187,-14.086 7.101,-14.086C6.385,-14.086 5.752,-14.6 5.625,-15.329C5.482,-16.145 6.029,-16.922 6.846,-17.064C7.217,-17.129 7.614,-17.194 8.002,-17.258C7.546,-18.315 7.122,-19.373 6.73,-20.431C6.128,-22.059 4.69,-23.254 2.979,-23.549C1.259,-23.846 -0.49,-23.2 -1.602,-21.87C-2.98,-20.22 -3.82,-18.253 -4.125,-16.01C-3.785,-15.976 -3.445,-15.932 -3.104,-15.914C-2.277,-15.869 -1.644,-15.162 -1.688,-14.334C-1.732,-13.535 -2.395,-12.916 -3.186,-12.916C-3.213,-12.916 -3.24,-12.916 -3.269,-12.918C-3.588,-12.936 -3.907,-12.98 -4.227,-13.008C-4.068,-9.911 -3.236,-7.039 -2.238,-4.466C-2.052,-4.573 -1.844,-4.645 -1.616,-4.663C-0.795,-4.727 -0.066,-4.115 0,-3.289" style="fill:rgb(82,93,125);fill-rule:nonzero;"/>
    </g>
    <g transform="matrix(1,0,0,1,1252.74,495.799)">
        <path d="M0,29.254C0.574,29.254 1.121,28.923 1.37,28.365C1.708,27.609 1.369,26.722 0.613,26.384C0.113,26.16 -0.43,25.91 -0.996,25.644C-8.476,22.132 -21.572,14.825 -35.039,1.84C-36.758,0.181 -39.407,0 -41.334,1.407C-44.037,3.382 -46.583,4.906 -49.11,6.076C-48.62,7.446 -48.108,8.795 -47.547,10.096C-47.347,10.558 -47.401,11.064 -47.643,11.465C-47.109,10.56 -46.89,9.499 -47.04,8.44L-47.043,8.42C-44.602,7.223 -42.145,5.714 -39.564,3.83C-38.815,3.283 -37.789,3.356 -37.121,3.999C-22.996,17.618 -9.25,25.139 -1.693,28.629C-1.322,28.8 -0.951,28.971 -0.611,29.123C-0.412,29.212 -0.204,29.254 0,29.254" style="fill:rgb(82,93,125);fill-rule:nonzero;"/>
    </g>
    <g transform="matrix(1,0,0,1,1205.2,480.483)">
        <path d="M0,25.412C-0.561,24.112 -1.073,22.763 -1.563,21.392C-3.698,15.414 -5.147,8.783 -5.886,1.596C-5.964,0.847 -6.047,0.104 -6.108,-0.656C-6.175,-1.483 -6.903,-2.095 -7.725,-2.03C-7.952,-2.012 -8.161,-1.94 -8.346,-1.834C-8.466,-1.765 -8.572,-1.68 -8.667,-1.584C-8.963,-1.284 -9.135,-0.867 -9.099,-0.414C-9.049,0.199 -8.979,0.797 -8.919,1.403C-8.7,3.636 -8.417,5.821 -8.066,7.951C-7.481,7.95 -6.898,7.947 -6.313,7.942C-5.471,7.942 -4.808,8.601 -4.801,9.429C-4.794,10.258 -5.459,10.935 -6.288,10.942C-6.701,10.946 -7.115,10.947 -7.528,10.948C-7.145,12.873 -6.704,14.748 -6.211,16.578C-5.569,16.566 -4.927,16.555 -4.286,16.541C-3.506,16.525 -2.772,17.179 -2.754,18.008C-2.736,18.836 -3.394,19.522 -4.222,19.54C-4.594,19.548 -4.967,19.554 -5.339,19.561C-4.673,21.692 -3.928,23.751 -3.104,25.734C-2.985,26.021 -2.876,26.317 -2.754,26.6C-2.51,27.167 -1.957,27.507 -1.376,27.507C-1.178,27.507 -0.977,27.467 -0.782,27.384C-0.51,27.266 -0.293,27.076 -0.139,26.847C-0.124,26.825 -0.11,26.803 -0.096,26.781C0.146,26.38 0.199,25.874 0,25.412" style="fill:rgb(82,93,125);fill-rule:nonzero;"/>
    </g>
    <g transform="matrix(1,0,0,1,1184.65,499.873)">
        <path d="M0,-3.286C-0.32,-3.324 -0.64,-3.362 -0.953,-3.405C-1.782,-3.519 -2.53,-2.942 -2.641,-2.12C-2.753,-1.299 -2.177,-0.544 -1.357,-0.432C-0.76,-0.351 -0.145,-0.281 0.478,-0.215C3.341,0.087 6.503,0.233 10.276,0.233C11.919,0.233 13.563,0.205 15.204,0.172C15.576,0.164 15.949,0.158 16.322,0.15C17.15,0.132 17.807,-0.554 17.789,-1.382C17.771,-2.211 17.037,-2.865 16.257,-2.849C15.617,-2.835 14.974,-2.824 14.333,-2.812C12.981,-2.787 11.628,-2.767 10.276,-2.767C6.255,-2.767 2.96,-2.934 0,-3.286" style="fill:rgb(82,93,125);fill-rule:nonzero;"/>
    </g>
    <g transform="matrix(1,0,0,1,1183.81,491.167)">
        <path d="M0,-3.44C-0.387,-3.488 -0.775,-3.536 -1.156,-3.589C-1.981,-3.707 -2.735,-3.131 -2.849,-2.311C-2.964,-1.491 -2.392,-0.732 -1.572,-0.618C-0.992,-0.537 -0.403,-0.463 0.192,-0.393C4.034,0.055 8.23,0.267 13.232,0.267C13.439,0.267 13.646,0.265 13.853,0.264C14.266,0.263 14.679,0.262 15.093,0.258C15.922,0.251 16.587,-0.426 16.58,-1.255C16.573,-2.083 15.91,-2.742 15.067,-2.742C14.482,-2.737 13.899,-2.734 13.314,-2.733L13.232,-2.733C8.109,-2.733 3.87,-2.96 0,-3.44" style="fill:rgb(82,93,125);fill-rule:nonzero;"/>
    </g>
    <g transform="matrix(1,0,0,1,1365.82,492.615)">
        <path d="M0,-1.471C-0.437,-2.352 -0.875,-3.262 -1.316,-4.201L-3.699,-3.448C-7.585,-2.221 -11.552,-0.964 -15.513,0.335C-14.74,0.103 -13.918,0.524 -13.662,1.294L-13.183,2.73C-9.701,1.596 -6.217,0.493 -2.797,-0.587L0,-1.471Z" style="fill:rgb(82,93,125);fill-rule:nonzero;"/>
    </g>
    <g transform="matrix(1,0,0,1,1338.48,521.414)">
        <path d="M0,-39.28C-0.242,-39.829 -0.773,-40.156 -1.387,-40.175C-1.986,-40.169 -2.524,-39.806 -2.756,-39.253C-8.011,-26.687 -12.142,-13.181 -15.049,0.895C-13.865,-0.007 -12.652,-0.901 -11.404,-1.787C-8.853,-13.293 -5.473,-24.386 -1.312,-34.851C0.565,-30.678 2.226,-27.163 3.827,-23.967C4.163,-23.293 4.951,-22.976 5.661,-23.222C7.529,-23.873 9.415,-24.507 11.305,-25.134L10.831,-26.556C10.574,-27.328 10.981,-28.159 11.741,-28.436C9.796,-27.798 7.854,-27.152 5.924,-26.488C4.124,-30.135 2.225,-34.239 0,-39.28" style="fill:rgb(82,93,125);fill-rule:nonzero;"/>
    </g>
    <g transform="matrix(1,0,0,1,1318.27,577.381)">
        <path d="M0,-9.463C-0.073,-6.844 -0.109,-4.166 -0.109,-1.5C-0.109,-0.672 0.562,0 1.391,0C2.219,0 2.891,-0.672 2.891,-1.5C2.891,-4.07 2.927,-6.65 2.994,-9.178C2.717,-9.145 2.438,-9.126 2.159,-9.126C1.43,-9.126 0.702,-9.241 0,-9.463" style="fill:rgb(82,93,125);fill-rule:nonzero;"/>
    </g>
    <g transform="matrix(1,0,0,1,1339.03,532.367)">
        <path d="M0,-3.762C0.109,-3.876 0.24,-3.949 0.371,-4.021C-4.437,-1.702 -9.133,0.813 -13.672,3.572C-14.229,3.912 -14.504,4.573 -14.351,5.208C-13.47,8.836 -11.687,12.234 -9.192,15.034C-8.778,15.5 -8.118,15.659 -7.538,15.439C-6.957,15.217 -6.572,14.659 -6.572,14.037L-6.571,9.701C-4.983,9.702 -3.411,9.731 -1.823,9.761L-0.701,9.782C-0.023,9.795 0.527,10.356 0.527,11.034C0.527,13.728 0.596,16.459 0.663,19.099L0.705,20.828C0.732,21.926 0.155,22.948 -0.8,23.494L-2.562,24.502C-3.482,25.029 -4.413,25.561 -5.344,26.093C-5.148,26.286 -4.963,26.495 -4.761,26.677C-4.146,27.231 -4.096,28.179 -4.649,28.795C-4.946,29.124 -5.354,29.292 -5.766,29.292C-6.123,29.292 -6.481,29.165 -6.769,28.906C-7.217,28.503 -7.635,28.068 -8.049,27.63C-9.463,28.433 -10.882,29.232 -12.306,30.024C-12.13,30.187 -11.959,30.351 -11.777,30.511C-11.156,31.06 -11.097,32.008 -11.645,32.629C-11.941,32.965 -12.354,33.136 -12.771,33.136C-13.123,33.136 -13.477,33.013 -13.762,32.761C-14.214,32.362 -14.642,31.954 -15.059,31.541C-15.573,31.823 -16.087,32.109 -16.601,32.386C-17.604,32.928 -18.798,33.038 -19.882,32.685C-20.965,32.333 -21.867,31.542 -22.357,30.514C-24.263,26.524 -24.937,19.859 -24.937,5.042C-24.937,3.055 -24.104,1.138 -22.648,-0.219C-12.825,-9.382 -0.167,-17.684 16.05,-25.601C16.726,-25.931 17.053,-26.71 16.814,-27.424L13.614,-37.023L13.136,-38.458C12.88,-39.228 12.058,-39.649 11.285,-39.417C11.27,-39.412 11.254,-39.411 11.238,-39.406C11.225,-39.402 11.213,-39.394 11.2,-39.389C10.44,-39.112 10.033,-38.281 10.29,-37.509L10.764,-36.087L13.555,-27.718C3.837,-22.912 -4.607,-17.952 -11.945,-12.739C-13.193,-11.853 -14.406,-10.959 -15.59,-10.058C-18.855,-7.572 -21.891,-5.029 -24.695,-2.413C-26.756,-0.491 -27.937,2.226 -27.937,5.042C-27.937,7.993 -27.911,10.624 -27.854,12.986C-27.316,13.009 -26.778,13.019 -26.241,13.045C-25.413,13.085 -24.775,13.788 -24.815,14.615C-24.856,15.443 -25.554,16.091 -26.386,16.041C-26.841,16.019 -27.299,16.011 -27.755,15.991C-27.665,18.225 -27.537,20.184 -27.368,21.913C-26.864,21.869 -26.356,21.836 -25.854,21.789C-25.05,21.711 -24.298,22.319 -24.222,23.144C-24.145,23.969 -24.751,24.7 -25.576,24.777C-26.05,24.82 -26.527,24.852 -27.001,24.893C-26.552,27.832 -25.924,30.006 -25.064,31.806C-24.222,33.572 -22.671,34.933 -20.81,35.538C-20.792,35.544 -20.773,35.545 -20.756,35.551C-20.053,35.773 -19.325,35.887 -18.597,35.887C-18.318,35.887 -18.039,35.868 -17.762,35.836C-16.863,35.732 -15.983,35.462 -15.175,35.026C-10.438,32.466 -5.677,29.741 -1.071,27.106L0.689,26.099C2.603,25.004 3.758,22.956 3.705,20.756L3.662,19.024C3.596,16.402 3.527,13.691 3.527,11.034C3.527,8.732 1.655,6.824 -0.646,6.783L-1.767,6.762C-3.884,6.722 -5.998,6.684 -8.093,6.712C-8.913,6.724 -9.571,7.392 -9.571,8.212L-9.571,9.316C-10.224,8.119 -10.754,6.857 -11.148,5.553C-7.265,3.229 -3.267,1.084 0.817,-0.914C0.562,-1.157 0.304,-1.399 0.05,-1.641C-0.55,-2.213 -0.572,-3.163 0,-3.762" style="fill:rgb(82,93,125);fill-rule:nonzero;"/>
    </g>
    <g transform="matrix(1,0,0,1,1355.51,530.036)">
        <path d="M0,-72.703L-0.016,-72.703C-0.114,-72.697 -0.213,-72.682 -0.312,-72.655C-1.113,-72.444 -1.59,-71.622 -1.378,-70.821C-1.275,-70.435 -1.172,-70.059 -1.069,-69.679C2.168,-57.722 5.634,-48.794 9,-41.622C9.441,-40.684 9.88,-39.774 10.316,-38.892C12.738,-34.003 15.084,-29.947 17.229,-26.242C18.34,-24.322 19.391,-22.508 20.378,-20.706C21.092,-19.404 21.161,-17.813 20.562,-16.451C19.964,-15.09 18.745,-14.065 17.304,-13.709C5.715,-10.85 -5.389,-6.841 -15.897,-1.793C-15.38,-1.977 -14.784,-1.885 -14.361,-1.481C-13.832,-0.975 -13.297,-0.47 -12.763,0.034C-2.985,-4.514 7.308,-8.153 18.022,-10.796C20.361,-11.374 22.338,-13.036 23.309,-15.244C24.279,-17.454 24.167,-20.035 23.009,-22.149C22.004,-23.981 20.945,-25.81 19.825,-27.745C14.491,-36.958 7.891,-48.363 2.033,-69.7C1.863,-70.322 1.692,-70.951 1.522,-71.59C1.337,-72.287 0.694,-72.737 0,-72.703" style="fill:rgb(82,93,125);fill-rule:nonzero;"/>
    </g>
    <g transform="matrix(1,0,0,1,1321.61,564.42)">
        <path d="M0,-8.839C-0.348,-9.591 -1.237,-9.922 -1.991,-9.572C-2.743,-9.225 -3.071,-8.334 -2.725,-7.582C-1.565,-5.071 0.144,-2.7 2.354,-0.512C2.77,-0.099 3.198,0.309 3.65,0.708C3.936,0.96 4.289,1.083 4.642,1.083C5.058,1.083 5.471,0.911 5.768,0.576C6.315,-0.046 6.256,-0.993 5.635,-1.542C5.453,-1.702 5.282,-1.866 5.106,-2.029C2.836,-4.136 1.115,-6.422 0,-8.839" style="fill:rgb(82,93,125);fill-rule:nonzero;"/>
    </g>
    <g transform="matrix(1,0,0,1,1327.93,560.841)">
        <path d="M0,-9.714C-0.487,-10.385 -1.428,-10.532 -2.096,-10.045C-2.766,-9.557 -2.913,-8.619 -2.426,-7.949C-2.056,-7.44 -1.685,-6.917 -1.311,-6.389C0.033,-4.496 1.423,-2.562 3.046,-0.844C3.46,-0.406 3.877,0.029 4.326,0.432C4.613,0.691 4.972,0.818 5.329,0.818C5.74,0.818 6.148,0.65 6.445,0.321C6.999,-0.295 6.949,-1.243 6.334,-1.797C6.132,-1.979 5.946,-2.188 5.751,-2.381C4.047,-4.062 2.564,-6.113 1.137,-8.125C0.755,-8.663 0.378,-9.195 0,-9.714" style="fill:rgb(82,93,125);fill-rule:nonzero;"/>
    </g>
    <g transform="matrix(1,0,0,1,1314.21,549.643)">
        <path d="M0,-2.661C0.04,-3.489 -0.598,-4.192 -1.426,-4.232C-1.962,-4.258 -2.501,-4.267 -3.038,-4.29C-7.898,-4.503 -12.782,-4.625 -17.582,-4.625C-33.151,-4.625 -48.501,-3.492 -63.251,-1.279C-63.847,-1.19 -64.448,-1.111 -65.041,-1.018C-65.701,-0.915 -66.186,-0.394 -66.285,0.231C-66.307,0.369 -66.313,0.51 -66.294,0.655C-66.292,0.669 -66.294,0.682 -66.292,0.696C-66.176,1.436 -65.537,1.964 -64.812,1.964C-64.734,1.964 -64.656,1.958 -64.578,1.946C-64.16,1.88 -63.736,1.825 -63.316,1.762C-48.557,-0.48 -33.181,-1.625 -17.582,-1.625C-12.75,-1.625 -7.833,-1.502 -2.94,-1.285C-2.483,-1.265 -2.026,-1.258 -1.57,-1.236C-0.738,-1.185 -0.041,-1.834 0,-2.661" style="fill:rgb(82,93,125);fill-rule:nonzero;"/>
    </g>
    <g transform="matrix(1,0,0,1,1314.8,559.833)">
        <path d="M0,-4.322C-0.076,-5.147 -0.828,-5.756 -1.632,-5.677C-2.134,-5.63 -2.642,-5.597 -3.146,-5.553C-11.052,-4.863 -19.091,-4.478 -26.886,-4.116C-38.148,-3.593 -49.795,-3.052 -61.231,-1.553C-62.053,-1.445 -62.631,-0.692 -62.523,0.129C-62.425,0.885 -61.779,1.434 -61.038,1.434C-60.973,1.434 -60.907,1.43 -60.841,1.422C-49.529,-0.062 -37.947,-0.599 -26.747,-1.119C-18.888,-1.484 -10.78,-1.872 -2.779,-2.573C-2.305,-2.614 -1.828,-2.646 -1.354,-2.69C-0.529,-2.766 0.077,-3.497 0,-4.322" style="fill:rgb(82,93,125);fill-rule:nonzero;"/>
    </g>
    <g transform="matrix(1,0,0,1,1461.5,578.606)">
        <path d="M0,-35.049C-8.521,-35.12 -17.333,-35.194 -26.003,-35.194C-47.539,-35.194 -63.981,-34.721 -79.315,-33.662C-80.128,-33.606 -80.748,-32.911 -80.71,-32.096C-80.577,-29.217 -80.421,-26.338 -80.254,-23.464C-79.607,-23.29 -78.964,-23.108 -78.307,-22.959C-77.499,-22.776 -76.992,-21.972 -77.176,-21.164C-77.334,-20.468 -77.952,-19.995 -78.638,-19.995C-78.747,-19.995 -78.858,-20.007 -78.971,-20.033C-79.34,-20.117 -79.698,-20.225 -80.063,-20.316C-79.689,-14.21 -79.269,-8.143 -78.852,-2.205C-78.797,-1.425 -78.153,-0.819 -77.372,-0.81C-38.605,-0.369 0.303,-0.091 38.496,0.145L38.496,-2.855C0.767,-3.088 -37.661,-3.362 -75.956,-3.794C-76.576,-12.619 -77.205,-21.701 -77.645,-30.768C-62.796,-31.753 -46.782,-32.194 -26.003,-32.194C-17.346,-32.194 -8.541,-32.12 -0.025,-32.049C8.496,-31.978 17.308,-31.904 25.979,-31.904C30.764,-31.904 34.885,-31.924 38.496,-31.959L38.496,-34.959C34.889,-34.924 30.767,-34.904 25.979,-34.904C17.32,-34.904 8.515,-34.978 0,-35.049" style="fill:rgb(82,93,125);fill-rule:nonzero;"/>
    </g>
    <g transform="matrix(1,0,0,1,1399.49,553.682)">
        <path d="M0,7.83C-2.542,7.83 -4.317,6.273 -4.317,4.043C-4.317,2.214 -3.125,0.177 -1.415,0.177L-1.302,0.18C-0.552,0.215 -0.032,0.35 0.49,0.643C2.997,2.053 3.546,3.865 3.546,4.444C3.546,6.643 1.719,7.83 0,7.83M1.961,-1.972C0.76,-2.647 -0.338,-2.778 -1.159,-2.817C-4.904,-3 -7.317,0.664 -7.317,4.043C-7.317,5.591 -6.808,6.981 -5.937,8.098C-5.706,7.759 -5.476,7.42 -5.234,7.087C-4.747,6.416 -3.809,6.268 -3.14,6.755C-2.469,7.242 -2.32,8.18 -2.807,8.85C-3.077,9.223 -3.344,9.611 -3.607,10.002C-2.554,10.531 -1.33,10.83 0,10.83C3.218,10.83 6.546,8.441 6.546,4.444C6.546,2.674 5.345,-0.068 1.961,-1.972" style="fill:rgb(82,93,125);fill-rule:nonzero;"/>
    </g>
    <g transform="matrix(1,0,0,1,1396.35,569.674)">
        <path d="M0,-9.237C-0.669,-9.724 -1.607,-9.575 -2.095,-8.904C-2.336,-8.572 -2.567,-8.232 -2.798,-7.894C-3.175,-7.34 -3.544,-6.785 -3.9,-6.239C-4.896,-4.717 -5.837,-3.279 -6.965,-2.009C-7.516,-1.39 -7.46,-0.442 -6.84,0.108C-6.555,0.362 -6.199,0.487 -5.845,0.487C-5.431,0.487 -5.019,0.317 -4.723,-0.016C-3.447,-1.451 -2.401,-3.051 -1.39,-4.598C-1.088,-5.059 -0.78,-5.527 -0.467,-5.99C-0.204,-6.381 0.062,-6.769 0.333,-7.142C0.819,-7.812 0.671,-8.75 0,-9.237" style="fill:rgb(82,93,125);fill-rule:nonzero;"/>
    </g>
    <g transform="matrix(1,0,0,1,1413.04,550.531)">
        <path d="M0,8.131C0.746,7.702 1.445,7.388 2.128,7.133C2.006,4.764 1.884,2.395 1.736,0.027C1.685,-0.8 1,-1.423 0.146,-1.377C-0.681,-1.325 -1.31,-0.613 -1.258,0.214C-1.092,2.875 -0.954,5.537 -0.817,8.199C-0.794,8.65 -0.766,9.102 -0.743,9.554C-0.788,8.993 -0.52,8.43 0,8.131" style="fill:rgb(82,93,125);fill-rule:nonzero;"/>
    </g>
    <g transform="matrix(1,0,0,1,1412.49,567.599)">
        <path d="M0,-6.889C-0.101,-7.065 -0.161,-7.253 -0.186,-7.443C-0.072,-5.246 0.041,-3.049 0.178,-0.853C0.228,-0.057 0.888,0.554 1.674,0.554C1.705,0.554 1.736,0.553 1.769,0.551C2.595,0.499 3.224,-0.213 3.172,-1.039C3.053,-2.945 2.956,-4.851 2.856,-6.757C2.594,-6.628 2.33,-6.498 2.049,-6.336C1.33,-5.923 0.413,-6.17 0,-6.889" style="fill:rgb(82,93,125);fill-rule:nonzero;"/>
    </g>
    <g transform="matrix(1,0,0,1,1421.6,563.264)">
        <path d="M0,-0.782C0.005,-2.766 0.008,-4.333 -1.034,-5.378C-1.597,-5.941 -2.358,-6.226 -3.299,-6.226C-4.318,-6.226 -5.348,-6.006 -6.431,-5.6C-7.114,-5.344 -7.814,-5.03 -8.56,-4.602C-9.079,-4.303 -9.347,-3.74 -9.302,-3.179C-9.3,-3.155 -9.301,-3.132 -9.298,-3.108C-9.274,-2.918 -9.213,-2.73 -9.112,-2.554C-8.699,-1.835 -7.782,-1.588 -7.063,-2.001C-6.782,-2.163 -6.519,-2.293 -6.256,-2.422C-5.158,-2.959 -4.198,-3.226 -3.299,-3.226C-3.231,-3.226 -3.183,-3.222 -3.147,-3.218C-2.995,-2.831 -2.998,-1.659 -3,-0.789C-3.003,0.579 -3.007,2.282 -2.688,4.191C-2.566,4.925 -1.931,5.444 -1.211,5.444C-1.129,5.444 -1.046,5.438 -0.962,5.424C-0.146,5.287 0.407,4.514 0.271,3.697C-0.006,2.037 -0.003,0.539 0,-0.782" style="fill:rgb(82,93,125);fill-rule:nonzero;"/>
    </g>
    <g transform="matrix(1,0,0,1,1423.58,568.151)">
        <path d="M0,-11.442C0.048,-10.616 0.098,-9.787 0.142,-8.973C0.279,-6.476 0.42,-3.893 0.644,-1.367C0.714,-0.587 1.368,0 2.136,0C2.181,0 2.226,-0.002 2.271,-0.006C3.096,-0.079 3.706,-0.808 3.632,-1.633C3.413,-4.107 3.273,-6.665 3.137,-9.137C3.101,-9.808 3.059,-10.495 3.02,-11.176C2.07,-11.218 1.14,-11.308 0.241,-11.416C0.159,-11.425 0.082,-11.432 0,-11.442" style="fill:rgb(82,93,125);fill-rule:nonzero;"/>
    </g>
    <g transform="matrix(1,0,0,1,1426.41,549.973)">
        <path d="M0,3.998C-0.059,3.142 -0.115,2.284 -0.191,1.435C-0.264,0.61 -1.01,0 -1.818,0.074C-2.643,0.147 -3.252,0.876 -3.179,1.701C-3.121,2.359 -3.079,3.03 -3.031,3.697C-2.764,3.727 -2.493,3.752 -2.23,3.784C-1.471,3.874 -0.723,3.954 0,3.998" style="fill:rgb(82,93,125);fill-rule:nonzero;"/>
    </g>
    <g transform="matrix(1,0,0,1,1427.89,555.402)">
        <path d="M0,-0.306C0,-0.766 0.212,-1.173 0.538,-1.448C-0.101,-1.389 -0.777,-1.389 -1.482,-1.432C-2.205,-1.475 -2.953,-1.556 -3.712,-1.646C-3.975,-1.677 -4.246,-1.703 -4.513,-1.733C-5.382,-1.831 -6.265,-1.917 -7.167,-1.917C-7.995,-1.917 -8.667,-1.246 -8.667,-0.417C-8.667,0.411 -7.995,1.083 -7.167,1.083C-6.242,1.083 -5.297,1.189 -4.308,1.307C-4.227,1.316 -4.15,1.323 -4.067,1.333C-3.169,1.44 -2.238,1.531 -1.288,1.573C-1.03,1.585 -0.778,1.611 -0.517,1.611C0.06,1.611 0.596,1.58 1.122,1.517C1.401,1.484 1.648,1.372 1.855,1.212C1.738,1.209 1.617,1.194 1.5,1.194C0.672,1.194 0,0.523 0,-0.306" style="fill:rgb(82,93,125);fill-rule:nonzero;"/>
    </g>
    <g transform="matrix(1,0,0,1,1435.08,550.088)">
        <path d="M0,3.987C-0.06,3.133 -0.115,2.277 -0.19,1.43C-0.264,0.605 -1.012,0 -1.817,0.069C-2.643,0.142 -3.252,0.871 -3.179,1.696C-3.12,2.354 -3.079,3.025 -3.03,3.692C-2.763,3.722 -2.491,3.748 -2.228,3.779C-1.462,3.87 -0.729,3.942 0,3.987" style="fill:rgb(82,93,125);fill-rule:nonzero;"/>
    </g>
    <g transform="matrix(1,0,0,1,1432.25,568.262)">
        <path d="M0,-11.442C0.048,-10.616 0.097,-9.787 0.142,-8.974C0.279,-6.476 0.419,-3.893 0.644,-1.367C0.713,-0.588 1.368,0 2.136,0C2.181,0 2.226,-0.002 2.271,-0.006C3.096,-0.079 3.706,-0.808 3.632,-1.633C3.413,-4.108 3.273,-6.665 3.137,-9.137C3.1,-9.809 3.059,-10.495 3.02,-11.176C2.071,-11.218 1.141,-11.308 0.243,-11.415C0.16,-11.425 0.082,-11.432 0,-11.442" style="fill:rgb(82,93,125);fill-rule:nonzero;"/>
    </g>
    <g transform="matrix(1,0,0,1,1438.99,555.359)">
        <path d="M0,0.002C-0.099,-0.82 -0.837,-1.409 -1.669,-1.308C-2.072,-1.259 -2.491,-1.235 -2.95,-1.235C-3.271,-1.235 -3.594,-1.264 -3.916,-1.284C-4.645,-1.329 -5.378,-1.4 -6.144,-1.491C-6.407,-1.523 -6.679,-1.549 -6.946,-1.579C-7.816,-1.676 -8.698,-1.763 -9.601,-1.763C-9.969,-1.763 -10.302,-1.625 -10.563,-1.404C-10.889,-1.129 -11.101,-0.723 -11.101,-0.263C-11.101,0.566 -10.429,1.237 -9.601,1.237C-9.484,1.237 -9.363,1.252 -9.245,1.255C-8.434,1.277 -7.605,1.359 -6.742,1.461C-6.659,1.471 -6.582,1.478 -6.499,1.488C-5.601,1.595 -4.671,1.685 -3.722,1.727C-3.464,1.739 -3.212,1.765 -2.95,1.765C-2.37,1.765 -1.833,1.734 -1.31,1.671C-0.487,1.572 0.099,0.825 0,0.002" style="fill:rgb(82,93,125);fill-rule:nonzero;"/>
    </g>
    <g transform="matrix(1,0,0,1,1441.09,568.515)">
        <path d="M0,-4.508C-0.101,-4.508 -0.203,-4.511 -0.306,-4.518C-0.308,-5.159 -0.309,-5.793 -0.309,-6.419L-0.309,-7.116C1.288,-6.901 1.957,-6.09 2.003,-5.861C2.003,-4.684 0.748,-4.508 0,-4.508M-1.127,-10.169C-1.394,-10.169 -1.66,-10.158 -1.924,-10.138C-2.704,-10.077 -3.307,-9.427 -3.308,-8.644L-3.309,-6.419C-3.309,-3.051 -3.294,0.545 -3.117,4.233C-3.079,5.036 -2.416,5.661 -1.62,5.661C-1.596,5.661 -1.572,5.66 -1.548,5.659C-0.72,5.619 -0.081,4.917 -0.121,4.089C-0.211,2.196 -0.259,0.321 -0.283,-1.513C3.305,-1.383 5.003,-3.707 5.003,-5.861C5.003,-7.932 2.659,-10.169 -1.127,-10.169" style="fill:rgb(82,93,125);fill-rule:nonzero;"/>
    </g>
    <g transform="matrix(1,0,0,1,1448.65,561.876)">
        <path d="M0,-4.361C-0.812,-4.198 -1.339,-3.408 -1.176,-2.596C-1.094,-2.186 -1.094,-1.847 -1.094,-1.335C-1.094,-0.506 -0.422,0.165 0.406,0.165C1.234,0.165 1.906,-0.506 1.906,-1.335C1.906,-1.925 1.906,-2.484 1.766,-3.185C1.604,-3.997 0.814,-4.526 0,-4.361" style="fill:rgb(82,93,125);fill-rule:nonzero;"/>
    </g>
    <g transform="matrix(1,0,0,1,1449.06,568.375)">
        <path d="M0,-4C-0.828,-4 -1.5,-3.329 -1.5,-2.5L-1.5,-1.5C-1.5,-0.671 -0.828,0 0,0C0.828,0 1.5,-0.671 1.5,-1.5L1.5,-2.5C1.5,-3.329 0.828,-4 0,-4" style="fill:rgb(82,93,125);fill-rule:nonzero;"/>
    </g>
    <g transform="matrix(1,0,0,1,1462.81,563.153)">
        <path d="M0,-9.658C0.404,-10.381 0.146,-11.295 -0.578,-11.7C-1.299,-12.102 -2.213,-11.845 -2.619,-11.122C-3.436,-9.66 -4.22,-8.183 -5.002,-6.707C-6.215,-4.42 -7.47,-2.054 -8.815,0.167C-9.244,0.875 -9.018,1.798 -8.31,2.227C-8.066,2.374 -7.799,2.444 -7.533,2.444C-7.026,2.444 -6.531,2.187 -6.249,1.721C-4.859,-0.574 -3.584,-2.977 -2.352,-5.302C-1.579,-6.758 -0.806,-8.216 0,-9.658" style="fill:rgb(82,93,125);fill-rule:nonzero;"/>
    </g>
    <g transform="matrix(1,0,0,1,1468.07,566.546)">
        <path d="M0,-13.206C-0.663,-13.701 -1.603,-13.569 -2.101,-12.906C-3.265,-11.353 -4.264,-9.704 -5.229,-8.108C-6.559,-5.912 -7.815,-3.837 -9.461,-2.009C-10.015,-1.393 -9.965,-0.445 -9.35,0.109C-9.063,0.368 -8.704,0.495 -8.346,0.495C-7.936,0.495 -7.527,0.327 -7.23,-0.002C-5.396,-2.041 -4.007,-4.336 -2.663,-6.555C-1.692,-8.158 -0.775,-9.672 0.3,-11.106C0.797,-11.769 0.662,-12.708 0,-13.206" style="fill:rgb(82,93,125);fill-rule:nonzero;"/>
    </g>
    <g transform="matrix(1,0,0,1,1484.26,566.718)">
        <path d="M0,-7.729C0.541,-8.011 1.179,-7.928 1.63,-7.568C1.614,-7.99 1.426,-8.403 1.069,-8.686C0.421,-9.201 -0.523,-9.091 -1.038,-8.442C-2.455,-6.654 -3.795,-4.809 -4.947,-3.169C-5.063,-3.363 -5.179,-3.557 -5.293,-3.749C-5.818,-4.628 -6.326,-5.479 -6.801,-6.208C-7.061,-6.606 -7.494,-6.858 -7.97,-6.886C-8.439,-6.911 -8.905,-6.714 -9.21,-6.349C-9.881,-5.544 -10.531,-4.727 -11.181,-3.91C-11.469,-3.546 -11.762,-3.179 -12.057,-2.811C-12.143,-2.997 -12.228,-3.184 -12.313,-3.371C-12.903,-4.665 -13.515,-6.002 -14.199,-7.315C-14.582,-8.049 -15.49,-8.331 -16.224,-7.951C-16.958,-7.568 -17.242,-6.662 -16.859,-5.927C-16.211,-4.685 -15.616,-3.383 -15.042,-2.125C-14.622,-1.204 -14.201,-0.283 -13.755,0.63C-13.533,1.084 -13.098,1.396 -12.597,1.46C-12.533,1.468 -12.47,1.472 -12.407,1.472C-11.972,1.472 -11.554,1.282 -11.267,0.946C-10.426,-0.038 -9.615,-1.057 -8.832,-2.043C-8.63,-2.297 -8.428,-2.552 -8.225,-2.806C-8.107,-2.61 -7.989,-2.412 -7.869,-2.212C-7.351,-1.342 -6.815,-0.447 -6.283,0.381C-6.011,0.804 -5.546,1.062 -5.044,1.069C-4.55,1.067 -4.069,0.833 -3.785,0.418C-2.776,-1.051 -1.516,-2.857 -0.137,-4.695C-0.303,-5.032 -0.464,-5.374 -0.637,-5.705C-1.02,-6.439 -0.735,-7.346 0,-7.729" style="fill:rgb(82,93,125);fill-rule:nonzero;"/>
    </g>
    <g transform="matrix(1,0,0,1,1499.44,567.985)">
        <path d="M0,-9.487C-1.415,-7.703 -2.756,-5.856 -3.91,-4.214C-4.028,-4.411 -4.146,-4.608 -4.263,-4.804C-4.785,-5.679 -5.292,-6.527 -5.764,-7.251C-6.022,-7.651 -6.457,-7.903 -6.932,-7.931C-7.414,-7.957 -7.868,-7.759 -8.173,-7.394C-8.845,-6.588 -9.497,-5.768 -10.147,-4.949C-10.438,-4.584 -10.729,-4.218 -11.021,-3.855C-11.107,-4.045 -11.194,-4.235 -11.281,-4.425C-11.871,-5.716 -12.48,-7.05 -13.163,-8.36C-13.262,-8.55 -13.398,-8.709 -13.556,-8.835C-14.007,-9.195 -14.646,-9.278 -15.187,-8.996C-15.922,-8.612 -16.206,-7.706 -15.823,-6.972C-15.65,-6.641 -15.49,-6.299 -15.324,-5.962C-14.869,-5.036 -14.43,-4.099 -14.011,-3.179C-13.588,-2.255 -13.166,-1.331 -12.718,-0.414C-12.496,0.04 -12.061,0.352 -11.559,0.416C-11.495,0.424 -11.433,0.428 -11.37,0.428C-10.935,0.428 -10.517,0.238 -10.229,-0.098C-9.391,-1.081 -8.582,-2.098 -7.8,-3.082C-7.596,-3.338 -7.393,-3.594 -7.187,-3.85C-7.072,-3.658 -6.956,-3.463 -6.839,-3.266C-6.318,-2.394 -5.78,-1.494 -5.246,-0.663C-4.974,-0.24 -4.509,0.017 -4.007,0.025C-3.485,0.02 -3.033,-0.211 -2.748,-0.626C-1.824,-1.972 -0.682,-3.602 0.557,-5.273L0.557,-6.433C0.503,-6.538 0.455,-6.646 0.4,-6.75C0.118,-7.291 0.201,-7.924 0.557,-8.374L0.557,-9.915C0.346,-9.819 0.153,-9.68 0,-9.487" style="fill:rgb(82,93,125);fill-rule:nonzero;"/>
    </g>
    <g transform="matrix(1,0,0,1,1499.84,559.927)">
        <path d="M0,1.308C0.054,1.412 0.103,1.52 0.156,1.624L0.156,-0.316C-0.2,0.134 -0.282,0.767 0,1.308" style="fill:rgb(82,93,125);fill-rule:nonzero;"/>
    </g>
    <g transform="matrix(1,0,0,1,1382.87,528.06)">
        <path d="M0,30.551C0.686,30.551 1.304,30.078 1.462,29.383C1.646,28.574 1.139,27.771 0.331,27.588C-0.326,27.439 -0.969,27.256 -1.617,27.083C-16.55,23.076 -28.839,12.683 -40.123,2.011C-40.657,1.506 -41.191,1.001 -41.721,0.496C-42.144,0.091 -42.74,0 -43.257,0.184C-43.332,0.21 -43.399,0.247 -43.469,0.286C-43.6,0.358 -43.732,0.431 -43.841,0.545C-44.413,1.144 -44.391,2.094 -43.791,2.666C-43.537,2.908 -43.279,3.15 -43.024,3.393C-30.989,14.835 -17.844,26.146 -1.426,30.231C-1.06,30.322 -0.702,30.43 -0.333,30.513C-0.221,30.539 -0.109,30.551 0,30.551" style="fill:rgb(82,93,125);fill-rule:nonzero;"/>
    </g>
</svg>
