<?xml version="1.0" encoding="UTF-8" standalone="no"?>
<!DOCTYPE svg PUBLIC "-//W3C//DTD SVG 1.1//EN" "http://www.w3.org/Graphics/SVG/1.1/DTD/svg11.dtd">
<svg width="100%" height="100%" viewBox="0 0 280 252" version="1.1" xmlns="http://www.w3.org/2000/svg" xmlns:xlink="http://www.w3.org/1999/xlink" xml:space="preserve" xmlns:serif="http://www.serif.com/" style="fill-rule:evenodd;clip-rule:evenodd;stroke-linecap:round;stroke-linejoin:round;">
    <g transform="matrix(1,0,0,1,-1280,-122)">
        <g transform="matrix(1.91316,0,0,1.91316,1422,276.684)">
            <path d="M0,-13.467C-0.216,-13.632 -0.432,-13.796 -0.646,-13.961C-1.884,-14.908 -4.232,-14.517 -5.229,-13.37C-5.951,-12.538 -6.621,-10.667 -7.539,-10.25C-8.498,-9.815 -11.574,-10.279 -12.509,-10.312C-17.126,-10.477 -21.747,-10.537 -26.366,-10.539C-34.416,-10.542 -43.788,-10.876 -51.212,-7.361C-53.057,-6.487 -52.256,-4.012 -50.697,-3.419C-41.271,0.164 -29.358,-1.363 -19.437,-1.024C-11.431,-0.749 -1.049,1.441 2.197,-8.068C2.943,-10.255 1.634,-12.217 0,-13.467" style="fill:rgb(224,223,230);fill-rule:nonzero;"/>
        </g>
        <g transform="matrix(1.91316,0,0,1.91316,1539.78,347.976)">
            <path d="M0,-10.999C-0.282,-12.419 -0.722,-13.801 -1.302,-15.084C-2.195,-17.059 -3.31,-18.934 -4.909,-20.413C-6.912,-22.266 -9.071,-22.628 -11.396,-23.858C-12.762,-24.581 -14.477,-22.664 -13.139,-21.602C-10.882,-19.809 -9.556,-15.159 -8.976,-12.448C-8.449,-9.987 -8.697,-7.782 -8.973,-5.459C-9.103,-5.303 -9.233,-5.146 -9.362,-4.988C-11.625,-2.973 -14.059,-1.255 -17.361,-0.575C-22.649,0.514 -27.14,-1.697 -31.776,-3.691C-32.983,-4.689 -34.167,-5.715 -35.354,-6.719C-38.028,-8.983 -40.339,-11.186 -43.974,-11.417C-44.542,-11.453 -45.223,-10.958 -45.33,-10.385C-46.257,-5.407 -42.575,-1.331 -39.335,2.044C-35.211,6.338 -30.127,10.831 -24.195,12.234C-18.5,13.582 -12.691,11.862 -8.053,8.459C-3.738,5.295 1.738,-0.295 2.728,-5.707C3.125,-7.881 1.854,-10.159 0,-10.999" style="fill:rgb(224,223,230);fill-rule:nonzero;"/>
        </g>
        <g transform="matrix(1.91316,0,0,1.91316,1535.56,341.328)">
            <path d="M0,-58.145C-16.228,-57.978 -33.589,-49.041 -46.517,-39.736C-52.788,-35.22 -58.102,-29.834 -61.803,-23.001C-65.697,-15.81 -66.669,-9.125 -66.081,-1.126C-66.02,-0.279 -64.644,0.053 -64.485,-0.911C-62.122,-15.273 -54.282,-27.965 -42.713,-36.642C-30.584,-45.738 -16.628,-53.43 -0.947,-51.148C4.271,-50.388 5.085,-58.198 0,-58.145" style="fill:rgb(224,223,230);fill-rule:nonzero;"/>
        </g>
        <g transform="matrix(1.91316,0,0,1.91316,1477.73,287.77)">
            <path d="M0,-11.452C-3.619,-14.998 -10.15,-10.403 -13.172,-8.073C-16.212,-5.729 -20.47,-1.4 -19.509,2.847C-19.392,3.366 -18.86,3.546 -18.395,3.48C-16.12,3.153 -14.361,1.531 -12.491,0.316C-10.297,-1.109 -8.02,-2.433 -5.57,-3.361C-2.562,-4.501 4.081,-7.453 0,-11.452" style="fill:rgb(224,223,230);fill-rule:nonzero;"/>
        </g>
        <g transform="matrix(1.91316,0,0,1.91316,1427.57,343.055)">
            <path d="M0,-32.504C-0.392,-33.304 -1.022,-33.751 -1.736,-34.24C-3.042,-35.135 -5.319,-35.168 -6.622,-34.24C-9.442,-32.23 -11.633,-29.665 -13.47,-26.726C-14.505,-25.068 -15.334,-23.292 -16.075,-21.487C-16.354,-20.806 -17.138,-17.34 -17.51,-17.05C-18.367,-16.384 -21.702,-16.313 -23.035,-16.117C-25.523,-15.754 -28.013,-15.41 -30.508,-15.096C-35.26,-14.497 -39.986,-13.624 -44.753,-13.192C-47.75,-12.921 -47.862,-8.489 -44.753,-8.442C-44.199,-8.434 -43.646,-8.412 -43.094,-8.397C-44.17,-7.529 -45.256,-6.884 -46.176,-7.006C-47.971,-7.242 -49.981,-10.437 -51.983,-11.164C-57.626,-13.213 -63.827,-9.183 -67.467,-5.126C-68.427,-4.057 -67.683,-2.684 -66.385,-2.512C-63.091,-2.076 -60.789,-4.327 -57.687,-4.529C-53.881,-4.778 -52.896,-0.3 -49.877,1.302C-47.31,2.664 -44.388,2.572 -41.738,1.543C-41,1.256 -37.195,-0.586 -35.303,-2.065C-35.074,-1.848 -34.834,-1.646 -34.573,-1.464C-33.366,-0.435 -32.008,0.349 -30.511,0.88C-27.607,1.91 -24.472,2.022 -21.466,1.379C-16.839,0.387 -6.591,-4.255 -8.91,-10.558C-9.218,-11.393 -9.593,-12.024 -10.017,-12.5C-9.482,-13.443 -9.033,-14.5 -8.54,-15.616C-6.628,-19.941 -3.628,-22.995 -0.757,-26.639C0.686,-28.469 1.042,-30.376 0,-32.504" style="fill:rgb(224,223,230);fill-rule:nonzero;"/>
        </g>
        <g transform="matrix(1.91316,0,0,1.91316,1543.4,182.29)">
            <path d="M0,4.976C-0.04,-0.452 0.479,-6.283 -1.069,-11.554C-3.375,-19.401 -10.826,-25.967 -19.317,-24.014C-21.049,-23.616 -21.015,-21.419 -19.772,-20.53C-17.063,-18.593 -14.405,-16.394 -12.677,-13.508C-11.816,-12.071 -11.372,-10.584 -11.134,-9.059C-11.384,-9.131 -11.643,-9.186 -11.913,-9.213C-21.556,-10.194 -31.942,-8.736 -41.651,-8.46C-51.236,-8.187 -60.821,-7.94 -70.409,-7.764C-79.995,-7.588 -89.587,-7.579 -99.172,-7.342C-107.097,-7.146 -118.538,-8.36 -125.401,-3.807C-125.971,-3.43 -125.957,-2.676 -125.401,-2.296C-118.559,2.388 -107.142,1.22 -99.172,1.37C-89.259,1.556 -79.33,1.381 -69.417,1.256C-59.5,1.132 -49.583,0.954 -39.669,0.682C-30.232,0.423 -20.212,1.018 -10.919,-0.657C-11.033,7.505 -11.442,15.703 -11.083,23.854C-10.771,30.943 -0.445,30.931 -0.077,23.854C0.249,17.58 0.047,11.256 0,4.976" style="fill:rgb(224,223,230);fill-rule:nonzero;"/>
        </g>
        <g transform="matrix(1.91316,0,0,1.91316,1460.16,310.071)">
            <path d="M0,-37.518C-1.637,-37.668 -3.255,-37.697 -4.84,-37.594C-6.113,-38.897 -8.058,-39.644 -9.823,-38.977C-10.262,-38.816 -10.691,-38.631 -11.119,-38.444C-10.913,-38.532 -11.008,-38.506 -11.414,-38.363C-11.635,-38.297 -11.86,-38.249 -12.086,-38.205C-12.545,-38.144 -13.003,-38.082 -13.461,-38.02C-13.976,-37.916 -13.972,-37.907 -13.451,-37.992C-14.533,-37.789 -15.131,-37.683 -16.131,-37.172C-17.462,-36.494 -18.408,-34.421 -17.841,-32.972C-17.768,-32.786 -17.672,-32.625 -17.588,-32.453C-18.028,-32.045 -18.462,-31.621 -18.876,-31.158C-20.015,-29.885 -21.119,-28.542 -22.178,-27.147C-23.601,-25.976 -24.956,-24.722 -26.195,-23.333C-26.984,-22.449 -27.928,-21.391 -28.86,-20.229C-29.059,-20.916 -29.264,-21.597 -29.489,-22.259C-30.193,-24.329 -33.178,-24.462 -33.828,-22.259C-35.639,-16.129 -36.296,-8.985 -35.634,-2.618C-35.408,-0.45 -34.383,0.769 -32.427,1.593C-31.165,2.126 -30.219,1.687 -29.062,1.154C-27.641,0.499 -26.988,-1.175 -26.898,-2.618C-26.823,-3.819 -26.81,-5.052 -26.827,-6.296C-22.639,-8.057 -21.326,-14.135 -18.686,-17.656C-16.073,-21.138 -13.177,-24.399 -10.389,-27.742C-8.789,-27.872 -7.145,-28.648 -5.86,-29.579C-5.049,-30.166 -4.397,-30.887 -3.958,-31.694C-1.472,-31.779 0.265,-32.485 1.619,-34.697C2.419,-36.002 1.353,-37.394 0,-37.518" style="fill:rgb(224,223,230);fill-rule:nonzero;"/>
        </g>
        <g transform="matrix(1.91316,0,0,1.91316,1509.46,218.404)">
            <path d="M0,-5.6C-3.328,-7.899 -7.317,-6.643 -11.051,-6.147C-14.961,-5.626 -18.928,-5.265 -22.804,-4.549C-25.166,-4.113 -24.771,-0.798 -22.804,-0.15C-18.86,1.151 -14.397,1.726 -10.255,1.886C-6.429,2.034 -2.077,2.299 0.613,-0.839C1.949,-2.398 1.689,-4.432 0,-5.6" style="fill:rgb(224,223,230);fill-rule:nonzero;"/>
        </g>
        <g transform="matrix(1.91316,0,0,1.91316,1415.6,226.666)">
            <path d="M0,-0.492C-5.017,-4.381 -12.692,-0.422 -18.427,0.627C-19.466,0.818 -20.961,0.866 -22.174,1.098C-22.229,0.711 -22.285,0.324 -22.341,-0.061C-22.907,-3.768 -23.458,-7.226 -24.895,-10.729C-25.223,-11.528 -26.191,-11.521 -26.521,-10.729C-28.762,-5.366 -33.267,8.432 -24.344,10.219C-20.26,11.036 -15.004,9.774 -10.952,9.062C-6.194,8.225 -1,7.994 0.924,3.004C1.33,1.95 0.907,0.212 0,-0.492" style="fill:rgb(224,223,230);fill-rule:nonzero;"/>
        </g>
        <g transform="matrix(1.91316,0,0,1.91316,1508.37,332.68)">
            <path d="M0,-23.563C-5.293,-23.732 -9.857,-18.911 -13.473,-15.566C-17.337,-11.991 -20.815,-7.659 -22.646,-2.691C-23.238,-1.085 -21.225,0.169 -19.892,-0.574C-15.475,-3.037 -11.546,-6.532 -7.656,-9.749C-3.939,-12.821 0.979,-15.242 2.772,-19.924C3.47,-21.745 1.705,-23.509 0,-23.563" style="fill:rgb(224,223,230);fill-rule:nonzero;"/>
        </g>
        <g transform="matrix(1.91316,0,0,1.91316,1329.22,156.169)">
            <path d="M0,-0.114C0.005,-0.108 0.009,-0.101 0.013,-0.095C0.037,-0.062 0.064,-0.033 0.089,0C0.06,-0.038 0.03,-0.076 0,-0.114" style="fill:rgb(224,223,230);fill-rule:nonzero;"/>
        </g>
        <g transform="matrix(1.91316,0,0,1.91316,1329.22,154.612)">
            <path d="M0,0.7C-0.174,0.464 -0.356,0.233 -0.54,0L0,0.7Z" style="fill:rgb(224,223,230);fill-rule:nonzero;"/>
        </g>
        <g transform="matrix(1.91316,0,0,1.91316,1519.62,169.901)">
            <path d="M0,-7.835C-19.169,-7.856 -38.337,-7.729 -57.502,-7.314C-62.802,-7.198 -68.1,-7.053 -73.396,-6.881C-73.397,-6.886 -73.397,-6.891 -73.398,-6.896C-73.403,-6.913 -73.412,-6.929 -73.416,-6.945C-73.422,-7.562 -73.627,-8.107 -74.062,-8.613C-74.824,-9.501 -76.152,-9.66 -77.232,-9.388C-78.273,-9.126 -79.181,-8.451 -79.661,-7.481C-79.796,-7.207 -79.912,-6.924 -80.007,-6.635C-81.755,-6.567 -83.503,-6.518 -85.251,-6.439C-85.792,-6.415 -86.338,-6.395 -86.885,-6.376C-86.951,-6.617 -87.026,-6.855 -87.107,-7.081C-87.671,-8.66 -88.96,-9.75 -90.713,-9.422C-91.535,-9.269 -92.179,-8.732 -92.676,-8.098C-92.957,-7.739 -93.331,-7.345 -93.547,-6.975C-93.69,-6.73 -93.799,-6.465 -93.891,-6.194C-95.498,-6.151 -97.113,-6.096 -98.726,-6.01C-98.781,-6.127 -98.844,-6.236 -98.914,-6.334C-99.025,-6.489 -99.113,-6.648 -99.205,-6.814C-99.295,-6.977 -99.404,-7.124 -99.514,-7.273C-99.825,-7.695 -100.173,-8.073 -100.505,-8.476C-100.437,-8.387 -100.368,-8.299 -100.301,-8.21C-100.647,-8.638 -101.018,-9.01 -101.53,-9.301C-102.521,-9.864 -103.957,-9.98 -104.938,-9.301C-105.792,-8.709 -106.497,-7.988 -106.758,-6.941C-106.892,-6.403 -106.982,-5.832 -106.976,-5.276C-106.976,-5.242 -106.968,-5.212 -106.967,-5.179C-109.204,-4.817 -111.398,-4.333 -113.511,-3.646C-115.252,-3.078 -115.512,-0.288 -113.511,0.151C-104.438,2.145 -94.458,0.812 -85.251,0.542C-76.001,0.269 -66.753,-0.039 -57.502,-0.291C-38.34,-0.814 -19.169,-1.106 0,-1.085C4.344,-1.08 4.351,-7.83 0,-7.835" style="fill:rgb(224,223,230);fill-rule:nonzero;"/>
        </g>
        <g transform="matrix(1.91316,0,0,1.91316,1526.35,245.029)">
            <path d="M0,-12.601L-0.938,-45.467C-1.149,-52.852 -7.245,-58.703 -14.633,-58.612L-107.146,-57.464C-114.188,-57.377 -119.865,-51.673 -119.919,-44.631L-120.613,46.102C-117.111,43.71 -111.797,40.359 -106.909,37.57C-103.661,39.859 -100.444,42.218 -97.152,44.471C-93.682,42.09 -90.033,39.92 -86.438,37.67C-83.596,40.197 -80.729,42.697 -77.888,45.224C-74.907,42.846 -71.582,40.859 -68.377,38.711C-66.18,40.233 -64.138,42.03 -61.805,43.277" style="fill:none;fill-rule:nonzero;stroke:rgb(82,93,125);stroke-width:1.57px;"/>
        </g>
        <g transform="matrix(0.00313441,1.91315,1.91315,-0.00313441,1409.53,55.2872)">
            <path d="M60.079,-59.095C60.163,-56.495 60.194,-53.876 60.198,-51.247C60.208,-45.126 60.069,-38.951 60.079,-32.849C60.089,-27.098 60.232,-25.579 60.247,-16.294C60.268,-3.883 59.397,37.595 59.086,60.178" style="fill:none;fill-rule:nonzero;stroke:rgb(82,93,125);stroke-width:1.57px;"/>
        </g>
        <g transform="matrix(1.91316,0,0,1.91316,1318.46,154.289)">
            <path d="M0,-1.737C-0.537,-1.661 -0.783,-1.142 -0.783,-0.713C-0.783,-0.255 -0.452,0.012 -0.125,0.012C0.426,0.012 0.95,-0.341 0.95,-0.952C0.95,-1.291 0.621,-1.749 0.146,-1.749C0.1,-1.749 0.051,-1.745 0,-1.737Z" style="fill:none;fill-rule:nonzero;stroke:rgb(82,93,125);stroke-width:1.57px;stroke-linecap:butt;"/>
        </g>
        <g transform="matrix(1.91316,0,0,1.91316,1341.86,154.321)">
            <path d="M0,-1.907C-0.558,-1.851 -0.962,-1.308 -0.962,-0.79C-0.962,-0.389 -0.703,0.004 -0.284,0.004C0.441,0.004 0.707,-0.614 0.707,-1.104C0.707,-1.472 0.544,-1.911 0.079,-1.911C0.054,-1.911 0.027,-1.91 0,-1.907Z" style="fill:none;fill-rule:nonzero;stroke:rgb(82,93,125);stroke-width:1.57px;stroke-linecap:butt;"/>
        </g>
        <g transform="matrix(1.91316,0,0,1.91316,1369.93,155.411)">
            <path d="M0,-1.712C-0.448,-1.638 -0.481,-1.359 -0.481,-0.941C-0.481,-0.254 -0.062,0.037 0.53,0.037C1.14,0.037 1.571,-0.489 1.571,-0.89C1.571,-1.285 1.171,-1.749 0.418,-1.749C0.281,-1.749 0.14,-1.735 0,-1.712Z" style="fill:none;fill-rule:nonzero;stroke:rgb(82,93,125);stroke-width:1.57px;stroke-linecap:butt;"/>
        </g>
        <g transform="matrix(1.91316,0,0,1.91316,1407.18,232.058)">
            <path d="M0,61.097C-0.011,60.429 -0.016,59.759 -0.016,59.09C-0.016,19.206 27.532,0 66.163,0C68.039,0 69.913,0.038 71.781,0.105" style="fill:none;fill-rule:nonzero;stroke:rgb(82,93,125);stroke-width:1.57px;"/>
        </g>
        <g transform="matrix(1.34659,-1.359,-1.359,-1.34659,1453.25,298.599)">
            <path d="M-3.105,7.448C5.958,11.799 16.631,7.699 17.864,7.448" style="fill:none;fill-rule:nonzero;stroke:rgb(82,93,125);stroke-width:1.57px;"/>
        </g>
        <g transform="matrix(1.35928,1.3463,1.3463,-1.35928,1417.33,201.095)">
            <path d="M-6.508,-15.82L38.453,-15.82" style="fill:none;fill-rule:nonzero;stroke:rgb(82,93,125);stroke-width:1.57px;"/>
        </g>
        <g transform="matrix(1.91316,0,0,1.91316,1384.84,211.064)">
            <path d="M0,8.633C0.373,5.777 0.645,2.921 1.061,0.065C2.537,0.105 4.003,0.19 5.477,0.19C6.561,0.19 7.649,0.144 8.749,0" style="fill:none;fill-rule:nonzero;stroke:rgb(82,93,125);stroke-width:1.57px;"/>
        </g>
        <g transform="matrix(1.91316,0,0,1.91316,1391.99,189.125)">
            <path d="M0,36.914C-4.946,36.79 -10.015,36.566 -15.008,36.566C-21.231,36.566 -26.512,37.017 -32.358,37.017C-33.145,37.017 -33.931,37.008 -34.72,36.988C-35.304,24.811 -34.981,12.634 -35.455,0.456C-30.739,0.272 -17.752,-0.09 11.604,-0.103C11.543,2.174 11.512,4.466 11.512,6.76C11.512,11.509 11.644,16.271 11.913,20.951" style="fill:none;fill-rule:nonzero;stroke:rgb(82,93,125);stroke-width:1.57px;"/>
        </g>
        <g transform="matrix(1.91316,0,0,1.91316,1361.45,241.343)">
            <path d="M0,-26.606C0.411,-17.834 0.624,-8.94 0.773,-0.142C3.247,-0.039 5.714,0 8.181,0C11.486,0 14.792,-0.069 18.115,-0.142" style="fill:none;fill-rule:nonzero;stroke:rgb(82,93,125);stroke-width:1.57px;"/>
        </g>
        <g transform="matrix(1.91316,0,0,1.91316,1429.06,206.546)">
            <path d="M0,-8.94C3.132,-9.073 6.215,-9.006 9.322,-9.04C9.378,-6.372 9.486,-3.672 9.486,-1.004C9.486,-0.625 9.484,-0.245 9.479,0.133C6.522,0.097 3.589,-0.144 0.617,-0.179C0.432,-3.099 0.104,-6.001 0,-8.94Z" style="fill:none;fill-rule:nonzero;stroke:rgb(82,93,125);stroke-width:1.57px;stroke-linecap:butt;"/>
        </g>
        <g transform="matrix(1.91316,0,0,1.91316,1507.82,205.135)">
            <path d="M0,-7.55C0.115,-4.801 0.313,-2.023 0.364,0.706C-6.463,0.687 -13.28,0.529 -20.104,0.529C-21.373,0.529 -22.642,0.535 -23.911,0.548C-24.168,-2.383 -24.304,-5.326 -24.357,-8.256C-16.238,-7.676 -8.119,-7.865 0,-7.55Z" style="fill:none;fill-rule:nonzero;stroke:rgb(82,93,125);stroke-width:1.57px;stroke-linecap:butt;"/>
        </g>
        <g transform="matrix(0.0389803,-1.91276,-1.91276,-0.0389803,1444.59,208.692)">
            <path d="M-6.669,-14.765C-6.705,-13.883 -6.729,-12.998 -6.747,-12.112C-6.876,-5.776 -6.622,0.643 -6.669,6.977C-9.586,6.543 -12.562,6.346 -15.501,6.24C-15.062,2.931 -15.306,-0.489 -14.691,-3.768" style="fill:none;fill-rule:nonzero;stroke:rgb(82,93,125);stroke-width:1.57px;"/>
        </g>
        <g transform="matrix(1.91316,0,0,1.91316,1326.36,277.877)">
            <path d="M0,-0.611C4.185,-0.439 8.39,-0.418 12.601,-0.418C14.005,-0.418 15.409,-0.421 16.813,-0.421C22.431,-0.421 28.048,-0.382 33.627,0" style="fill:none;fill-rule:nonzero;stroke:rgb(82,93,125);stroke-width:1.57px;"/>
        </g>
        <g transform="matrix(1.91163,-0.0764851,-0.0764851,-1.91163,1326.44,292.058)">
            <path d="M-0.014,0.688C14.218,0.968 30.499,-0.125 34.405,0.688" style="fill:none;fill-rule:nonzero;stroke:rgb(82,93,125);stroke-width:1.57px;"/>
        </g>
        <g transform="matrix(1.91316,0,0,1.91316,1510.48,344.749)">
            <path d="M0,-25.95C-2.64,-24.818 -12.764,-14.91 -20.719,-5.893L-8.753,5.729C-4.158,10.192 3.066,10.462 7.981,6.355L10.02,4.652C13.227,1.972 15.163,-1.929 15.361,-6.102C15.56,-10.277 13.999,-14.344 11.061,-17.314L-2.802,-31.327C-7.597,-36.173 -15.347,-36.412 -20.432,-31.871L-24.413,-28.315C-27.024,-25.983 -28.549,-22.671 -28.622,-19.17C-28.695,-15.67 -27.311,-12.296 -24.799,-9.856L-20.719,-5.893" style="fill:none;fill-rule:nonzero;stroke:rgb(82,93,125);stroke-width:1.57px;"/>
        </g>
        <g transform="matrix(1.45316,1.24438,1.24438,-1.45316,1477.72,284.02)">
            <path d="M-1.878,-5.081C3.23,-5.157 8.662,-4.688 13.745,-5.081" style="fill:none;fill-rule:nonzero;stroke:rgb(82,93,125);stroke-width:1.57px;"/>
        </g>
    </g>
</svg>
